<svg width="18" height="24" viewBox="0 0 18 24" fill="none" xmlns="http://www.w3.org/2000/svg">
<path d="M0 5.41276C0 4.17189 1.00593 3.16595 2.24681 3.16595H15.1149C16.3558 3.16595 17.3617 4.17189 17.3617 5.41276V21.7532C17.3617 22.9941 16.3558 24 15.1149 24H2.24681C1.00593 24 0 22.9941 0 21.7532V5.41276Z" fill="#949FA3"/>
<path d="M15.1149 23.183V24H2.24681V23.183H15.1149ZM16.5447 21.7532V5.41276C16.5447 4.4539 16.0738 3.98298 15.1149 3.98298H2.24681C1.28795 3.98298 0.817022 4.4539 0.817021 5.41276V21.7532C0.817021 22.712 1.28795 23.183 2.24681 23.183V24L2.18886 23.9993C0.99402 23.9691 0.0309453 23.006 0.000698138 21.8111L0 21.7532V5.41276C2.59094e-07 4.19126 0.974765 3.19739 2.18886 3.16665L2.24681 3.16595H15.1149L15.1728 3.16665C16.3869 3.19739 17.3617 4.19126 17.3617 5.41276V21.7532L17.361 21.8111C17.3308 23.006 16.3677 23.9691 15.1728 23.9993L15.1149 24V23.183C16.0738 23.183 16.5447 22.712 16.5447 21.7532Z" fill="#384347"/>
<path d="M4.9021 1.73618H12.5617V4.49362H4.9021V1.73618Z" fill="#949FA3"/>
<path d="M12.5617 1.73618V4.49362H4.9021V1.73618H12.5617ZM5.61699 3.77873H11.8468V2.45107H5.61699V3.77873Z" fill="#384347"/>
<path d="M10.3149 1.58298C10.3149 2.45723 9.60616 3.16596 8.7319 3.16596C7.85765 3.16596 7.14893 2.45723 7.14893 1.58298C7.14893 0.708724 7.85765 0 8.7319 0C9.60616 0 10.3149 0.708724 10.3149 1.58298Z" fill="#949FA3"/>
<path d="M9.70212 1.58298C9.70212 0.990741 9.32414 0.612766 8.7319 0.612766C8.13967 0.612766 7.76169 0.990741 7.76169 1.58298C7.76169 2.17522 8.13967 2.55319 8.7319 2.55319V3.16596C7.85765 3.16596 7.14893 2.45723 7.14893 1.58298C7.14893 0.708724 7.85765 0 8.7319 0C9.60616 0 10.3149 0.708724 10.3149 1.58298C10.3149 2.45723 9.60616 3.16596 8.7319 3.16596V2.55319C9.32414 2.55319 9.70212 2.17522 9.70212 1.58298Z" fill="#384347"/>
<path d="M13.2766 7.35318V8.1702H4.18726V7.35318H13.2766Z" fill="#384347"/>
<path d="M13.2766 11.6425V12.4596H4.18726V11.6425H13.2766Z" fill="#384347"/>
<path d="M13.2766 15.5234V16.3404H4.18726V15.5234H13.2766Z" fill="#384347"/>
<path d="M13.2766 19.7106V20.5277H4.18726V19.7106H13.2766Z" fill="#384347"/>
</svg>
