<svg width="22" height="24" viewBox="0 0 22 24" fill="none" xmlns="http://www.w3.org/2000/svg">
<path d="M0 4.98822C0 3.84467 0.927034 2.91763 2.07059 2.91763H13.9294C15.073 2.91763 16 3.84467 16 4.98822V20.047C16 21.1906 15.073 22.1176 13.9294 22.1176H2.07059C0.927034 22.1176 0 21.1906 0 20.047V4.98822Z" fill="#D9D9D9"/>
<path d="M13.9294 21.3647V22.1176H2.07059V21.3647H13.9294ZM15.2471 20.047V4.98822C15.2471 4.10457 14.8131 3.67057 13.9294 3.67057H2.07059C1.18693 3.67057 0.752941 4.10457 0.752941 4.98822V20.047C0.752941 20.9307 1.18693 21.3647 2.07059 21.3647V22.1176L2.01719 22.117C0.916058 22.0891 0.0285183 21.2016 0.000643382 20.1004L0 20.047V4.98822C2.38773e-07 3.86252 0.898313 2.9466 2.01719 2.91828L2.07059 2.91763H13.9294L13.9828 2.91828C15.1017 2.9466 16 3.86252 16 4.98822V20.047L15.9994 20.1004C15.9715 21.2016 15.0839 22.0891 13.9828 22.117L13.9294 22.1176V21.3647C14.8131 21.3647 15.2471 20.9307 15.2471 20.047Z" fill="#384347"/>
<path d="M4.61182 1.60001H11.6706V4.14118H4.61182V1.60001Z" fill="#D9D9D9"/>
<path d="M11.6706 1.60001V4.14118H4.61182V1.60001H11.6706ZM5.27064 3.48236H11.0118V2.25883H5.27064V3.48236Z" fill="#384347"/>
<path d="M9.60002 1.45882C9.60002 2.26451 8.94688 2.91765 8.1412 2.91765C7.33551 2.91765 6.68237 2.26451 6.68237 1.45882C6.68237 0.653138 7.33551 0 8.1412 0C8.94688 0 9.60002 0.653138 9.60002 1.45882Z" fill="#D9D9D9"/>
<path d="M9.03531 1.45882C9.03531 0.913036 8.68698 0.564706 8.1412 0.564706C7.59541 0.564706 7.24708 0.913036 7.24708 1.45882C7.24708 2.00461 7.59541 2.35294 8.1412 2.35294V2.91765C7.33551 2.91765 6.68237 2.26451 6.68237 1.45882C6.68237 0.653138 7.33551 0 8.1412 0C8.94688 0 9.60002 0.653138 9.60002 1.45882C9.60002 2.26451 8.94688 2.91765 8.1412 2.91765V2.35294C8.68698 2.35294 9.03531 2.00461 9.03531 1.45882Z" fill="#384347"/>
<path d="M6.02344 6.21176H16.2352L18.3058 8.28235L20.7058 10.5882V23.5294H6.02344V6.21176Z" fill="#D9D9D9"/>
<path d="M21.013 10.5597L20.4859 11.0973L15.6575 6.36358L16.1846 5.82593L21.013 10.5597Z" fill="#384347"/>
<path d="M20.9883 24L20.2353 24L20.2353 10.5412L20.9883 10.5412L20.9883 24Z" fill="#384347"/>
<path d="M5.83522 24L5.83522 23.2471L20.894 23.2471L20.894 24L5.83522 24Z" fill="#384347"/>
<path d="M5.8352 6.30589L6.58815 6.30589L6.58815 23.5294L5.83521 23.5294L5.8352 6.30589Z" fill="#384347"/>
<path d="M16.1881 5.8353V6.58824H5.83521V5.8353H16.1881Z" fill="#384347"/>
<path d="M20.5176 10.2588V11.0118H16V10.2588H20.5176Z" fill="#384347"/>
<path d="M15.5293 6.30587H16.2822V11.0117H15.5293V6.30587Z" fill="#384347"/>
<path d="M13.3648 8.75293V9.50587H8.84717V8.75293H13.3648Z" fill="#384347"/>
<path d="M17.6942 12.7059V13.4588H8.84717V12.7059H17.6942Z" fill="#384347"/>
<path d="M17.6942 16.2823V17.0353H8.84717V16.2823H17.6942Z" fill="#384347"/>
<path d="M17.6942 20.1412V20.8941H8.84717V20.1412H17.6942Z" fill="#384347"/>
</svg>
