<svg width="139" height="28" id="Layer_1" xmlns="http://www.w3.org/2000/svg" version="1.1" viewBox="0 0 139 28">
                <!-- Generator: Adobe Illustrator 29.5.1, SVG Export Plug-In . SVG Version: 2.1.0 Build 141)  -->
                <defs>
                  <style>
                    .st0 {
                      fill: #ed8e5b;
                    }
              
                    .st1 {
                      fill: #fff;
                    }
                  </style>
                </defs>
                <g>
                  <path class="st0" d="M26.8,16.1c-2.8,4.5-8,5.3-13,4.6-.3,0-1-.3-1.2-.2s0,.3,0,.4c0,.8-.1,3.7.1,4.3s.6,1,.8,1.3.1,0,.1,0c0,.3-.4.5-.6.5-1.1.1-3.1,0-4.3,0s-1.6-.3-1.7-1.4c.2-5.9-.3-11.8.3-17.7C9-.3,22.4-.4,26.6,5.6c2,2.9,2.1,7.5.2,10.5ZM23.1,4.1c-.5-.5-1.1-.5-1.7-.8-1.1-.5-1.4-.7-2.6-.8s-1.2,0-2.1.2-1.2,0-1.7,0c-.9.2-2.7.9-3.5,1.4-3.1,2.2-4.3,6.6-.7,9s5.2,1.2,7.2.6,4.9-2.6,4.6-5.5-3.4-3.7-5.3-3.5-.5.2-.7.2c-.3,0-.7,0-1.1,0-1,.2-2.5,1.1-3.1,1.9-1.4,1.8-.4,3.8,1.8,4.3s4.6-.3,5-2.1-3.4-2.8-4.1-1.2-.1.6,0,.8c.4.4.8-.2,1-.4.9-.8,2.1.5,1.1,1.4s-2.1.8-3,.5c-1.7-.5-1.7-2.4-.5-3.4,1.9-1.6,6.6-1.6,7.2,1.3s-3.8,4.7-6.2,4.8-5.7-1.7-5-5,4.4-4.6,7.3-4.5,8.2,2.9,7.1,7.4-4.8,5-7.4,5.2-1-.2-1.6-.3c-.9,0-1.7.4-2.6,0s-1.2-1-2.3-.9-.5.7-.2,1c.7.7,1.7.6,2.5.8s.8.6,1.8.5.5-.1.7-.1c.5,0,1,.2,1.7.2s1.2-.6,1.9-.7,1,0,1.4,0,.9-.7,1.2-.9,1.4-.3,1.6-.7.5-.9,1-1.3.7-.4.8-.5c.3-.5.4-1.6.6-2.2s.3-.4.3-.6c.2-.9-.2-1.5-.3-2.3s0-.4,0-.6c0-.6-1-2-1.5-2.4s-.7-.6-1-.9Z"></path>
                  <path class="st0" d="M5.1,11.2c1.7.4,2.2,1.5,2.1,2.6-.2,0-.4.1-.7.1-1.6.3-4.7-.9-4.7-.9,0,0,2.3,1.5,4.5,1.5.3,0,.5,0,.8,0-.4,1.3-1.3,2.1-3.2,1.6-2-.5-3.8-3.6-3.8-3.6,0,0,3.1-1.8,5.1-1.3Z"></path>
                </g>
                <g>
                  <path class="st1" d="M102.4,6.1c2.1.1,4.3.9,5.2,3,1,2.5.4,6-2.5,6.8v.2s3.6,6.3,3.6,6.3h-3.8l-3.3-5.6h-2.1v5.6h-3.6V6.3l.2-.2c2.1.1,4.3-.1,6.4,0ZM102.8,9.1c-.9-.2-2.3.1-3.2,0l-.2.2v4.2h3.5c0,0,.7-.3.8-.4.9-.8.9-2.5,0-3.3s-.9-.6-1-.7Z"></path>
                  <path class="st1" d="M62.1,22.3h-3.6l-1.1-3.2h-6.2s-1.2,3.2-1.2,3.2h-3.6l6-16.1c.2-.2,3.6-.3,3.8,0s.3.7.3.9c1.2,3,2.3,6,3.4,9s1.5,4.1,2.1,6.2ZM56.4,16.3l-2.1-6.1-2.1,6c.2.3.3,0,.3,0h3.9Z"></path>
                  <path class="st1" d="M76.3,10.6h-3.5c-.1-1.6-1.3-2.2-2.8-1.9s-2.3,2.3-.7,3.2c2.5,1.5,6.8,1.2,7.3,5.2.8,6.7-10.5,7.4-12.1,1.9s-.4-1.6,0-1.7c1.1.2,2.2.2,3.2,0,.2,2,1.4,2.7,3.4,2.5s2.6-2.3.9-3.3-6-1.2-7-4.2.4-4.9,2.8-5.8c3.5-1.3,8.5,0,8.5,4.3Z"></path>
                  <path class="st1" d="M138.7,6.1h.3c0,.3-.1.4-.1.5v2.7h-6.4l-.2.2v3.2l.2.2h5.9v2.9h-6.1v3.4h6.9c.3.2,0,.5,0,.9,0,.8,0,1.5,0,2.3h-10.4V6.4s-.1-.1-.1-.2c.1,0,.3-.1.3-.1h9.7Z"></path>
                  <polygon class="st1" points="123.4 6.1 123.4 9.2 116.7 9.2 116.7 12.8 122.8 12.8 122.8 15.7 116.7 15.7 116.7 19.1 123.4 19.1 123.6 19.4 123.6 22.1 123.4 22.3 113.3 22.3 113.3 6.1 123.4 6.1"></polygon>
                  <path class="st1" d="M34.3,6.1c1.6,0,3.3,0,4.9,0s4.6.2,5.9,2.4,1,5.7-.9,7.3-2.8,1.4-3.7,1.4h-2.7v5.2h-3.5V6.1ZM37.7,9.1v4.8c.7.4,2.9.2,3.5,0,1.1-.6,1.1-3,.5-3.9s-.9-.8-1-.8h-3Z"></path>
                  <polygon class="st1" points="91.5 6.1 91.5 9.2 87.2 9.1 87.2 22.3 83.5 22.3 83.6 9.3 83.5 9.1 79.2 9.2 79.2 6.3 79.4 6.1 91.5 6.1"></polygon>
                </g>
                <path class="st1" d="M23.1,4.1c.3.3.7.6,1,.9s1.4,1.8,1.5,2.4,0,.4,0,.6c0,.8.5,1.4.3,2.3s-.3.4-.3.6c-.3.6-.3,1.7-.6,2.2s-.6.4-.8.5c-.5.5-.6.8-1,1.3s-1.2.4-1.6.7-.9.8-1.2.9-1,0-1.4,0c-.7,0-1.1.6-1.9.7s-1.1-.2-1.7-.2-.5.1-.7.1c-1,0-1-.3-1.8-.5s-1.9-.1-2.5-.8-.4-.9.2-1c1,0,1.5.6,2.3.9s1.7,0,2.6,0,.8.3,1.6.3c2.5-.2,6.7-2.6,7.4-5.2,1.1-4.5-3-7.4-7.1-7.4s-6.6,1.4-7.3,4.5,2,5,5,5,6.9-1.7,6.2-4.8-5.4-2.9-7.2-1.3-1.3,2.9.5,3.4,2.3,0,3-.5c1-.9-.2-2.2-1.1-1.4s-.6.9-1,.4-.2-.5,0-.8c.7-1.6,4.5-.5,4.1,1.2s-3.5,2.4-5,2.1c-2.1-.5-3.2-2.5-1.8-4.3s2.1-1.7,3.1-1.9.7,0,1.1,0,.4-.2.7-.2c1.8-.2,5,1.4,5.3,3.5s-2.1,4.7-4.6,5.5-5.4.6-7.2-.6c-3.5-2.5-2.4-6.8.7-9s2.5-1.3,3.5-1.4,1.2,0,1.7,0c.9-.1,1.1-.3,2.1-.2s1.6.3,2.6.8,1.2.4,1.7.8Z"></path>
              </svg>