<svg width="594" height="530" viewBox="0 0 594 530" fill="none" xmlns="http://www.w3.org/2000/svg">
<g style="mix-blend-mode:soft-light" opacity="0.75">
<path d="M20.9238 413.83C32.4798 413.83 41.8477 423.198 41.8477 434.754C41.8476 445.903 33.1283 455.013 22.1367 455.642V494.544H229.479C231.249 484.781 239.792 477.377 250.065 477.377C261.621 477.377 270.989 486.745 270.989 498.301C270.989 509.857 261.621 519.225 250.065 519.225C238.734 519.225 229.507 510.217 229.153 498.971H22.1367V557.862H229.388C230.934 547.832 239.602 540.152 250.065 540.152C261.621 540.152 270.989 549.52 270.989 561.076C270.989 572.632 261.621 582 250.065 582C238.917 582 229.806 573.281 229.178 562.29L21.1855 562.289H17.71V455.432C7.67988 453.885 5.81899e-05 445.217 0 434.754C0 423.198 9.3679 413.83 20.9238 413.83ZM447.681 549.007C451.105 549.007 453.881 551.783 453.881 555.207V562.956C453.881 566.38 451.105 569.156 447.681 569.156H289.589C286.165 569.156 283.389 566.38 283.389 562.956V555.207C283.389 551.783 286.164 549.007 289.588 549.007H447.681ZM447.681 485.127C451.105 485.127 453.881 487.902 453.881 491.326V499.076C453.881 502.5 451.105 505.276 447.681 505.276H289.589C286.165 505.276 283.389 502.5 283.389 499.076V491.326C283.389 487.903 286.164 485.127 289.588 485.127H447.681ZM215.662 424.68C219.086 424.68 221.861 427.456 221.861 430.88V438.629C221.861 442.053 219.086 444.829 215.662 444.829H57.5693C54.1455 444.829 51.3701 442.053 51.3701 438.629V430.88C51.3701 427.456 54.1455 424.68 57.5693 424.68H215.662ZM20.9238 0C32.4798 0 41.8476 9.3679 41.8477 20.9238C41.8477 30.6519 35.2089 38.8282 26.2148 41.1719V378.55L229.366 378.927C229.219 377.925 229.142 376.9 229.142 375.857C229.142 364.301 238.509 354.933 250.065 354.933C261.621 354.933 270.989 364.301 270.989 375.857C270.989 387.413 261.621 396.781 250.065 396.781C240.668 396.781 232.717 390.586 230.075 382.057H22.1064V41.8135C21.715 41.8353 21.3207 41.8477 20.9238 41.8477C9.3679 41.8476 0 32.4798 0 20.9238C8.41712e-05 9.36795 9.36795 8.41767e-05 20.9238 0ZM447.681 367.48C451.105 367.48 453.881 370.257 453.881 373.681V381.43C453.881 384.854 451.105 387.63 447.681 387.63H289.589C286.165 387.63 283.389 384.854 283.389 381.43V373.681C283.389 370.257 286.164 367.481 289.588 367.48H447.681ZM586.37 306.886C590.187 306.886 593.282 309.661 593.282 313.085V320.835C593.282 324.259 590.187 327.034 586.37 327.034H411.845C408.027 327.034 404.933 324.259 404.933 320.835V313.085C404.933 309.661 408.027 306.886 411.845 306.886H586.37ZM250.065 54.2471C261.621 54.2471 270.989 63.6159 270.989 75.1719C270.989 85.9501 262.84 94.8232 252.366 95.9688V132.824H394.045V137.252H252.366V190.382H394.045V194.81H252.366V247.938H394.045V252.366H252.366V314.351H394.045V318.778H247.938V95.9883C238.147 94.9997 230.351 87.2605 229.271 77.4961H27.3672V74.3965H229.157C229.565 63.1996 238.769 54.2471 250.065 54.2471ZM586.37 237.36C590.187 237.36 593.282 240.137 593.282 243.561V251.311C593.282 254.734 590.187 257.51 586.37 257.51H411.845C408.028 257.51 404.933 254.734 404.933 251.311V243.561C404.933 240.137 408.027 237.36 411.845 237.36H586.37ZM586.37 180.013C590.187 180.013 593.282 182.789 593.282 186.213V193.962C593.282 197.386 590.187 200.162 586.37 200.162H411.845C408.027 200.162 404.933 197.386 404.933 193.962V186.213C404.933 182.789 408.027 180.013 411.845 180.013H586.37ZM586.37 123.994C590.187 123.994 593.282 126.77 593.282 130.194V137.944C593.282 141.368 590.187 144.144 586.37 144.144H411.845C408.028 144.144 404.933 141.368 404.933 137.944V130.194C404.933 126.77 408.027 123.994 411.845 123.994H586.37ZM447.681 66.6465C451.105 66.6465 453.881 69.4227 453.881 72.8467V80.5957C453.881 84.0197 451.105 86.7959 447.681 86.7959H289.589C286.165 86.7959 283.389 84.0197 283.389 80.5957V72.8467C283.389 69.4227 286.165 66.6465 289.589 66.6465H447.681ZM215.662 10.8496C219.086 10.8496 221.861 13.625 221.861 17.0488V24.7988C221.861 28.2228 219.086 30.998 215.662 30.998H57.5693C54.1455 30.9979 51.3701 28.2227 51.3701 24.7988V17.0488C51.3703 13.6251 54.1456 10.8498 57.5693 10.8496H215.662Z" fill="white"/>
</g>
</svg>
