<svg width="24" height="24" viewBox="0 0 24 24" fill="none" xmlns="http://www.w3.org/2000/svg">
<path d="M13.8697 16.1759H14.2589C14.7853 16.1759 15.1597 16.1092 15.382 15.9758C15.6044 15.8345 15.7601 15.5794 15.8491 15.2105C15.9158 14.9672 15.9603 14.0843 15.9825 12.5616C16.0122 11.039 16.027 8.66874 16.027 5.45083V1.69529H13.7808C12.691 1.69529 11.9534 1.85226 11.5679 2.16621C11.1898 2.4723 10.9081 3.12373 10.7228 4.1205L10 3.95568C10.1409 3.27285 10.2483 2.6018 10.3225 1.94252C10.3966 1.28324 10.4337 0.635734 10.4337 0C10.6561 0.149123 11.1046 0.255078 11.7792 0.317867C12.4612 0.380656 13.651 0.41205 15.3487 0.41205H18.062C20.3156 0.41205 21.7649 0.38458 22.4098 0.32964C23.0622 0.266851 23.5181 0.156971 23.7776 0C23.7776 0.0784857 23.7739 0.204063 23.7665 0.376731C23.7591 0.541551 23.7554 0.667128 23.7554 0.753463C23.7554 1.24792 23.7739 1.75808 23.811 2.28393C23.8554 2.80979 23.9185 3.35134 24 3.90859L23.2994 4.04986C23.2105 3.16297 22.9807 2.55863 22.61 2.23684C22.2468 1.91505 21.4758 1.73453 20.2971 1.69529H18.1954C18.188 2.14266 18.1806 2.77447 18.1732 3.59072C18.1583 5.73338 18.1509 7.17359 18.1509 7.91136C18.1509 10.6976 18.1657 12.5852 18.1954 13.5741C18.2325 14.563 18.2918 15.1791 18.3733 15.4224C18.4697 15.705 18.6291 15.9012 18.8515 16.0111C19.0739 16.121 19.4149 16.1759 19.8745 16.1759H20.2637V17C19.6484 16.9686 19.0665 16.9451 18.5179 16.9294C17.9767 16.9137 17.4911 16.9058 17.0612 16.9058C16.6831 16.9058 16.216 16.9137 15.66 16.9294C15.1115 16.9451 14.5147 16.9686 13.8697 17V16.1759Z" fill="#949FA3"/>
<path d="M8.74505 13.4688L10.3529 15.0773L1.60781 23.8174L0 22.2088L8.74505 13.4688ZM11.8753 13.0886L10.7324 11.9449C10.3751 11.5876 10.2101 12.0009 9.85352 12.3575C9.49766 12.7133 9.0844 12.8783 9.4417 13.2356L10.5853 14.3793C10.9426 14.7366 11.1069 14.3219 11.4635 13.966C11.8179 13.6094 12.2326 13.4451 11.8753 13.0886ZM12.9235 14.5622L12.4299 15.218L11.6098 15.2538L12.267 15.7482L12.3029 16.5625L12.7944 15.911L13.6158 15.8744L12.9601 15.3815L12.9235 14.5622ZM15.9375 11.8703L14.4589 11.9356L13.575 13.1086L13.5118 11.6415L12.3294 10.7518L13.8053 10.6872L14.692 9.50631L14.758 10.9821L15.9375 11.8703ZM15.3715 11.6953L14.5615 11.0861L14.517 10.0745L13.9071 10.8838L12.897 10.9283L13.7084 11.5389L13.7529 12.5419L14.3555 11.739L15.3715 11.6953ZM10.3299 11.3086L10.8515 10.6155L11.7246 10.5775L11.028 10.0537L10.9885 9.18274L10.4648 9.87939L9.59452 9.91741L10.2926 10.4433L10.3299 11.3086Z" fill="#949FA3"/>
</svg>
