<svg width="634" height="520" viewBox="0 0 634 520" fill="none" xmlns="http://www.w3.org/2000/svg">
<g opacity="0.2">
<path d="M10.0036 3.09091V14H8.49077L2.94567 5.99929H2.84446V14H1.19851V3.09091H2.72195L8.27237 11.1023H8.37358V3.09091H10.0036ZM14.6578 14.1811C14.1393 14.1811 13.6705 14.0852 13.2515 13.8935C12.8325 13.6982 12.5004 13.4158 12.2554 13.0465C12.0139 12.6772 11.8932 12.2244 11.8932 11.6882C11.8932 11.2266 11.982 10.8466 12.1595 10.5483C12.3371 10.25 12.5768 10.0138 12.8786 9.83984C13.1805 9.66584 13.5178 9.53445 13.8907 9.44567C14.2636 9.35689 14.6436 9.28942 15.0306 9.24325C15.5207 9.18643 15.9184 9.14027 16.2238 9.10476C16.5292 9.0657 16.7512 9.00355 16.8896 8.91832C17.0281 8.8331 17.0974 8.6946 17.0974 8.50284V8.46555C17.0974 8.00035 16.966 7.63991 16.7032 7.38423C16.444 7.12855 16.0569 7.00071 15.542 7.00071C15.0058 7.00071 14.5832 7.11967 14.2742 7.3576C13.9688 7.59197 13.7575 7.85298 13.6404 8.14062L12.1436 7.79972C12.3211 7.30256 12.5803 6.90128 12.9213 6.59588C13.2657 6.28693 13.6617 6.06321 14.1091 5.92472C14.5566 5.78267 15.0271 5.71165 15.5207 5.71165C15.8474 5.71165 16.1936 5.75071 16.5594 5.82884C16.9287 5.90341 17.2732 6.0419 17.5928 6.24432C17.9159 6.44673 18.1805 6.73615 18.3865 7.11257C18.5924 7.48544 18.6954 7.97017 18.6954 8.56676V14H17.14V12.8814H17.0761C16.9731 13.0874 16.8186 13.2898 16.6127 13.4886C16.4067 13.6875 16.1421 13.8526 15.819 13.984C15.4958 14.1154 15.1088 14.1811 14.6578 14.1811ZM15.004 12.9027C15.4443 12.9027 15.8208 12.8157 16.1333 12.6417C16.4493 12.4677 16.689 12.2404 16.8524 11.9599C17.0193 11.6758 17.1027 11.3722 17.1027 11.049V9.99432C17.0459 10.0511 16.9358 10.1044 16.7725 10.1541C16.6127 10.2003 16.4298 10.2411 16.2238 10.2766C16.0178 10.3086 15.8172 10.3388 15.6219 10.3672C15.4266 10.392 15.2632 10.4134 15.1318 10.4311C14.8229 10.4702 14.5406 10.5359 14.2849 10.6282C14.0328 10.7205 13.8303 10.8537 13.6776 11.0277C13.5285 11.1982 13.4539 11.4254 13.4539 11.7095C13.4539 12.1037 13.5995 12.402 13.8907 12.6044C14.1819 12.8033 14.553 12.9027 15.004 12.9027ZM20.8168 14V5.81818H22.3455V7.14986H22.4467C22.6172 6.69886 22.896 6.3473 23.283 6.09517C23.6701 5.83949 24.1335 5.71165 24.6733 5.71165C25.2202 5.71165 25.6783 5.83949 26.0476 6.09517C26.4205 6.35085 26.6957 6.70241 26.8732 7.14986H26.9585C27.1538 6.71307 27.4645 6.36506 27.8906 6.10582C28.3168 5.84304 28.8246 5.71165 29.4141 5.71165C30.1562 5.71165 30.7617 5.94425 31.2305 6.40945C31.7028 6.87464 31.9389 7.57599 31.9389 8.51349V14H30.3462V8.66264C30.3462 8.10866 30.1953 7.70739 29.8935 7.45881C29.5916 7.21023 29.2312 7.08594 28.8121 7.08594C28.2937 7.08594 27.8906 7.24574 27.603 7.56534C27.3153 7.88139 27.1715 8.288 27.1715 8.78516V14H25.5842V8.56143C25.5842 8.11754 25.4457 7.76065 25.1687 7.49077C24.8917 7.22088 24.5313 7.08594 24.0874 7.08594C23.7855 7.08594 23.5067 7.16584 23.2511 7.32564C22.9989 7.48189 22.7947 7.70028 22.6385 7.98082C22.4858 8.26136 22.4094 8.58629 22.4094 8.95561V14H20.8168ZM37.5999 14.1651C36.7938 14.1651 36.0995 13.9929 35.5171 13.6484C34.9383 13.3004 34.4909 12.8121 34.1748 12.1836C33.8623 11.5515 33.7061 10.8111 33.7061 9.96236C33.7061 9.12429 33.8623 8.38565 34.1748 7.74645C34.4909 7.10724 34.9312 6.60831 35.4958 6.24964C36.064 5.89098 36.7281 5.71165 37.488 5.71165C37.9497 5.71165 38.3971 5.788 38.8303 5.9407C39.2636 6.09339 39.6524 6.3331 39.9969 6.6598C40.3414 6.98651 40.613 7.41087 40.8119 7.93288C41.0107 8.45135 41.1102 9.08168 41.1102 9.82386V10.3885H34.6063V9.19531H39.5494C39.5494 8.77628 39.4642 8.40518 39.2938 8.08203C39.1233 7.75533 38.8836 7.49787 38.5747 7.30966C38.2693 7.12145 37.9106 7.02734 37.4987 7.02734C37.0512 7.02734 36.6606 7.13743 36.3268 7.3576C35.9965 7.57422 35.7409 7.85831 35.5597 8.20987C35.3822 8.55788 35.2934 8.93608 35.2934 9.34446V10.2766C35.2934 10.8235 35.3893 11.2887 35.5811 11.6722C35.7764 12.0558 36.048 12.3487 36.396 12.5511C36.7441 12.75 37.1507 12.8494 37.6159 12.8494C37.9177 12.8494 38.1929 12.8068 38.4415 12.7216C38.6901 12.6328 38.9049 12.5014 39.086 12.3274C39.2671 12.1534 39.4056 11.9386 39.5015 11.6829L41.009 11.9545C40.8882 12.3984 40.6716 12.7873 40.3591 13.1211C40.0502 13.4513 39.6613 13.7088 39.1926 13.8935C38.7274 14.0746 38.1965 14.1651 37.5999 14.1651Z" fill="#717074"/>
<path d="M45.1412 9.22727L45.2424 6.9794L43.3461 8.19922L42.7654 7.18714L44.7789 6.15909L42.7654 5.13104L43.3461 4.11896L45.2424 5.33878L45.1412 3.09091H46.2971L46.1958 5.33878L48.0922 4.11896L48.6728 5.13104L46.6593 6.15909L48.6728 7.18714L48.0922 8.19922L46.1958 6.9794L46.2971 9.22727H45.1412Z" fill="#FF0000"/>
<rect x="1" y="30" width="632" height="53" rx="9" fill="white" fill-opacity="0.7" stroke="#908F94" stroke-width="2"/>
<path d="M21.2784 63V51.3636H25.4261C26.3277 51.3636 27.0758 51.5189 27.6705 51.8295C28.2689 52.1402 28.7159 52.5701 29.0114 53.1193C29.3068 53.6648 29.4545 54.2955 29.4545 55.0114C29.4545 55.7235 29.3049 56.3504 29.0057 56.892C28.7102 57.4299 28.2633 57.8485 27.6648 58.1477C27.0701 58.447 26.322 58.5966 25.4205 58.5966H22.2784V57.0852H25.2614C25.8295 57.0852 26.2917 57.0038 26.6477 56.8409C27.0076 56.678 27.2708 56.4413 27.4375 56.1307C27.6042 55.8201 27.6875 55.447 27.6875 55.0114C27.6875 54.572 27.6023 54.1913 27.4318 53.8693C27.2652 53.5473 27.0019 53.3011 26.642 53.1307C26.286 52.9564 25.8182 52.8693 25.2386 52.8693H23.0341V63H21.2784ZM27.0227 57.75L29.8977 63H27.8977L25.0795 57.75H27.0227ZM35.1065 63.1761C34.2467 63.1761 33.5062 62.9924 32.8849 62.625C32.2675 62.2538 31.7902 61.733 31.4531 61.0625C31.1198 60.3883 30.9531 59.5985 30.9531 58.6932C30.9531 57.7992 31.1198 57.0114 31.4531 56.3295C31.7902 55.6477 32.2599 55.1155 32.8622 54.733C33.4683 54.3504 34.1766 54.1591 34.9872 54.1591C35.4796 54.1591 35.9569 54.2405 36.419 54.4034C36.8812 54.5663 37.2959 54.822 37.6634 55.1705C38.0308 55.5189 38.3205 55.9716 38.5327 56.5284C38.7448 57.0814 38.8509 57.7538 38.8509 58.5455V59.1477H31.9134V57.875H37.1861C37.1861 57.428 37.0952 57.0322 36.9134 56.6875C36.7315 56.339 36.4759 56.0644 36.1463 55.8636C35.8205 55.6629 35.438 55.5625 34.9986 55.5625C34.5213 55.5625 34.1046 55.6799 33.7486 55.9148C33.3963 56.1458 33.1236 56.4489 32.9304 56.8239C32.741 57.1951 32.6463 57.5985 32.6463 58.0341V59.0284C32.6463 59.6117 32.7486 60.108 32.9531 60.517C33.1615 60.9261 33.4512 61.2386 33.8224 61.4545C34.1937 61.6667 34.6274 61.7727 35.1236 61.7727C35.4455 61.7727 35.7391 61.7273 36.0043 61.6364C36.2694 61.5417 36.4986 61.4015 36.6918 61.2159C36.8849 61.0303 37.0327 60.8011 37.1349 60.5284L38.7429 60.8182C38.6141 61.2917 38.383 61.7064 38.0497 62.0625C37.7202 62.4148 37.3054 62.6894 36.8054 62.8864C36.3092 63.0795 35.7429 63.1761 35.1065 63.1761ZM46.2642 59.3807V54.2727H47.9688V63H46.2983V61.4886H46.2074C46.0066 61.9545 45.6847 62.3428 45.2415 62.6534C44.8021 62.9602 44.2547 63.1136 43.5994 63.1136C43.0388 63.1136 42.5426 62.9905 42.1108 62.7443C41.6828 62.4943 41.3456 62.125 41.0994 61.6364C40.857 61.1477 40.7358 60.5436 40.7358 59.8239V54.2727H42.4347V59.6193C42.4347 60.214 42.5994 60.6875 42.929 61.0398C43.2585 61.392 43.6866 61.5682 44.2131 61.5682C44.5313 61.5682 44.8475 61.4886 45.1619 61.3295C45.4801 61.1705 45.7434 60.9299 45.9517 60.608C46.1638 60.286 46.268 59.8769 46.2642 59.3807ZM50.3878 63V51.3636H52.0866V55.6875H52.1889C52.2874 55.5057 52.4295 55.2955 52.6151 55.0568C52.8007 54.8182 53.0582 54.6098 53.3878 54.4318C53.7173 54.25 54.1529 54.1591 54.6946 54.1591C55.3991 54.1591 56.0279 54.3371 56.581 54.6932C57.134 55.0492 57.5677 55.5625 57.8821 56.233C58.2003 56.9034 58.3594 57.7102 58.3594 58.6534C58.3594 59.5966 58.2022 60.4053 57.8878 61.0795C57.5734 61.75 57.1416 62.267 56.5923 62.6307C56.0431 62.9905 55.4162 63.1705 54.7116 63.1705C54.1813 63.1705 53.7476 63.0814 53.4105 62.9034C53.0772 62.7254 52.8158 62.517 52.6264 62.2784C52.437 62.0398 52.2912 61.8277 52.1889 61.642H52.0469V63H50.3878ZM52.0526 58.6364C52.0526 59.25 52.1416 59.7879 52.3196 60.25C52.4976 60.7121 52.7552 61.0739 53.0923 61.3352C53.4295 61.5928 53.8423 61.7216 54.331 61.7216C54.8385 61.7216 55.2628 61.5871 55.6037 61.3182C55.9446 61.0455 56.2022 60.6761 56.3764 60.2102C56.5545 59.7443 56.6435 59.2197 56.6435 58.6364C56.6435 58.0606 56.5563 57.5436 56.3821 57.0852C56.2116 56.6269 55.9541 56.2652 55.6094 56C55.2685 55.7348 54.8423 55.6023 54.331 55.6023C53.8385 55.6023 53.4219 55.7292 53.081 55.983C52.7438 56.2367 52.4882 56.5909 52.3139 57.0455C52.1397 57.5 52.0526 58.0303 52.0526 58.6364ZM64.0284 63.1761C63.1686 63.1761 62.428 62.9924 61.8068 62.625C61.1894 62.2538 60.7121 61.733 60.375 61.0625C60.0417 60.3883 59.875 59.5985 59.875 58.6932C59.875 57.7992 60.0417 57.0114 60.375 56.3295C60.7121 55.6477 61.1818 55.1155 61.7841 54.733C62.3902 54.3504 63.0985 54.1591 63.9091 54.1591C64.4015 54.1591 64.8788 54.2405 65.3409 54.4034C65.803 54.5663 66.2178 54.822 66.5852 55.1705C66.9527 55.5189 67.2424 55.9716 67.4545 56.5284C67.6667 57.0814 67.7727 57.7538 67.7727 58.5455V59.1477H60.8352V57.875H66.108C66.108 57.428 66.017 57.0322 65.8352 56.6875C65.6534 56.339 65.3977 56.0644 65.0682 55.8636C64.7424 55.6629 64.3598 55.5625 63.9205 55.5625C63.4432 55.5625 63.0265 55.6799 62.6705 55.9148C62.3182 56.1458 62.0455 56.4489 61.8523 56.8239C61.6629 57.1951 61.5682 57.5985 61.5682 58.0341V59.0284C61.5682 59.6117 61.6705 60.108 61.875 60.517C62.0833 60.9261 62.3731 61.2386 62.7443 61.4545C63.1155 61.6667 63.5492 61.7727 64.0455 61.7727C64.3674 61.7727 64.661 61.7273 64.9261 61.6364C65.1913 61.5417 65.4205 61.4015 65.6136 61.2159C65.8068 61.0303 65.9545 60.8011 66.0568 60.5284L67.6648 60.8182C67.536 61.2917 67.3049 61.7064 66.9716 62.0625C66.642 62.4148 66.2273 62.6894 65.7273 62.8864C65.2311 63.0795 64.6648 63.1761 64.0284 63.1761ZM71.3565 57.8182V63H69.6577V54.2727H71.2884V55.6932H71.3963C71.5971 55.2311 71.9115 54.8598 72.3395 54.5795C72.7713 54.2992 73.3149 54.1591 73.9702 54.1591C74.5649 54.1591 75.0857 54.2841 75.5327 54.5341C75.9796 54.7803 76.3262 55.1477 76.5724 55.6364C76.8187 56.125 76.9418 56.7292 76.9418 57.4489V63H75.2429V57.6534C75.2429 57.0208 75.0781 56.5265 74.7486 56.1705C74.419 55.8106 73.9664 55.6307 73.3906 55.6307C72.9967 55.6307 72.6463 55.7159 72.3395 55.8864C72.0365 56.0568 71.7959 56.3068 71.6179 56.6364C71.4437 56.9621 71.3565 57.3561 71.3565 57.8182ZM83.5909 63V51.3636H87.7386C88.6439 51.3636 89.3939 51.5284 89.9886 51.858C90.5833 52.1875 91.0284 52.6383 91.3239 53.2102C91.6193 53.7784 91.767 54.4186 91.767 55.1307C91.767 55.8466 91.6174 56.4905 91.3182 57.0625C91.0227 57.6307 90.5758 58.0814 89.9773 58.4148C89.3826 58.7443 88.6345 58.9091 87.733 58.9091H84.8807V57.4205H87.5739C88.1458 57.4205 88.6098 57.322 88.9659 57.125C89.322 56.9242 89.5833 56.6515 89.75 56.3068C89.9167 55.9621 90 55.5701 90 55.1307C90 54.6913 89.9167 54.3011 89.75 53.9602C89.5833 53.6193 89.3201 53.3523 88.9602 53.1591C88.6042 52.9659 88.1345 52.8693 87.5511 52.8693H85.3466V63H83.5909ZM96.1506 63.1932C95.5975 63.1932 95.0975 63.0909 94.6506 62.8864C94.2036 62.678 93.8494 62.3769 93.5881 61.983C93.3305 61.589 93.2017 61.1061 93.2017 60.5341C93.2017 60.0417 93.2964 59.6364 93.4858 59.3182C93.6752 59 93.9309 58.7481 94.2528 58.5625C94.5748 58.3769 94.9347 58.2367 95.3324 58.142C95.7301 58.0473 96.1354 57.9754 96.5483 57.9261C97.071 57.8655 97.4953 57.8163 97.821 57.7784C98.1468 57.7367 98.3835 57.6705 98.5312 57.5795C98.679 57.4886 98.7528 57.3409 98.7528 57.1364V57.0966C98.7528 56.6004 98.6127 56.2159 98.3324 55.9432C98.0559 55.6705 97.643 55.5341 97.0938 55.5341C96.5218 55.5341 96.071 55.661 95.7415 55.9148C95.4157 56.1648 95.1903 56.4432 95.0653 56.75L93.4688 56.3864C93.6581 55.8561 93.9347 55.428 94.2983 55.1023C94.6657 54.7727 95.0881 54.5341 95.5653 54.3864C96.0426 54.2348 96.5445 54.1591 97.071 54.1591C97.4195 54.1591 97.7888 54.2008 98.179 54.2841C98.5729 54.3636 98.9403 54.5114 99.2812 54.7273C99.6259 54.9432 99.9081 55.2519 100.128 55.6534C100.348 56.0511 100.457 56.5682 100.457 57.2045V63H98.7983V61.8068H98.7301C98.6203 62.0265 98.4555 62.2424 98.2358 62.4545C98.0161 62.6667 97.7339 62.8428 97.3892 62.983C97.0445 63.1231 96.6316 63.1932 96.1506 63.1932ZM96.5199 61.8295C96.9896 61.8295 97.3911 61.7367 97.7244 61.5511C98.0616 61.3655 98.3172 61.1231 98.4915 60.8239C98.6695 60.5208 98.7585 60.197 98.7585 59.8523V58.7273C98.6979 58.7879 98.5805 58.8447 98.4062 58.8977C98.2358 58.947 98.0407 58.9905 97.821 59.0284C97.6013 59.0625 97.3873 59.0947 97.179 59.125C96.9706 59.1515 96.7964 59.1742 96.6562 59.1932C96.3267 59.2348 96.0256 59.3049 95.7528 59.4034C95.4839 59.5019 95.268 59.6439 95.1051 59.8295C94.946 60.0114 94.8665 60.2538 94.8665 60.5568C94.8665 60.9773 95.0218 61.2955 95.3324 61.5114C95.643 61.7235 96.0388 61.8295 96.5199 61.8295ZM109.26 56.4034L107.72 56.6761C107.656 56.4792 107.554 56.2917 107.413 56.1136C107.277 55.9356 107.091 55.7898 106.857 55.6761C106.622 55.5625 106.328 55.5057 105.976 55.5057C105.495 55.5057 105.093 55.6136 104.771 55.8295C104.449 56.0417 104.288 56.3163 104.288 56.6534C104.288 56.9451 104.396 57.1799 104.612 57.358C104.828 57.536 105.177 57.6818 105.658 57.7955L107.044 58.1136C107.847 58.2992 108.446 58.5852 108.839 58.9716C109.233 59.358 109.43 59.8598 109.43 60.4773C109.43 61 109.279 61.4659 108.976 61.875C108.677 62.2803 108.258 62.5985 107.72 62.8295C107.186 63.0606 106.567 63.1761 105.862 63.1761C104.885 63.1761 104.088 62.9678 103.47 62.5511C102.853 62.1307 102.474 61.5341 102.334 60.7614L103.976 60.5114C104.078 60.9394 104.288 61.2633 104.607 61.483C104.925 61.6989 105.339 61.8068 105.851 61.8068C106.408 61.8068 106.853 61.6913 107.186 61.4602C107.519 61.2254 107.686 60.9394 107.686 60.6023C107.686 60.3295 107.584 60.1004 107.379 59.9148C107.179 59.7292 106.87 59.589 106.453 59.4943L104.976 59.1705C104.161 58.9848 103.559 58.6894 103.169 58.2841C102.783 57.8788 102.589 57.3655 102.589 56.7443C102.589 56.2292 102.733 55.7784 103.021 55.392C103.309 55.0057 103.707 54.7045 104.214 54.4886C104.722 54.2689 105.304 54.1591 105.959 54.1591C106.902 54.1591 107.644 54.3636 108.186 54.7727C108.728 55.178 109.086 55.7216 109.26 56.4034ZM115.372 54.2727V55.6364H110.605V54.2727H115.372ZM111.884 52.1818H113.582V60.4375C113.582 60.767 113.632 61.0152 113.73 61.1818C113.829 61.3447 113.955 61.4564 114.111 61.517C114.27 61.5739 114.442 61.6023 114.628 61.6023C114.764 61.6023 114.884 61.5928 114.986 61.5739C115.088 61.5549 115.168 61.5398 115.224 61.5284L115.531 62.9318C115.433 62.9697 115.293 63.0076 115.111 63.0455C114.929 63.0871 114.702 63.1098 114.429 63.1136C113.982 63.1212 113.565 63.0417 113.179 62.875C112.793 62.7083 112.48 62.4508 112.241 62.1023C112.003 61.7538 111.884 61.3163 111.884 60.7898V52.1818ZM117.251 63V54.2727H118.893V55.6591H118.984C119.143 55.1894 119.424 54.8201 119.825 54.5511C120.231 54.2784 120.689 54.142 121.2 54.142C121.306 54.142 121.431 54.1458 121.575 54.1534C121.723 54.161 121.839 54.1705 121.922 54.1818V55.8068C121.854 55.7879 121.732 55.767 121.558 55.7443C121.384 55.7178 121.21 55.7045 121.036 55.7045C120.634 55.7045 120.276 55.7898 119.962 55.9602C119.651 56.1269 119.405 56.3598 119.223 56.6591C119.041 56.9545 118.95 57.2917 118.95 57.6705V63H117.251ZM126.841 63.1761C125.981 63.1761 125.241 62.9924 124.619 62.625C124.002 62.2538 123.525 61.733 123.188 61.0625C122.854 60.3883 122.688 59.5985 122.688 58.6932C122.688 57.7992 122.854 57.0114 123.188 56.3295C123.525 55.6477 123.994 55.1155 124.597 54.733C125.203 54.3504 125.911 54.1591 126.722 54.1591C127.214 54.1591 127.691 54.2405 128.153 54.4034C128.616 54.5663 129.03 54.822 129.398 55.1705C129.765 55.5189 130.055 55.9716 130.267 56.5284C130.479 57.0814 130.585 57.7538 130.585 58.5455V59.1477H123.648V57.875H128.92C128.92 57.428 128.83 57.0322 128.648 56.6875C128.466 56.339 128.21 56.0644 127.881 55.8636C127.555 55.6629 127.172 55.5625 126.733 55.5625C126.256 55.5625 125.839 55.6799 125.483 55.9148C125.131 56.1458 124.858 56.4489 124.665 56.8239C124.475 57.1951 124.381 57.5985 124.381 58.0341V59.0284C124.381 59.6117 124.483 60.108 124.688 60.517C124.896 60.9261 125.186 61.2386 125.557 61.4545C125.928 61.6667 126.362 61.7727 126.858 61.7727C127.18 61.7727 127.473 61.7273 127.739 61.6364C128.004 61.5417 128.233 61.4015 128.426 61.2159C128.619 61.0303 128.767 60.8011 128.869 60.5284L130.477 60.8182C130.348 61.2917 130.117 61.7064 129.784 62.0625C129.455 62.4148 129.04 62.6894 128.54 62.8864C128.044 63.0795 127.477 63.1761 126.841 63.1761ZM136.232 63.1761C135.372 63.1761 134.631 62.9924 134.01 62.625C133.393 62.2538 132.915 61.733 132.578 61.0625C132.245 60.3883 132.078 59.5985 132.078 58.6932C132.078 57.7992 132.245 57.0114 132.578 56.3295C132.915 55.6477 133.385 55.1155 133.987 54.733C134.593 54.3504 135.302 54.1591 136.112 54.1591C136.605 54.1591 137.082 54.2405 137.544 54.4034C138.006 54.5663 138.421 54.822 138.788 55.1705C139.156 55.5189 139.446 55.9716 139.658 56.5284C139.87 57.0814 139.976 57.7538 139.976 58.5455V59.1477H133.038V57.875H138.311C138.311 57.428 138.22 57.0322 138.038 56.6875C137.857 56.339 137.601 56.0644 137.271 55.8636C136.946 55.6629 136.563 55.5625 136.124 55.5625C135.646 55.5625 135.23 55.6799 134.874 55.9148C134.521 56.1458 134.249 56.4489 134.055 56.8239C133.866 57.1951 133.771 57.5985 133.771 58.0341V59.0284C133.771 59.6117 133.874 60.108 134.078 60.517C134.286 60.9261 134.576 61.2386 134.947 61.4545C135.319 61.6667 135.752 61.7727 136.249 61.7727C136.571 61.7727 136.864 61.7273 137.129 61.6364C137.394 61.5417 137.624 61.4015 137.817 61.2159C138.01 61.0303 138.158 60.8011 138.26 60.5284L139.868 60.8182C139.739 61.2917 139.508 61.7064 139.175 62.0625C138.845 62.4148 138.43 62.6894 137.93 62.8864C137.434 63.0795 136.868 63.1761 136.232 63.1761Z" fill="black"/>
</g>
<g opacity="0.6">
<path d="M1.19851 109V98.0909H8.038V99.5078H2.84446V102.832H7.68111V104.243H2.84446V107.583H8.10192V109H1.19851ZM10.1088 109V100.818H11.6375V102.15H11.7387C11.9092 101.699 12.1879 101.347 12.575 101.095C12.9621 100.839 13.4255 100.712 13.9653 100.712C14.5122 100.712 14.9703 100.839 15.3396 101.095C15.7124 101.351 15.9877 101.702 16.1652 102.15H16.2504C16.4458 101.713 16.7565 101.365 17.1826 101.106C17.6088 100.843 18.1166 100.712 18.7061 100.712C19.4482 100.712 20.0537 100.944 20.5225 101.409C20.9948 101.875 21.2309 102.576 21.2309 103.513V109H19.6382V103.663C19.6382 103.109 19.4873 102.707 19.1855 102.459C18.8836 102.21 18.5232 102.086 18.1041 102.086C17.5857 102.086 17.1826 102.246 16.895 102.565C16.6073 102.881 16.4635 103.288 16.4635 103.785V109H14.8762V103.561C14.8762 103.118 14.7377 102.761 14.4607 102.491C14.1837 102.221 13.8232 102.086 13.3794 102.086C13.0775 102.086 12.7987 102.166 12.5431 102.326C12.2909 102.482 12.0867 102.7 11.9305 102.981C11.7778 103.261 11.7014 103.586 11.7014 103.956V109H10.1088ZM25.7466 109.181C25.2282 109.181 24.7594 109.085 24.3404 108.893C23.9213 108.698 23.5893 108.416 23.3443 108.047C23.1028 107.677 22.9821 107.224 22.9821 106.688C22.9821 106.227 23.0708 105.847 23.2484 105.548C23.426 105.25 23.6657 105.014 23.9675 104.84C24.2694 104.666 24.6067 104.534 24.9796 104.446C25.3525 104.357 25.7324 104.289 26.1195 104.243C26.6096 104.186 27.0073 104.14 27.3127 104.105C27.6181 104.066 27.84 104.004 27.9785 103.918C28.117 103.833 28.1863 103.695 28.1863 103.503V103.466C28.1863 103 28.0549 102.64 27.7921 102.384C27.5328 102.129 27.1458 102.001 26.6309 102.001C26.0946 102.001 25.6721 102.12 25.3631 102.358C25.0577 102.592 24.8464 102.853 24.7292 103.141L23.2324 102.8C23.41 102.303 23.6692 101.901 24.0101 101.596C24.3546 101.287 24.7505 101.063 25.198 100.925C25.6454 100.783 26.1159 100.712 26.6096 100.712C26.9363 100.712 27.2825 100.751 27.6483 100.829C28.0176 100.903 28.362 101.042 28.6816 101.244C29.0048 101.447 29.2694 101.736 29.4753 102.113C29.6813 102.485 29.7843 102.97 29.7843 103.567V109H28.2289V107.881H28.165C28.062 108.087 27.9075 108.29 27.7015 108.489C27.4956 108.687 27.231 108.853 26.9078 108.984C26.5847 109.115 26.1976 109.181 25.7466 109.181ZM26.0929 107.903C26.5332 107.903 26.9096 107.816 27.2221 107.642C27.5382 107.468 27.7779 107.24 27.9412 106.96C28.1081 106.676 28.1916 106.372 28.1916 106.049V104.994C28.1348 105.051 28.0247 105.104 27.8613 105.154C27.7015 105.2 27.5186 105.241 27.3127 105.277C27.1067 105.309 26.9061 105.339 26.7108 105.367C26.5154 105.392 26.3521 105.413 26.2207 105.431C25.9118 105.47 25.6294 105.536 25.3738 105.628C25.1216 105.721 24.9192 105.854 24.7665 106.028C24.6174 106.198 24.5428 106.425 24.5428 106.71C24.5428 107.104 24.6884 107.402 24.9796 107.604C25.2708 107.803 25.6419 107.903 26.0929 107.903ZM31.9056 109V100.818H33.4983V109H31.9056ZM32.71 99.5558C32.433 99.5558 32.195 99.4634 31.9962 99.2788C31.8009 99.0906 31.7032 98.8668 31.7032 98.6076C31.7032 98.3448 31.8009 98.1211 31.9962 97.9364C32.195 97.7482 32.433 97.6541 32.71 97.6541C32.9869 97.6541 33.2231 97.7482 33.4184 97.9364C33.6173 98.1211 33.7167 98.3448 33.7167 98.6076C33.7167 98.8668 33.6173 99.0906 33.4184 99.2788C33.2231 99.4634 32.9869 99.5558 32.71 99.5558ZM37.2337 98.0909V109H35.641V98.0909H37.2337Z" fill="#717074"/>
<path d="M41.6402 104.227L41.7414 101.979L39.8451 103.199L39.2645 102.187L41.278 101.159L39.2645 100.131L39.8451 99.119L41.7414 100.339L41.6402 98.0909H42.7961L42.6949 100.339L44.5912 99.119L45.1718 100.131L43.1583 101.159L45.1718 102.187L44.5912 103.199L42.6949 101.979L42.7961 104.227H41.6402Z" fill="#FF0000"/>
<rect x="1" y="125" width="632" height="53" rx="9" fill="white" fill-opacity="0.7" stroke="#908F94" stroke-width="2"/>
<path d="M21.2784 158V146.364H25.4261C26.3277 146.364 27.0758 146.519 27.6705 146.83C28.2689 147.14 28.7159 147.57 29.0114 148.119C29.3068 148.665 29.4545 149.295 29.4545 150.011C29.4545 150.723 29.3049 151.35 29.0057 151.892C28.7102 152.43 28.2633 152.848 27.6648 153.148C27.0701 153.447 26.322 153.597 25.4205 153.597H22.2784V152.085H25.2614C25.8295 152.085 26.2917 152.004 26.6477 151.841C27.0076 151.678 27.2708 151.441 27.4375 151.131C27.6042 150.82 27.6875 150.447 27.6875 150.011C27.6875 149.572 27.6023 149.191 27.4318 148.869C27.2652 148.547 27.0019 148.301 26.642 148.131C26.286 147.956 25.8182 147.869 25.2386 147.869H23.0341V158H21.2784ZM27.0227 152.75L29.8977 158H27.8977L25.0795 152.75H27.0227ZM35.1065 158.176C34.2467 158.176 33.5062 157.992 32.8849 157.625C32.2675 157.254 31.7902 156.733 31.4531 156.062C31.1198 155.388 30.9531 154.598 30.9531 153.693C30.9531 152.799 31.1198 152.011 31.4531 151.33C31.7902 150.648 32.2599 150.116 32.8622 149.733C33.4683 149.35 34.1766 149.159 34.9872 149.159C35.4796 149.159 35.9569 149.241 36.419 149.403C36.8812 149.566 37.2959 149.822 37.6634 150.17C38.0308 150.519 38.3205 150.972 38.5327 151.528C38.7448 152.081 38.8509 152.754 38.8509 153.545V154.148H31.9134V152.875H37.1861C37.1861 152.428 37.0952 152.032 36.9134 151.688C36.7315 151.339 36.4759 151.064 36.1463 150.864C35.8205 150.663 35.438 150.562 34.9986 150.562C34.5213 150.562 34.1046 150.68 33.7486 150.915C33.3963 151.146 33.1236 151.449 32.9304 151.824C32.741 152.195 32.6463 152.598 32.6463 153.034V154.028C32.6463 154.612 32.7486 155.108 32.9531 155.517C33.1615 155.926 33.4512 156.239 33.8224 156.455C34.1937 156.667 34.6274 156.773 35.1236 156.773C35.4455 156.773 35.7391 156.727 36.0043 156.636C36.2694 156.542 36.4986 156.402 36.6918 156.216C36.8849 156.03 37.0327 155.801 37.1349 155.528L38.7429 155.818C38.6141 156.292 38.383 156.706 38.0497 157.062C37.7202 157.415 37.3054 157.689 36.8054 157.886C36.3092 158.08 35.7429 158.176 35.1065 158.176ZM46.2642 154.381V149.273H47.9688V158H46.2983V156.489H46.2074C46.0066 156.955 45.6847 157.343 45.2415 157.653C44.8021 157.96 44.2547 158.114 43.5994 158.114C43.0388 158.114 42.5426 157.991 42.1108 157.744C41.6828 157.494 41.3456 157.125 41.0994 156.636C40.857 156.148 40.7358 155.544 40.7358 154.824V149.273H42.4347V154.619C42.4347 155.214 42.5994 155.687 42.929 156.04C43.2585 156.392 43.6866 156.568 44.2131 156.568C44.5313 156.568 44.8475 156.489 45.1619 156.33C45.4801 156.17 45.7434 155.93 45.9517 155.608C46.1638 155.286 46.268 154.877 46.2642 154.381ZM50.3878 158V146.364H52.0866V150.688H52.1889C52.2874 150.506 52.4295 150.295 52.6151 150.057C52.8007 149.818 53.0582 149.61 53.3878 149.432C53.7173 149.25 54.1529 149.159 54.6946 149.159C55.3991 149.159 56.0279 149.337 56.581 149.693C57.134 150.049 57.5677 150.562 57.8821 151.233C58.2003 151.903 58.3594 152.71 58.3594 153.653C58.3594 154.597 58.2022 155.405 57.8878 156.08C57.5734 156.75 57.1416 157.267 56.5923 157.631C56.0431 157.991 55.4162 158.17 54.7116 158.17C54.1813 158.17 53.7476 158.081 53.4105 157.903C53.0772 157.725 52.8158 157.517 52.6264 157.278C52.437 157.04 52.2912 156.828 52.1889 156.642H52.0469V158H50.3878ZM52.0526 153.636C52.0526 154.25 52.1416 154.788 52.3196 155.25C52.4976 155.712 52.7552 156.074 53.0923 156.335C53.4295 156.593 53.8423 156.722 54.331 156.722C54.8385 156.722 55.2628 156.587 55.6037 156.318C55.9446 156.045 56.2022 155.676 56.3764 155.21C56.5545 154.744 56.6435 154.22 56.6435 153.636C56.6435 153.061 56.5563 152.544 56.3821 152.085C56.2116 151.627 55.9541 151.265 55.6094 151C55.2685 150.735 54.8423 150.602 54.331 150.602C53.8385 150.602 53.4219 150.729 53.081 150.983C52.7438 151.237 52.4882 151.591 52.3139 152.045C52.1397 152.5 52.0526 153.03 52.0526 153.636ZM66.8068 151.403L65.267 151.676C65.2027 151.479 65.1004 151.292 64.9602 151.114C64.8239 150.936 64.6383 150.79 64.4034 150.676C64.1686 150.562 63.875 150.506 63.5227 150.506C63.0417 150.506 62.6402 150.614 62.3182 150.83C61.9962 151.042 61.8352 151.316 61.8352 151.653C61.8352 151.945 61.9432 152.18 62.1591 152.358C62.375 152.536 62.7235 152.682 63.2045 152.795L64.5909 153.114C65.3939 153.299 65.9924 153.585 66.3864 153.972C66.7803 154.358 66.9773 154.86 66.9773 155.477C66.9773 156 66.8258 156.466 66.5227 156.875C66.2235 157.28 65.8049 157.598 65.267 157.83C64.733 158.061 64.1136 158.176 63.4091 158.176C62.4318 158.176 61.6345 157.968 61.017 157.551C60.3996 157.131 60.0208 156.534 59.8807 155.761L61.5227 155.511C61.625 155.939 61.8352 156.263 62.1534 156.483C62.4716 156.699 62.8864 156.807 63.3977 156.807C63.9545 156.807 64.3996 156.691 64.733 156.46C65.0663 156.225 65.233 155.939 65.233 155.602C65.233 155.33 65.1307 155.1 64.9261 154.915C64.7254 154.729 64.4167 154.589 64 154.494L62.5227 154.17C61.7083 153.985 61.1061 153.689 60.7159 153.284C60.3295 152.879 60.1364 152.366 60.1364 151.744C60.1364 151.229 60.2803 150.778 60.5682 150.392C60.8561 150.006 61.2538 149.705 61.7614 149.489C62.2689 149.269 62.8504 149.159 63.5057 149.159C64.4489 149.159 65.1913 149.364 65.733 149.773C66.2746 150.178 66.6326 150.722 66.8068 151.403ZM68.9815 158V146.364H73.1293C74.0346 146.364 74.7846 146.528 75.3793 146.858C75.974 147.187 76.419 147.638 76.7145 148.21C77.0099 148.778 77.1577 149.419 77.1577 150.131C77.1577 150.847 77.008 151.491 76.7088 152.062C76.4134 152.631 75.9664 153.081 75.3679 153.415C74.7732 153.744 74.0251 153.909 73.1236 153.909H70.2713V152.42H72.9645C73.5365 152.42 74.0005 152.322 74.3565 152.125C74.7126 151.924 74.974 151.652 75.1406 151.307C75.3073 150.962 75.3906 150.57 75.3906 150.131C75.3906 149.691 75.3073 149.301 75.1406 148.96C74.974 148.619 74.7107 148.352 74.3509 148.159C73.9948 147.966 73.5251 147.869 72.9418 147.869H70.7372V158H68.9815ZM81.5412 158.193C80.9882 158.193 80.4882 158.091 80.0412 157.886C79.5942 157.678 79.2401 157.377 78.9787 156.983C78.7211 156.589 78.5923 156.106 78.5923 155.534C78.5923 155.042 78.687 154.636 78.8764 154.318C79.0658 154 79.3215 153.748 79.6435 153.562C79.9654 153.377 80.3253 153.237 80.723 153.142C81.1207 153.047 81.526 152.975 81.9389 152.926C82.4616 152.866 82.8859 152.816 83.2116 152.778C83.5374 152.737 83.7741 152.67 83.9219 152.58C84.0696 152.489 84.1435 152.341 84.1435 152.136V152.097C84.1435 151.6 84.0033 151.216 83.723 150.943C83.4465 150.67 83.0336 150.534 82.4844 150.534C81.9124 150.534 81.4616 150.661 81.1321 150.915C80.8063 151.165 80.581 151.443 80.456 151.75L78.8594 151.386C79.0488 150.856 79.3253 150.428 79.6889 150.102C80.0563 149.773 80.4787 149.534 80.956 149.386C81.4332 149.235 81.9351 149.159 82.4616 149.159C82.8101 149.159 83.1795 149.201 83.5696 149.284C83.9635 149.364 84.331 149.511 84.6719 149.727C85.0166 149.943 85.2988 150.252 85.5185 150.653C85.7382 151.051 85.848 151.568 85.848 152.205V158H84.1889V156.807H84.1207C84.0109 157.027 83.8461 157.242 83.6264 157.455C83.4067 157.667 83.1245 157.843 82.7798 157.983C82.4351 158.123 82.0223 158.193 81.5412 158.193ZM81.9105 156.83C82.3802 156.83 82.7817 156.737 83.1151 156.551C83.4522 156.366 83.7079 156.123 83.8821 155.824C84.0601 155.521 84.1491 155.197 84.1491 154.852V153.727C84.0885 153.788 83.9711 153.845 83.7969 153.898C83.6264 153.947 83.4313 153.991 83.2116 154.028C82.992 154.062 82.7779 154.095 82.5696 154.125C82.3613 154.152 82.187 154.174 82.0469 154.193C81.7173 154.235 81.4162 154.305 81.1435 154.403C80.8745 154.502 80.6586 154.644 80.4957 154.83C80.3366 155.011 80.2571 155.254 80.2571 155.557C80.2571 155.977 80.4124 156.295 80.723 156.511C81.0336 156.723 81.4295 156.83 81.9105 156.83ZM94.6506 151.403L93.1108 151.676C93.0464 151.479 92.9441 151.292 92.804 151.114C92.6676 150.936 92.482 150.79 92.2472 150.676C92.0123 150.562 91.7188 150.506 91.3665 150.506C90.8854 150.506 90.4839 150.614 90.1619 150.83C89.84 151.042 89.679 151.316 89.679 151.653C89.679 151.945 89.7869 152.18 90.0028 152.358C90.2188 152.536 90.5672 152.682 91.0483 152.795L92.4347 153.114C93.2377 153.299 93.8362 153.585 94.2301 153.972C94.6241 154.358 94.821 154.86 94.821 155.477C94.821 156 94.6695 156.466 94.3665 156.875C94.0672 157.28 93.6487 157.598 93.1108 157.83C92.5767 158.061 91.9574 158.176 91.2528 158.176C90.2756 158.176 89.4782 157.968 88.8608 157.551C88.2434 157.131 87.8646 156.534 87.7244 155.761L89.3665 155.511C89.4688 155.939 89.679 156.263 89.9972 156.483C90.3153 156.699 90.7301 156.807 91.2415 156.807C91.7983 156.807 92.2434 156.691 92.5767 156.46C92.91 156.225 93.0767 155.939 93.0767 155.602C93.0767 155.33 92.9744 155.1 92.7699 154.915C92.5691 154.729 92.2604 154.589 91.8438 154.494L90.3665 154.17C89.5521 153.985 88.9498 153.689 88.5597 153.284C88.1733 152.879 87.9801 152.366 87.9801 151.744C87.9801 151.229 88.1241 150.778 88.4119 150.392C88.6998 150.006 89.0975 149.705 89.6051 149.489C90.1127 149.269 90.6941 149.159 91.3494 149.159C92.2926 149.159 93.035 149.364 93.5767 149.773C94.1184 150.178 94.4763 150.722 94.6506 151.403ZM100.763 149.273V150.636H95.9957V149.273H100.763ZM97.2741 147.182H98.973V155.438C98.973 155.767 99.0223 156.015 99.1207 156.182C99.2192 156.345 99.3461 156.456 99.5014 156.517C99.6605 156.574 99.8329 156.602 100.018 156.602C100.155 156.602 100.274 156.593 100.376 156.574C100.479 156.555 100.558 156.54 100.615 156.528L100.922 157.932C100.823 157.97 100.683 158.008 100.501 158.045C100.32 158.087 100.092 158.11 99.8196 158.114C99.3726 158.121 98.956 158.042 98.5696 157.875C98.1832 157.708 97.8707 157.451 97.6321 157.102C97.3935 156.754 97.2741 156.316 97.2741 155.79V147.182ZM102.642 158V149.273H104.284V150.659H104.375C104.534 150.189 104.814 149.82 105.216 149.551C105.621 149.278 106.08 149.142 106.591 149.142C106.697 149.142 106.822 149.146 106.966 149.153C107.114 149.161 107.229 149.17 107.312 149.182V150.807C107.244 150.788 107.123 150.767 106.949 150.744C106.775 150.718 106.6 150.705 106.426 150.705C106.025 150.705 105.667 150.79 105.352 150.96C105.042 151.127 104.795 151.36 104.614 151.659C104.432 151.955 104.341 152.292 104.341 152.67V158H102.642ZM112.232 158.176C111.372 158.176 110.631 157.992 110.01 157.625C109.393 157.254 108.915 156.733 108.578 156.062C108.245 155.388 108.078 154.598 108.078 153.693C108.078 152.799 108.245 152.011 108.578 151.33C108.915 150.648 109.385 150.116 109.987 149.733C110.593 149.35 111.302 149.159 112.112 149.159C112.605 149.159 113.082 149.241 113.544 149.403C114.006 149.566 114.421 149.822 114.788 150.17C115.156 150.519 115.446 150.972 115.658 151.528C115.87 152.081 115.976 152.754 115.976 153.545V154.148H109.038V152.875H114.311C114.311 152.428 114.22 152.032 114.038 151.688C113.857 151.339 113.601 151.064 113.271 150.864C112.946 150.663 112.563 150.562 112.124 150.562C111.646 150.562 111.23 150.68 110.874 150.915C110.521 151.146 110.249 151.449 110.055 151.824C109.866 152.195 109.771 152.598 109.771 153.034V154.028C109.771 154.612 109.874 155.108 110.078 155.517C110.286 155.926 110.576 156.239 110.947 156.455C111.319 156.667 111.752 156.773 112.249 156.773C112.571 156.773 112.864 156.727 113.129 156.636C113.394 156.542 113.624 156.402 113.817 156.216C114.01 156.03 114.158 155.801 114.26 155.528L115.868 155.818C115.739 156.292 115.508 156.706 115.175 157.062C114.845 157.415 114.43 157.689 113.93 157.886C113.434 158.08 112.868 158.176 112.232 158.176ZM121.622 158.176C120.762 158.176 120.022 157.992 119.401 157.625C118.783 157.254 118.306 156.733 117.969 156.062C117.635 155.388 117.469 154.598 117.469 153.693C117.469 152.799 117.635 152.011 117.969 151.33C118.306 150.648 118.776 150.116 119.378 149.733C119.984 149.35 120.692 149.159 121.503 149.159C121.995 149.159 122.473 149.241 122.935 149.403C123.397 149.566 123.812 149.822 124.179 150.17C124.546 150.519 124.836 150.972 125.048 151.528C125.26 152.081 125.366 152.754 125.366 153.545V154.148H118.429V152.875H123.702C123.702 152.428 123.611 152.032 123.429 151.688C123.247 151.339 122.991 151.064 122.662 150.864C122.336 150.663 121.954 150.562 121.514 150.562C121.037 150.562 120.62 150.68 120.264 150.915C119.912 151.146 119.639 151.449 119.446 151.824C119.257 152.195 119.162 152.598 119.162 153.034V154.028C119.162 154.612 119.264 155.108 119.469 155.517C119.677 155.926 119.967 156.239 120.338 156.455C120.709 156.667 121.143 156.773 121.639 156.773C121.961 156.773 122.255 156.727 122.52 156.636C122.785 156.542 123.014 156.402 123.207 156.216C123.401 156.03 123.548 155.801 123.651 155.528L125.259 155.818C125.13 156.292 124.899 156.706 124.565 157.062C124.236 157.415 123.821 157.689 123.321 157.886C122.825 158.08 122.259 158.176 121.622 158.176ZM134.257 161.165C133.083 161.165 132.041 161.004 131.132 160.682C130.227 160.364 129.464 159.894 128.842 159.273C128.221 158.655 127.75 157.898 127.428 157C127.106 156.102 126.945 155.078 126.945 153.926C126.945 152.805 127.107 151.797 127.433 150.903C127.759 150.009 128.232 149.248 128.854 148.619C129.479 147.987 130.238 147.504 131.132 147.17C132.026 146.837 133.041 146.67 134.178 146.67C135.265 146.67 136.223 146.841 137.053 147.182C137.882 147.523 138.579 147.991 139.143 148.585C139.712 149.18 140.14 149.862 140.428 150.631C140.715 151.4 140.859 152.212 140.859 153.068C140.859 153.667 140.821 154.252 140.746 154.824C140.67 155.392 140.53 155.907 140.325 156.369C140.125 156.828 139.833 157.195 139.45 157.472C139.071 157.744 138.579 157.886 137.973 157.898C137.651 157.909 137.339 157.871 137.036 157.784C136.732 157.697 136.475 157.557 136.263 157.364C136.051 157.167 135.922 156.917 135.876 156.614H135.808C135.717 156.837 135.566 157.045 135.354 157.239C135.142 157.428 134.871 157.58 134.541 157.693C134.215 157.803 133.837 157.848 133.405 157.83C132.928 157.811 132.498 157.703 132.115 157.506C131.732 157.309 131.405 157.036 131.132 156.688C130.863 156.339 130.657 155.926 130.513 155.449C130.369 154.972 130.297 154.441 130.297 153.858C130.297 153.297 130.378 152.795 130.541 152.352C130.704 151.905 130.926 151.521 131.206 151.199C131.49 150.873 131.816 150.616 132.183 150.426C132.551 150.237 132.939 150.117 133.348 150.068C133.746 150.023 134.111 150.034 134.445 150.102C134.778 150.17 135.054 150.275 135.274 150.415C135.498 150.555 135.638 150.708 135.695 150.875H135.768V150.239H137.166V155.511C137.166 155.811 137.244 156.064 137.399 156.273C137.558 156.481 137.784 156.585 138.075 156.585C138.42 156.585 138.689 156.458 138.882 156.205C139.079 155.951 139.217 155.561 139.297 155.034C139.38 154.508 139.422 153.833 139.422 153.011C139.422 152.436 139.344 151.894 139.189 151.386C139.037 150.875 138.812 150.413 138.513 150C138.217 149.583 137.854 149.225 137.422 148.926C136.99 148.627 136.498 148.396 135.945 148.233C135.395 148.07 134.787 147.989 134.121 147.989C133.215 147.989 132.411 148.129 131.706 148.409C131.001 148.686 130.407 149.085 129.922 149.608C129.441 150.131 129.075 150.758 128.825 151.489C128.579 152.216 128.456 153.032 128.456 153.938C128.456 154.881 128.583 155.718 128.837 156.449C129.09 157.176 129.465 157.79 129.962 158.29C130.458 158.79 131.071 159.169 131.803 159.426C132.534 159.688 133.376 159.818 134.331 159.818C134.755 159.818 135.172 159.78 135.581 159.705C135.99 159.633 136.354 159.549 136.672 159.455C136.994 159.364 137.234 159.29 137.393 159.233L137.791 160.477C137.556 160.587 137.244 160.695 136.854 160.801C136.467 160.907 136.047 160.994 135.592 161.062C135.142 161.131 134.696 161.165 134.257 161.165ZM133.734 156.438C134.227 156.438 134.623 156.339 134.922 156.142C135.225 155.945 135.443 155.652 135.575 155.261C135.712 154.867 135.78 154.375 135.78 153.784C135.776 153.208 135.702 152.75 135.558 152.409C135.418 152.064 135.198 151.818 134.899 151.67C134.604 151.519 134.223 151.443 133.757 151.443C133.329 151.443 132.964 151.547 132.661 151.756C132.361 151.964 132.132 152.246 131.973 152.602C131.818 152.958 131.738 153.354 131.734 153.79C131.738 154.248 131.803 154.68 131.928 155.085C132.056 155.487 132.265 155.812 132.553 156.062C132.844 156.312 133.238 156.438 133.734 156.438ZM142.872 146.364H145.003L148.707 155.409H148.844L152.548 146.364H154.679V158H153.009V149.58H152.901L149.469 157.983H148.082L144.651 149.574H144.543V158H142.872V146.364ZM158.169 161.273C157.915 161.273 157.684 161.252 157.476 161.21C157.268 161.172 157.112 161.131 157.01 161.085L157.419 159.693C157.73 159.777 158.006 159.813 158.249 159.801C158.491 159.79 158.705 159.699 158.891 159.528C159.08 159.358 159.247 159.08 159.391 158.693L159.601 158.114L156.408 149.273H158.226L160.436 156.045H160.527L162.737 149.273H164.561L160.964 159.165C160.798 159.619 160.586 160.004 160.328 160.318C160.071 160.636 159.764 160.875 159.408 161.034C159.052 161.193 158.639 161.273 158.169 161.273ZM166.294 146.364H168.425L172.129 155.409H172.266L175.97 146.364H178.101V158H176.43V149.58H176.322L172.891 157.983H171.504L168.072 149.574H167.964V158H166.294V146.364ZM183.057 158.193C182.504 158.193 182.004 158.091 181.557 157.886C181.11 157.678 180.756 157.377 180.494 156.983C180.237 156.589 180.108 156.106 180.108 155.534C180.108 155.042 180.203 154.636 180.392 154.318C180.581 154 180.837 153.748 181.159 153.562C181.481 153.377 181.841 153.237 182.239 153.142C182.636 153.047 183.042 152.975 183.455 152.926C183.977 152.866 184.402 152.816 184.727 152.778C185.053 152.737 185.29 152.67 185.438 152.58C185.585 152.489 185.659 152.341 185.659 152.136V152.097C185.659 151.6 185.519 151.216 185.239 150.943C184.962 150.67 184.549 150.534 184 150.534C183.428 150.534 182.977 150.661 182.648 150.915C182.322 151.165 182.097 151.443 181.972 151.75L180.375 151.386C180.564 150.856 180.841 150.428 181.205 150.102C181.572 149.773 181.994 149.534 182.472 149.386C182.949 149.235 183.451 149.159 183.977 149.159C184.326 149.159 184.695 149.201 185.085 149.284C185.479 149.364 185.847 149.511 186.188 149.727C186.532 149.943 186.814 150.252 187.034 150.653C187.254 151.051 187.364 151.568 187.364 152.205V158H185.705V156.807H185.636C185.527 157.027 185.362 157.242 185.142 157.455C184.922 157.667 184.64 157.843 184.295 157.983C183.951 158.123 183.538 158.193 183.057 158.193ZM183.426 156.83C183.896 156.83 184.297 156.737 184.631 156.551C184.968 156.366 185.223 156.123 185.398 155.824C185.576 155.521 185.665 155.197 185.665 154.852V153.727C185.604 153.788 185.487 153.845 185.312 153.898C185.142 153.947 184.947 153.991 184.727 154.028C184.508 154.062 184.294 154.095 184.085 154.125C183.877 154.152 183.703 154.174 183.562 154.193C183.233 154.235 182.932 154.305 182.659 154.403C182.39 154.502 182.174 154.644 182.011 154.83C181.852 155.011 181.773 155.254 181.773 155.557C181.773 155.977 181.928 156.295 182.239 156.511C182.549 156.723 182.945 156.83 183.426 156.83ZM189.626 158V149.273H191.325V158H189.626ZM190.484 147.926C190.189 147.926 189.935 147.828 189.723 147.631C189.515 147.43 189.411 147.191 189.411 146.915C189.411 146.634 189.515 146.396 189.723 146.199C189.935 145.998 190.189 145.898 190.484 145.898C190.78 145.898 191.032 145.998 191.24 146.199C191.452 146.396 191.558 146.634 191.558 146.915C191.558 147.191 191.452 147.43 191.24 147.631C191.032 147.828 190.78 147.926 190.484 147.926ZM195.31 146.364V158H193.611V146.364H195.31ZM198.714 158.108C198.404 158.108 198.137 157.998 197.913 157.778C197.69 157.555 197.578 157.286 197.578 156.972C197.578 156.661 197.69 156.396 197.913 156.176C198.137 155.953 198.404 155.841 198.714 155.841C199.025 155.841 199.292 155.953 199.516 156.176C199.739 156.396 199.851 156.661 199.851 156.972C199.851 157.18 199.798 157.371 199.692 157.545C199.589 157.716 199.453 157.852 199.283 157.955C199.112 158.057 198.923 158.108 198.714 158.108ZM205.803 158.176C204.958 158.176 204.231 157.985 203.621 157.602C203.015 157.216 202.549 156.684 202.223 156.006C201.897 155.328 201.734 154.551 201.734 153.676C201.734 152.79 201.901 152.008 202.234 151.33C202.568 150.648 203.037 150.116 203.643 149.733C204.25 149.35 204.964 149.159 205.786 149.159C206.448 149.159 207.039 149.282 207.558 149.528C208.077 149.771 208.496 150.112 208.814 150.551C209.136 150.991 209.327 151.504 209.388 152.091H207.734C207.643 151.682 207.435 151.33 207.109 151.034C206.787 150.739 206.356 150.591 205.814 150.591C205.34 150.591 204.926 150.716 204.57 150.966C204.217 151.212 203.943 151.564 203.746 152.023C203.549 152.477 203.45 153.015 203.45 153.636C203.45 154.273 203.547 154.822 203.74 155.284C203.933 155.746 204.206 156.104 204.558 156.358C204.914 156.612 205.333 156.739 205.814 156.739C206.136 156.739 206.428 156.68 206.689 156.562C206.954 156.441 207.176 156.269 207.354 156.045C207.536 155.822 207.662 155.553 207.734 155.239H209.388C209.327 155.803 209.143 156.307 208.837 156.75C208.53 157.193 208.119 157.542 207.604 157.795C207.092 158.049 206.492 158.176 205.803 158.176ZM214.881 158.176C214.063 158.176 213.348 157.989 212.739 157.614C212.129 157.239 211.655 156.714 211.318 156.04C210.981 155.366 210.812 154.578 210.812 153.676C210.812 152.771 210.981 151.979 211.318 151.301C211.655 150.623 212.129 150.097 212.739 149.722C213.348 149.347 214.063 149.159 214.881 149.159C215.699 149.159 216.413 149.347 217.023 149.722C217.633 150.097 218.106 150.623 218.443 151.301C218.78 151.979 218.949 152.771 218.949 153.676C218.949 154.578 218.78 155.366 218.443 156.04C218.106 156.714 217.633 157.239 217.023 157.614C216.413 157.989 215.699 158.176 214.881 158.176ZM214.886 156.75C215.417 156.75 215.856 156.61 216.205 156.33C216.553 156.049 216.811 155.676 216.977 155.21C217.148 154.744 217.233 154.231 217.233 153.67C217.233 153.114 217.148 152.602 216.977 152.136C216.811 151.667 216.553 151.29 216.205 151.006C215.856 150.722 215.417 150.58 214.886 150.58C214.352 150.58 213.909 150.722 213.557 151.006C213.208 151.29 212.949 151.667 212.778 152.136C212.612 152.602 212.528 153.114 212.528 153.67C212.528 154.231 212.612 154.744 212.778 155.21C212.949 155.676 213.208 156.049 213.557 156.33C213.909 156.61 214.352 156.75 214.886 156.75ZM220.845 158V149.273H222.476V150.693H222.584C222.766 150.212 223.063 149.837 223.476 149.568C223.889 149.295 224.383 149.159 224.959 149.159C225.542 149.159 226.031 149.295 226.425 149.568C226.822 149.841 227.116 150.216 227.305 150.693H227.396C227.605 150.227 227.936 149.856 228.391 149.58C228.845 149.299 229.387 149.159 230.016 149.159C230.807 149.159 231.453 149.407 231.953 149.903C232.457 150.4 232.709 151.148 232.709 152.148V158H231.01V152.307C231.01 151.716 230.849 151.288 230.527 151.023C230.205 150.758 229.821 150.625 229.374 150.625C228.821 150.625 228.391 150.795 228.084 151.136C227.777 151.473 227.624 151.907 227.624 152.438V158H225.93V152.199C225.93 151.725 225.783 151.345 225.487 151.057C225.192 150.769 224.807 150.625 224.334 150.625C224.012 150.625 223.714 150.71 223.442 150.881C223.173 151.047 222.955 151.28 222.788 151.58C222.625 151.879 222.544 152.225 222.544 152.619V158H220.845Z" fill="black" fill-opacity="0.3"/>
</g>
<path d="M1.19851 203V192.091H2.84446V201.583H7.78764V203H1.19851ZM9.53746 203V194.818H11.1301V203H9.53746ZM10.3418 193.556C10.0648 193.556 9.82688 193.463 9.62802 193.279C9.43271 193.091 9.33505 192.867 9.33505 192.608C9.33505 192.345 9.43271 192.121 9.62802 191.936C9.82688 191.748 10.0648 191.654 10.3418 191.654C10.6188 191.654 10.8549 191.748 11.0502 191.936C11.2491 192.121 11.3485 192.345 11.3485 192.608C11.3485 192.867 11.2491 193.091 11.0502 193.279C10.8549 193.463 10.6188 193.556 10.3418 193.556ZM14.8655 198.142V203H13.2728V194.818H14.8016V196.15H14.9028C15.091 195.717 15.3857 195.369 15.787 195.106C16.1919 194.843 16.7014 194.712 17.3158 194.712C17.8733 194.712 18.3616 194.829 18.7806 195.063C19.1997 195.294 19.5246 195.638 19.7554 196.097C19.9862 196.555 20.1017 197.121 20.1017 197.796V203H18.509V197.988C18.509 197.395 18.3545 196.931 18.0455 196.597C17.7366 196.26 17.3122 196.091 16.7725 196.091C16.4031 196.091 16.0747 196.171 15.787 196.331C15.5029 196.491 15.2774 196.725 15.1105 197.034C14.9472 197.339 14.8655 197.709 14.8655 198.142ZM23.7025 200.225L23.6919 198.281H23.9688L27.2288 194.818H29.1357L25.4177 198.76H25.1673L23.7025 200.225ZM22.2377 203V192.091H23.8303V203H22.2377ZM27.4046 203L24.4749 199.112L25.5722 197.998L29.3595 203H27.4046ZM33.7766 203.165C32.9705 203.165 32.2763 202.993 31.6939 202.648C31.1151 202.3 30.6676 201.812 30.3516 201.184C30.0391 200.551 29.8828 199.811 29.8828 198.962C29.8828 198.124 30.0391 197.386 30.3516 196.746C30.6676 196.107 31.108 195.608 31.6726 195.25C32.2408 194.891 32.9048 194.712 33.6648 194.712C34.1264 194.712 34.5739 194.788 35.0071 194.941C35.4403 195.093 35.8292 195.333 36.1737 195.66C36.5181 195.987 36.7898 196.411 36.9886 196.933C37.1875 197.451 37.2869 198.082 37.2869 198.824V199.388H30.783V198.195H35.7262C35.7262 197.776 35.641 197.405 35.4705 197.082C35.3001 196.755 35.0604 196.498 34.7514 196.31C34.446 196.121 34.0874 196.027 33.6754 196.027C33.228 196.027 32.8374 196.137 32.5036 196.358C32.1733 196.574 31.9176 196.858 31.7365 197.21C31.5589 197.558 31.4702 197.936 31.4702 198.344V199.277C31.4702 199.824 31.5661 200.289 31.7578 200.672C31.9531 201.056 32.2248 201.349 32.5728 201.551C32.9208 201.75 33.3274 201.849 33.7926 201.849C34.0945 201.849 34.3697 201.807 34.6183 201.722C34.8668 201.633 35.0817 201.501 35.2628 201.327C35.4439 201.153 35.5824 200.939 35.6783 200.683L37.1857 200.955C37.065 201.398 36.8484 201.787 36.5359 202.121C36.2269 202.451 35.8381 202.709 35.3693 202.893C34.9041 203.075 34.3732 203.165 33.7766 203.165ZM42.1169 203.16C41.4564 203.16 40.8669 202.991 40.3485 202.654C39.8335 202.313 39.4287 201.828 39.134 201.2C38.8428 200.567 38.6972 199.809 38.6972 198.925C38.6972 198.041 38.8445 197.284 39.1393 196.656C39.4376 196.027 39.846 195.546 40.3644 195.212C40.8829 194.879 41.4706 194.712 42.1276 194.712C42.6354 194.712 43.0438 194.797 43.3527 194.967C43.6652 195.134 43.9067 195.33 44.0771 195.553C44.2512 195.777 44.3861 195.974 44.482 196.145H44.5779V192.091H46.1705V203H44.6151V201.727H44.482C44.3861 201.901 44.2476 202.1 44.0665 202.324C43.8889 202.547 43.6439 202.743 43.3314 202.909C43.0189 203.076 42.6141 203.16 42.1169 203.16ZM42.4685 201.801C42.9266 201.801 43.3137 201.681 43.6297 201.439C43.9493 201.194 44.1908 200.855 44.3541 200.422C44.521 199.989 44.6045 199.484 44.6045 198.909C44.6045 198.341 44.5228 197.844 44.3595 197.418C44.1961 196.991 43.9564 196.659 43.6404 196.422C43.3243 196.184 42.9337 196.065 42.4685 196.065C41.9891 196.065 41.5896 196.189 41.27 196.438C40.9504 196.686 40.7089 197.025 40.5455 197.455C40.3857 197.885 40.3058 198.369 40.3058 198.909C40.3058 199.456 40.3875 199.948 40.5509 200.385C40.7142 200.821 40.9557 201.168 41.2753 201.423C41.5985 201.675 41.9962 201.801 42.4685 201.801ZM50.2175 192.091V203H48.5716V192.091H50.2175ZM54.0794 198.142V203H52.4867V194.818H54.0154V196.15H54.1167C54.3049 195.717 54.5996 195.369 55.0009 195.106C55.4057 194.843 55.9153 194.712 56.5297 194.712C57.0872 194.712 57.5755 194.829 57.9945 195.063C58.4135 195.294 58.7385 195.638 58.9693 196.097C59.2001 196.555 59.3155 197.121 59.3155 197.796V203H57.7228V197.988C57.7228 197.395 57.5684 196.931 57.2594 196.597C56.9505 196.26 56.5261 196.091 55.9863 196.091C55.617 196.091 55.2885 196.171 55.0009 196.331C54.7168 196.491 54.4913 196.725 54.3244 197.034C54.161 197.339 54.0794 197.709 54.0794 198.142ZM72.5644 192.091H74.2156V199.266C74.2156 200.029 74.0363 200.706 73.6776 201.295C73.319 201.881 72.8147 202.343 72.1649 202.68C71.515 203.014 70.7533 203.181 69.8797 203.181C69.0097 203.181 68.2497 203.014 67.5999 202.68C66.95 202.343 66.4458 201.881 66.0871 201.295C65.7284 200.706 65.5491 200.029 65.5491 199.266V192.091H67.195V199.133C67.195 199.626 67.3034 200.065 67.52 200.449C67.7401 200.832 68.0509 201.134 68.4521 201.354C68.8534 201.571 69.3293 201.679 69.8797 201.679C70.4337 201.679 70.9113 201.571 71.3126 201.354C71.7174 201.134 72.0264 200.832 72.2394 200.449C72.4561 200.065 72.5644 199.626 72.5644 199.133V192.091ZM76.6087 203V192.091H80.4972C81.3423 192.091 82.0437 192.237 82.6012 192.528C83.1623 192.819 83.5813 193.222 83.8583 193.737C84.1353 194.248 84.2738 194.839 84.2738 195.511C84.2738 196.178 84.1335 196.766 83.853 197.274C83.576 197.778 83.157 198.17 82.5959 198.451C82.0384 198.732 81.337 198.872 80.4918 198.872H77.5462V197.455H80.3427C80.8754 197.455 81.3086 197.379 81.6424 197.226C81.9798 197.073 82.2266 196.851 82.3828 196.56C82.5391 196.269 82.6172 195.919 82.6172 195.511C82.6172 195.099 82.5373 194.742 82.3775 194.44C82.2212 194.138 81.9744 193.907 81.6371 193.748C81.3033 193.584 80.8647 193.502 80.3214 193.502H78.2546V203H76.6087ZM81.994 198.078L84.6893 203H82.8143L80.1722 198.078H81.994ZM86.2766 203V192.091H87.9226V201.583H92.8658V203H86.2766Z" fill="#717074"/>
<path d="M96.2789 198.227L96.3801 195.979L94.4838 197.199L93.9031 196.187L95.9166 195.159L93.9031 194.131L94.4838 193.119L96.3801 194.339L96.2789 192.091H97.4347L97.3335 194.339L99.2298 193.119L99.8105 194.131L97.797 195.159L99.8105 196.187L99.2298 197.199L97.3335 195.979L97.4347 198.227H96.2789Z" fill="#FF0000"/>
<rect x="1" y="219" width="632" height="53" rx="9" fill="white" fill-opacity="0.7" stroke="url(#paint0_linear_511_811)" stroke-width="2"/>
<path d="M23.5 236.614V255.75H21.9773V236.614H23.5Z" fill="black"/>
<g opacity="0.5">
<path d="M1.19851 298V287.091H5.087C5.93572 287.091 6.63885 287.245 7.19638 287.554C7.75391 287.863 8.17116 288.286 8.44815 288.822C8.72514 289.355 8.86364 289.955 8.86364 290.623C8.86364 291.294 8.72337 291.897 8.44283 292.434C8.16584 292.966 7.7468 293.389 7.18572 293.701C6.6282 294.01 5.92685 294.165 5.08168 294.165H2.40767V292.769H4.93253C5.46875 292.769 5.90376 292.677 6.23757 292.492C6.57138 292.304 6.81641 292.048 6.97266 291.725C7.12891 291.402 7.20703 291.034 7.20703 290.623C7.20703 290.211 7.12891 289.845 6.97266 289.525C6.81641 289.206 6.5696 288.955 6.23224 288.774C5.89844 288.593 5.4581 288.502 4.91122 288.502H2.84446V298H1.19851ZM14.0092 298.165C13.2422 298.165 12.5728 297.989 12.0011 297.638C11.4293 297.286 10.9854 296.794 10.6694 296.162C10.3533 295.53 10.1953 294.792 10.1953 293.946C10.1953 293.098 10.3533 292.355 10.6694 291.72C10.9854 291.084 11.4293 290.591 12.0011 290.239C12.5728 289.887 13.2422 289.712 14.0092 289.712C14.7763 289.712 15.4457 289.887 16.0174 290.239C16.5891 290.591 17.033 291.084 17.3491 291.72C17.6651 292.355 17.8232 293.098 17.8232 293.946C17.8232 294.792 17.6651 295.53 17.3491 296.162C17.033 296.794 16.5891 297.286 16.0174 297.638C15.4457 297.989 14.7763 298.165 14.0092 298.165ZM14.0146 296.828C14.5117 296.828 14.9237 296.697 15.2504 296.434C15.5771 296.171 15.8185 295.821 15.9748 295.385C16.1346 294.948 16.2145 294.467 16.2145 293.941C16.2145 293.419 16.1346 292.94 15.9748 292.503C15.8185 292.062 15.5771 291.709 15.2504 291.443C14.9237 291.176 14.5117 291.043 14.0146 291.043C13.5138 291.043 13.0984 291.176 12.7681 291.443C12.4414 291.709 12.1982 292.062 12.0384 292.503C11.8821 292.94 11.804 293.419 11.804 293.941C11.804 294.467 11.8821 294.948 12.0384 295.385C12.1982 295.821 12.4414 296.171 12.7681 296.434C13.0984 296.697 13.5138 296.828 14.0146 296.828ZM19.6009 298V289.818H21.1404V291.118H21.2256C21.3747 290.678 21.6375 290.331 22.0139 290.079C22.3939 289.824 22.8236 289.696 23.303 289.696C23.4024 289.696 23.5196 289.699 23.6546 289.706C23.7931 289.713 23.9014 289.722 23.9795 289.733V291.256C23.9156 291.239 23.8019 291.219 23.6386 291.198C23.4752 291.173 23.3119 291.161 23.1485 291.161C22.7721 291.161 22.4365 291.24 22.1418 291.4C21.8506 291.556 21.6198 291.775 21.4493 292.055C21.2789 292.332 21.1936 292.648 21.1936 293.004V298H19.6009ZM29.6604 289.818V291.097H25.1913V289.818H29.6604ZM26.3898 287.858H27.9825V295.598C27.9825 295.907 28.0287 296.139 28.121 296.295C28.2133 296.448 28.3323 296.553 28.4779 296.61C28.627 296.663 28.7886 296.69 28.9626 296.69C29.0905 296.69 29.2023 296.681 29.2982 296.663C29.3941 296.645 29.4687 296.631 29.5219 296.62L29.8096 297.936C29.7172 297.972 29.5858 298.007 29.4154 298.043C29.2449 298.082 29.0319 298.103 28.7762 298.107C28.3572 298.114 27.9665 298.039 27.6043 297.883C27.2421 297.727 26.9491 297.485 26.7254 297.158C26.5017 296.832 26.3898 296.422 26.3898 295.928V287.858ZM35.3161 289.818V291.097H30.6925V289.818H35.3161ZM31.9602 298V288.87C31.9602 288.359 32.0721 287.934 32.2958 287.597C32.5195 287.256 32.8161 287.002 33.1854 286.835C33.5547 286.665 33.956 286.58 34.3892 286.58C34.7088 286.58 34.9822 286.606 35.2095 286.659C35.4368 286.709 35.6055 286.755 35.7156 286.798L35.3427 288.087C35.2681 288.066 35.1722 288.041 35.055 288.012C34.9379 287.98 34.7958 287.964 34.6289 287.964C34.2418 287.964 33.9648 288.06 33.7979 288.252C33.6346 288.444 33.5529 288.721 33.5529 289.083V298H31.9602ZM40.0835 298.165C39.3164 298.165 38.647 297.989 38.0753 297.638C37.5036 297.286 37.0597 296.794 36.7436 296.162C36.4276 295.53 36.2695 294.792 36.2695 293.946C36.2695 293.098 36.4276 292.355 36.7436 291.72C37.0597 291.084 37.5036 290.591 38.0753 290.239C38.647 289.887 39.3164 289.712 40.0835 289.712C40.8505 289.712 41.5199 289.887 42.0916 290.239C42.6634 290.591 43.1072 291.084 43.4233 291.72C43.7393 292.355 43.8974 293.098 43.8974 293.946C43.8974 294.792 43.7393 295.53 43.4233 296.162C43.1072 296.794 42.6634 297.286 42.0916 297.638C41.5199 297.989 40.8505 298.165 40.0835 298.165ZM40.0888 296.828C40.5859 296.828 40.9979 296.697 41.3246 296.434C41.6513 296.171 41.8928 295.821 42.049 295.385C42.2088 294.948 42.2887 294.467 42.2887 293.941C42.2887 293.419 42.2088 292.94 42.049 292.503C41.8928 292.062 41.6513 291.709 41.3246 291.443C40.9979 291.176 40.5859 291.043 40.0888 291.043C39.5881 291.043 39.1726 291.176 38.8423 291.443C38.5156 291.709 38.2724 292.062 38.1126 292.503C37.9563 292.94 37.8782 293.419 37.8782 293.941C37.8782 294.467 37.9563 294.948 38.1126 295.385C38.2724 295.821 38.5156 296.171 38.8423 296.434C39.1726 296.697 39.5881 296.828 40.0888 296.828ZM47.2678 287.091V298H45.6752V287.091H47.2678ZM49.4105 298V289.818H51.0032V298H49.4105ZM50.2148 288.556C49.9379 288.556 49.6999 288.463 49.5011 288.279C49.3058 288.091 49.2081 287.867 49.2081 287.608C49.2081 287.345 49.3058 287.121 49.5011 286.936C49.6999 286.748 49.9379 286.654 50.2148 286.654C50.4918 286.654 50.728 286.748 50.9233 286.936C51.1222 287.121 51.2216 287.345 51.2216 287.608C51.2216 287.867 51.1222 288.091 50.9233 288.279C50.728 288.463 50.4918 288.556 50.2148 288.556ZM56.5922 298.165C55.8252 298.165 55.1558 297.989 54.5841 297.638C54.0123 297.286 53.5684 296.794 53.2524 296.162C52.9363 295.53 52.7783 294.792 52.7783 293.946C52.7783 293.098 52.9363 292.355 53.2524 291.72C53.5684 291.084 54.0123 290.591 54.5841 290.239C55.1558 289.887 55.8252 289.712 56.5922 289.712C57.3593 289.712 58.0287 289.887 58.6004 290.239C59.1721 290.591 59.616 291.084 59.9321 291.72C60.2481 292.355 60.4062 293.098 60.4062 293.946C60.4062 294.792 60.2481 295.53 59.9321 296.162C59.616 296.794 59.1721 297.286 58.6004 297.638C58.0287 297.989 57.3593 298.165 56.5922 298.165ZM56.5976 296.828C57.0947 296.828 57.5067 296.697 57.8334 296.434C58.1601 296.171 58.4015 295.821 58.5578 295.385C58.7176 294.948 58.7975 294.467 58.7975 293.941C58.7975 293.419 58.7176 292.94 58.5578 292.503C58.4015 292.062 58.1601 291.709 57.8334 291.443C57.5067 291.176 57.0947 291.043 56.5976 291.043C56.0969 291.043 55.6814 291.176 55.3511 291.443C55.0244 291.709 54.7812 292.062 54.6214 292.503C54.4651 292.94 54.387 293.419 54.387 293.941C54.387 294.467 54.4651 294.948 54.6214 295.385C54.7812 295.821 55.0244 296.171 55.3511 296.434C55.6814 296.697 56.0969 296.828 56.5976 296.828ZM73.2968 287.091H74.9481V294.266C74.9481 295.029 74.7687 295.706 74.4101 296.295C74.0514 296.881 73.5471 297.343 72.8973 297.68C72.2474 298.014 71.4857 298.181 70.6121 298.181C69.7421 298.181 68.9822 298.014 68.3323 297.68C67.6824 297.343 67.1782 296.881 66.8195 296.295C66.4608 295.706 66.2815 295.029 66.2815 294.266V287.091H67.9275V294.133C67.9275 294.626 68.0358 295.065 68.2524 295.449C68.4726 295.832 68.7833 296.134 69.1846 296.354C69.5858 296.571 70.0617 296.679 70.6121 296.679C71.1661 296.679 71.6437 296.571 72.045 296.354C72.4498 296.134 72.7588 295.832 72.9719 295.449C73.1885 295.065 73.2968 294.626 73.2968 294.133V287.091ZM77.3411 298V287.091H81.2296C82.0748 287.091 82.7761 287.237 83.3336 287.528C83.8947 287.819 84.3137 288.222 84.5907 288.737C84.8677 289.248 85.0062 289.839 85.0062 290.511C85.0062 291.178 84.8659 291.766 84.5854 292.274C84.3084 292.778 83.8894 293.17 83.3283 293.451C82.7708 293.732 82.0694 293.872 81.2243 293.872H78.2786V292.455H81.0751C81.6078 292.455 82.041 292.379 82.3748 292.226C82.7122 292.073 82.959 291.851 83.1152 291.56C83.2715 291.269 83.3496 290.919 83.3496 290.511C83.3496 290.099 83.2697 289.742 83.1099 289.44C82.9537 289.138 82.7069 288.907 82.3695 288.748C82.0357 288.584 81.5971 288.502 81.0538 288.502H78.987V298H77.3411ZM82.7264 293.078L85.4217 298H83.5467L80.9047 293.078H82.7264ZM87.0091 298V287.091H88.655V296.583H93.5982V298H87.0091Z" fill="#717074"/>
<path d="M97.0113 293.227L97.1125 290.979L95.2162 292.199L94.6356 291.187L96.6491 290.159L94.6356 289.131L95.2162 288.119L97.1125 289.339L97.0113 287.091H98.1672L98.066 289.339L99.9623 288.119L100.543 289.131L98.5294 290.159L100.543 291.187L99.9623 292.199L98.066 290.979L98.1672 293.227H97.0113Z" fill="#FF0000"/>
<rect x="1" y="314" width="632" height="53" rx="9" fill="white" fill-opacity="0.7" stroke="#908F94" stroke-width="2"/>
</g>
<g opacity="0.2">
<path d="M7.14844 384.957C7.09162 384.452 6.85724 384.062 6.44531 383.785C6.03338 383.504 5.51492 383.364 4.88992 383.364C4.44247 383.364 4.0554 383.435 3.72869 383.577C3.40199 383.716 3.14808 383.907 2.96697 384.152C2.78942 384.394 2.70064 384.669 2.70064 384.978C2.70064 385.237 2.76101 385.461 2.88175 385.649C3.00604 385.837 3.16761 385.995 3.36648 386.123C3.56889 386.248 3.78551 386.352 4.01634 386.438C4.24716 386.519 4.46911 386.587 4.68217 386.64L5.74751 386.917C6.09553 387.002 6.45241 387.118 6.81818 387.263C7.18395 387.409 7.52308 387.6 7.83558 387.838C8.14808 388.076 8.40021 388.371 8.59197 388.723C8.78729 389.074 8.88494 389.495 8.88494 389.985C8.88494 390.603 8.72514 391.152 8.40554 391.631C8.08949 392.11 7.62962 392.489 7.02592 392.766C6.42578 393.043 5.69957 393.181 4.8473 393.181C4.03054 393.181 3.32386 393.051 2.72727 392.792C2.13068 392.533 1.66371 392.165 1.32635 391.69C0.988991 391.21 0.802557 390.642 0.767046 389.985H2.41832C2.45028 390.379 2.57813 390.708 2.80185 390.971C3.02912 391.23 3.31854 391.423 3.6701 391.551C4.02521 391.675 4.41406 391.738 4.83665 391.738C5.30185 391.738 5.71555 391.665 6.07777 391.519C6.44354 391.37 6.73118 391.164 6.9407 390.901C7.15021 390.635 7.25497 390.324 7.25497 389.969C7.25497 389.646 7.16264 389.381 6.97798 389.175C6.79688 388.969 6.55007 388.799 6.23757 388.664C5.92862 388.529 5.57884 388.41 5.18821 388.307L3.89915 387.956C3.02557 387.718 2.3331 387.368 1.82173 386.906C1.31392 386.445 1.06001 385.834 1.06001 385.074C1.06001 384.445 1.23047 383.897 1.57138 383.428C1.91229 382.959 2.37393 382.595 2.95632 382.336C3.53871 382.073 4.19567 381.942 4.9272 381.942C5.66584 381.942 6.31747 382.071 6.8821 382.331C7.45028 382.59 7.89773 382.947 8.22443 383.401C8.55114 383.852 8.72159 384.371 8.7358 384.957H7.14844ZM12.1888 390.225L12.1782 388.281H12.4552L15.7151 384.818H17.6221L13.904 388.76H13.6537L12.1888 390.225ZM10.724 393V382.091H12.3167V393H10.724ZM15.8909 393L12.9612 389.112L14.0585 387.998L17.8458 393H15.8909ZM19.0736 393V384.818H20.6663V393H19.0736ZM19.8779 383.556C19.6009 383.556 19.363 383.463 19.1642 383.279C18.9688 383.091 18.8712 382.867 18.8712 382.608C18.8712 382.345 18.9688 382.121 19.1642 381.936C19.363 381.748 19.6009 381.654 19.8779 381.654C20.1549 381.654 20.3911 381.748 20.5864 381.936C20.7852 382.121 20.8847 382.345 20.8847 382.608C20.8847 382.867 20.7852 383.091 20.5864 383.279C20.3911 383.463 20.1549 383.556 19.8779 383.556ZM24.4016 382.091V393H22.8089V382.091H24.4016ZM28.137 382.091V393H26.5443V382.091H28.137ZM36.4107 386.816L34.9672 387.071C34.9068 386.887 34.8109 386.711 34.6795 386.544C34.5517 386.377 34.3777 386.24 34.1575 386.134C33.9373 386.027 33.6621 385.974 33.3319 385.974C32.8809 385.974 32.5044 386.075 32.2026 386.278C31.9007 386.477 31.7498 386.734 31.7498 387.05C31.7498 387.324 31.851 387.544 32.0534 387.711C32.2559 387.877 32.5826 388.014 33.0336 388.121L34.3333 388.419C35.0861 388.593 35.6472 388.861 36.0165 389.223C36.3858 389.586 36.5705 390.056 36.5705 390.635C36.5705 391.125 36.4284 391.562 36.1444 391.945C35.8638 392.325 35.4714 392.624 34.9672 392.84C34.4664 393.057 33.8858 393.165 33.2253 393.165C32.3091 393.165 31.5616 392.97 30.9828 392.579C30.4039 392.185 30.0488 391.626 29.9174 390.901L31.4569 390.667C31.5527 391.068 31.7498 391.372 32.0481 391.578C32.3464 391.78 32.7353 391.881 33.2147 391.881C33.7367 391.881 34.1539 391.773 34.4664 391.556C34.7789 391.336 34.9352 391.068 34.9352 390.752C34.9352 390.496 34.8393 390.282 34.6475 390.108C34.4593 389.934 34.1699 389.802 33.7793 389.713L32.3944 389.41C31.6309 389.236 31.0662 388.959 30.7005 388.579C30.3382 388.199 30.1571 387.718 30.1571 387.135C30.1571 386.652 30.2921 386.23 30.562 385.868C30.8319 385.505 31.2047 385.223 31.6806 385.021C32.1564 384.815 32.7015 384.712 33.3159 384.712C34.2001 384.712 34.8961 384.903 35.4039 385.287C35.9118 385.667 36.2473 386.176 36.4107 386.816Z" fill="#717074"/>
<path d="M40.5855 388.227L40.6867 385.979L38.7904 387.199L38.2098 386.187L40.2233 385.159L38.2098 384.131L38.7904 383.119L40.6867 384.339L40.5855 382.091H41.7414L41.6402 384.339L43.5365 383.119L44.1171 384.131L42.1036 385.159L44.1171 386.187L43.5365 387.199L41.6402 385.979L41.7414 388.227H40.5855Z" fill="#FF0000"/>
<rect x="1" y="409" width="632" height="108" rx="9" fill="white" fill-opacity="0.7" stroke="#908F94" stroke-width="2"/>
</g>
<defs>
<linearGradient id="paint0_linear_511_811" x1="0" y1="245.5" x2="634" y2="245.5" gradientUnits="userSpaceOnUse">
<stop offset="0.729852" stop-color="#ED8E5B"/>
<stop offset="1" stop-color="#907BA2"/>
</linearGradient>
</defs>
</svg>
