<svg width="172" height="132" viewBox="0 0 172 132" fill="none" xmlns="http://www.w3.org/2000/svg">
<g filter="url(#filter0_d_511_2136)">
<rect x="1" y="1" width="169.764" height="130" rx="7" fill="#626465"/>
<rect x="1.5" y="1.5" width="168.764" height="129" rx="6.5" stroke="#727475"/>
</g>
<rect x="6.94165" y="37" width="157.881" height="25" rx="2" fill="#5F98E1"/>
<path d="M13.0734 21V11.5455H19.0009V12.7734H14.4999V15.6541H18.6916V16.8775H14.4999V19.772H19.0563V21H13.0734ZM20.7956 21V13.9091H22.1205V15.0632H22.2082C22.356 14.6723 22.5976 14.3677 22.933 14.1491C23.2685 13.9276 23.6701 13.8168 24.1379 13.8168C24.6119 13.8168 25.0089 13.9276 25.329 14.1491C25.6521 14.3707 25.8906 14.6754 26.0445 15.0632H26.1184C26.2877 14.6847 26.557 14.383 26.9263 14.1584C27.2956 13.9306 27.7357 13.8168 28.2466 13.8168C28.8898 13.8168 29.4146 14.0183 29.8208 14.4215C30.2301 14.8247 30.4348 15.4325 30.4348 16.245V21H29.0545V16.3743C29.0545 15.8942 28.9237 15.5464 28.6621 15.331C28.4005 15.1155 28.0881 15.0078 27.7249 15.0078C27.2756 15.0078 26.9263 15.1463 26.677 15.4233C26.4277 15.6972 26.303 16.0496 26.303 16.4805V21H24.9273V16.2866C24.9273 15.9019 24.8073 15.5926 24.5672 15.3587C24.3272 15.1248 24.0148 15.0078 23.6301 15.0078C23.3685 15.0078 23.1269 15.0771 22.9053 15.2156C22.6868 15.351 22.5098 15.5402 22.3744 15.7834C22.2421 16.0265 22.1759 16.3081 22.1759 16.6282V21H20.7956ZM35.2717 21.1431C34.6069 21.1431 34.0268 20.9908 33.5313 20.6861C33.0358 20.3814 32.6511 19.9551 32.3772 19.4073C32.1033 18.8595 31.9663 18.2193 31.9663 17.4869C31.9663 16.7513 32.1033 16.1081 32.3772 15.5572C32.6511 15.0063 33.0358 14.5785 33.5313 14.2738C34.0268 13.9691 34.6069 13.8168 35.2717 13.8168C35.9365 13.8168 36.5166 13.9691 37.0121 14.2738C37.5076 14.5785 37.8923 15.0063 38.1662 15.5572C38.4401 16.1081 38.5771 16.7513 38.5771 17.4869C38.5771 18.2193 38.4401 18.8595 38.1662 19.4073C37.8923 19.9551 37.5076 20.3814 37.0121 20.6861C36.5166 20.9908 35.9365 21.1431 35.2717 21.1431ZM35.2763 19.9844C35.7072 19.9844 36.0642 19.8705 36.3473 19.6428C36.6305 19.415 36.8398 19.1119 36.9752 18.7333C37.1137 18.3548 37.1829 17.9377 37.1829 17.4822C37.1829 17.0298 37.1137 16.6143 36.9752 16.2358C36.8398 15.8542 36.6305 15.5479 36.3473 15.3171C36.0642 15.0863 35.7072 14.9709 35.2763 14.9709C34.8424 14.9709 34.4823 15.0863 34.1961 15.3171C33.9129 15.5479 33.7021 15.8542 33.5636 16.2358C33.4282 16.6143 33.3605 17.0298 33.3605 17.4822C33.3605 17.9377 33.4282 18.3548 33.5636 18.7333C33.7021 19.1119 33.9129 19.415 34.1961 19.6428C34.4823 19.8705 34.8424 19.9844 35.2763 19.9844ZM40.1179 13.9091H41.4982V21.4616C41.4982 21.9356 41.412 22.3357 41.2397 22.6619C41.0704 22.9882 40.818 23.2359 40.4826 23.4052C40.1502 23.5745 39.7393 23.6591 39.25 23.6591C39.2007 23.6591 39.1545 23.6591 39.1115 23.6591C39.0653 23.6591 39.0176 23.6576 38.9684 23.6545V22.468C39.0114 22.468 39.0499 22.468 39.0838 22.468C39.1145 22.468 39.1499 22.468 39.1899 22.468C39.5162 22.468 39.7516 22.3803 39.8963 22.2049C40.044 22.0326 40.1179 21.7817 40.1179 21.4524V13.9091ZM40.8011 12.815C40.561 12.815 40.3548 12.735 40.1825 12.5749C40.0132 12.4118 39.9286 12.2179 39.9286 11.9933C39.9286 11.7655 40.0132 11.5716 40.1825 11.4116C40.3548 11.2485 40.561 11.1669 40.8011 11.1669C41.0411 11.1669 41.2458 11.2485 41.4151 11.4116C41.5874 11.5716 41.6736 11.7655 41.6736 11.9933C41.6736 12.2179 41.5874 12.4118 41.4151 12.5749C41.2458 12.735 41.0411 12.815 40.8011 12.815ZM43.3552 21V13.9091H44.7355V21H43.3552ZM44.0522 12.815C43.8122 12.815 43.606 12.735 43.4336 12.5749C43.2644 12.4118 43.1797 12.2179 43.1797 11.9933C43.1797 11.7655 43.2644 11.5716 43.4336 11.4116C43.606 11.2485 43.8122 11.1669 44.0522 11.1669C44.2923 11.1669 44.497 11.2485 44.6662 11.4116C44.8386 11.5716 44.9248 11.7655 44.9248 11.9933C44.9248 12.2179 44.8386 12.4118 44.6662 12.5749C44.497 12.735 44.2923 12.815 44.0522 12.815ZM52.7843 21.1339C52.1503 21.1339 51.604 21.0185 51.1455 20.7876C50.69 20.5568 50.3391 20.2429 50.0929 19.8459C49.8467 19.4458 49.7236 18.9934 49.7236 18.4886C49.7236 18.1039 49.8036 17.7623 49.9636 17.4638C50.1237 17.1622 50.3468 16.8836 50.633 16.6282C50.9193 16.3728 51.2501 16.1158 51.6256 15.8572L53.149 14.7816C53.4075 14.6123 53.6091 14.4338 53.7538 14.2461C53.8984 14.0553 53.9707 13.8198 53.9707 13.5398C53.9707 13.3182 53.8753 13.1058 53.6845 12.9027C53.4937 12.6996 53.2383 12.598 52.9182 12.598C52.6966 12.598 52.5012 12.6519 52.3319 12.7596C52.1657 12.8673 52.0349 13.0058 51.9395 13.1751C51.8472 13.3413 51.801 13.5167 51.801 13.7013C51.801 13.9168 51.8595 14.1338 51.9764 14.3523C52.0965 14.5708 52.2503 14.797 52.4381 15.0309C52.6258 15.2617 52.8228 15.5018 53.029 15.7511L57.4193 21H55.8589L52.2257 16.7298C51.921 16.3697 51.6379 16.0311 51.3763 15.7141C51.1147 15.3941 50.9023 15.0709 50.7392 14.7447C50.5792 14.4154 50.4992 14.0599 50.4992 13.6783C50.4992 13.2443 50.5976 12.8596 50.7946 12.5241C50.9947 12.1856 51.2732 11.9209 51.6302 11.7301C51.9872 11.5393 52.4058 11.4439 52.8859 11.4439C53.3721 11.4439 53.7892 11.5393 54.1369 11.7301C54.4878 11.9179 54.7571 12.1687 54.9448 12.4826C55.1356 12.7934 55.231 13.1335 55.231 13.5028C55.231 13.9522 55.1187 14.3492 54.894 14.6939C54.6725 15.0355 54.3662 15.3494 53.9754 15.6357L52.078 17.0344C51.7087 17.3053 51.4517 17.573 51.307 17.8377C51.1655 18.0993 51.0947 18.304 51.0947 18.4517C51.0947 18.7225 51.1639 18.9734 51.3024 19.2042C51.444 19.435 51.641 19.6197 51.8933 19.7582C52.1488 19.8967 52.4473 19.9659 52.7889 19.9659C53.1398 19.9659 53.4814 19.8905 53.8138 19.7397C54.1493 19.5858 54.4524 19.3658 54.7232 19.0795C54.9971 18.7933 55.2141 18.4502 55.3742 18.0501C55.5342 17.65 55.6142 17.2022 55.6142 16.7067H56.8607C56.8607 17.3161 56.7914 17.8316 56.6529 18.2532C56.5144 18.6718 56.3467 19.0134 56.1497 19.2781C55.9558 19.5397 55.7727 19.7443 55.6004 19.892C55.545 19.9413 55.4926 19.9905 55.4434 20.0398C55.3942 20.089 55.3418 20.1383 55.2864 20.1875C54.9664 20.5107 54.5786 20.7492 54.1231 20.9031C53.6707 21.0569 53.2244 21.1339 52.7843 21.1339ZM67.2085 14.0291C67.1593 13.5921 66.9561 13.2536 66.5991 13.0135C66.2421 12.7704 65.7928 12.6488 65.2511 12.6488C64.8633 12.6488 64.5279 12.7103 64.2447 12.8335C63.9616 12.9535 63.7415 13.1197 63.5846 13.332C63.4307 13.5413 63.3537 13.7798 63.3537 14.0476C63.3537 14.2723 63.4061 14.4661 63.5107 14.6293C63.6184 14.7924 63.7584 14.9293 63.9308 15.0401C64.1062 15.1478 64.294 15.2386 64.494 15.3125C64.6941 15.3833 64.8864 15.4418 65.0711 15.4879L65.9944 15.728C66.296 15.8018 66.6053 15.9019 66.9223 16.0281C67.2393 16.1542 67.5332 16.3204 67.804 16.5266C68.0749 16.7328 68.2934 16.9883 68.4596 17.293C68.6288 17.5977 68.7135 17.9624 68.7135 18.3871C68.7135 18.9226 68.575 19.3981 68.298 19.8136C68.0241 20.229 67.6255 20.5568 67.1023 20.7969C66.5822 21.0369 65.9528 21.157 65.2142 21.157C64.5063 21.157 63.8939 21.0446 63.3768 20.82C62.8598 20.5953 62.4551 20.2768 62.1627 19.8643C61.8703 19.4489 61.7087 18.9564 61.678 18.3871H63.1091C63.1368 18.7287 63.2476 19.0134 63.4415 19.2411C63.6384 19.4658 63.8892 19.6335 64.1939 19.7443C64.5017 19.852 64.8387 19.9059 65.2049 19.9059C65.6081 19.9059 65.9667 19.8428 66.2806 19.7166C66.5976 19.5874 66.8469 19.4089 67.0285 19.1811C67.21 18.9503 67.3008 18.681 67.3008 18.3732C67.3008 18.0932 67.2208 17.8639 67.0608 17.6854C66.9038 17.5069 66.6899 17.3591 66.4191 17.2422C66.1513 17.1252 65.8482 17.0221 65.5096 16.9329L64.3924 16.6282C63.6353 16.422 63.0352 16.1188 62.592 15.7188C62.1519 15.3187 61.9319 14.7893 61.9319 14.1307C61.9319 13.5859 62.0796 13.1104 62.375 12.7042C62.6705 12.2979 63.0706 11.9825 63.5753 11.7578C64.0801 11.5301 64.6494 11.4162 65.2834 11.4162C65.9236 11.4162 66.4883 11.5285 66.9777 11.7532C67.4701 11.9779 67.8579 12.2872 68.141 12.6811C68.4242 13.072 68.5719 13.5213 68.5842 14.0291H67.2085ZM71.1798 23.6591C70.9736 23.6591 70.7859 23.6422 70.6166 23.6083C70.4473 23.5775 70.3212 23.5437 70.2381 23.5067L70.5704 22.3757C70.8228 22.4434 71.0475 22.4727 71.2445 22.4634C71.4414 22.4542 71.6153 22.3803 71.7661 22.2418C71.92 22.1033 72.0554 21.8771 72.1724 21.5632L72.3432 21.0923L69.7487 13.9091H71.226L73.0218 19.4119H73.0957L74.8915 13.9091H76.3734L73.4511 21.9464C73.3157 22.3157 73.1434 22.6281 72.9341 22.8835C72.7248 23.142 72.4755 23.3359 72.1862 23.4652C71.8969 23.5945 71.5614 23.6591 71.1798 23.6591ZM77.6706 21V13.9091H78.9955V15.0632H79.0832C79.231 14.6723 79.4726 14.3677 79.808 14.1491C80.1435 13.9276 80.5451 13.8168 81.0129 13.8168C81.4869 13.8168 81.8839 13.9276 82.204 14.1491C82.5271 14.3707 82.7656 14.6754 82.9195 15.0632H82.9934C83.1627 14.6847 83.432 14.383 83.8013 14.1584C84.1706 13.9306 84.6107 13.8168 85.1216 13.8168C85.7648 13.8168 86.2896 14.0183 86.6958 14.4215C87.1051 14.8247 87.3098 15.4325 87.3098 16.245V21H85.9295V16.3743C85.9295 15.8942 85.7987 15.5464 85.5371 15.331C85.2755 15.1155 84.9631 15.0078 84.5999 15.0078C84.1506 15.0078 83.8013 15.1463 83.552 15.4233C83.3027 15.6972 83.178 16.0496 83.178 16.4805V21H81.8023V16.2866C81.8023 15.9019 81.6823 15.5926 81.4422 15.3587C81.2022 15.1248 80.8898 15.0078 80.5051 15.0078C80.2435 15.0078 80.0019 15.0771 79.7803 15.2156C79.5618 15.351 79.3848 15.5402 79.2494 15.7834C79.1171 16.0265 79.0509 16.3081 79.0509 16.6282V21H77.6706ZM89.2706 21V11.5455H90.651V15.0586H90.7341C90.8141 14.9109 90.9295 14.7401 91.0803 14.5462C91.2311 14.3523 91.4404 14.183 91.7081 14.0384C91.9759 13.8906 92.3298 13.8168 92.7699 13.8168C93.3424 13.8168 93.8533 13.9614 94.3026 14.2507C94.7519 14.54 95.1043 14.957 95.3598 15.5018C95.6183 16.0465 95.7476 16.7021 95.7476 17.4684C95.7476 18.2347 95.6198 18.8918 95.3644 19.4396C95.1089 19.9844 94.7581 20.4045 94.3118 20.6999C93.8656 20.9923 93.3562 21.1385 92.7838 21.1385C92.3529 21.1385 92.0005 21.0662 91.7266 20.9215C91.4558 20.7769 91.2434 20.6076 91.0895 20.4137C90.9357 20.2198 90.8172 20.0475 90.7341 19.8967H90.6187V21H89.2706ZM90.6233 17.4545C90.6233 17.9531 90.6956 18.3902 90.8402 18.7656C90.9849 19.1411 91.1942 19.435 91.4681 19.6474C91.742 19.8567 92.0775 19.9613 92.4745 19.9613C92.8869 19.9613 93.2316 19.852 93.5086 19.6335C93.7856 19.4119 93.9948 19.1119 94.1364 18.7333C94.2811 18.3548 94.3534 17.9285 94.3534 17.4545C94.3534 16.9867 94.2826 16.5666 94.141 16.1942C94.0025 15.8219 93.7932 15.5279 93.5132 15.3125C93.2362 15.0971 92.89 14.9893 92.4745 14.9893C92.0744 14.9893 91.7358 15.0924 91.4589 15.2987C91.1849 15.5049 90.9772 15.7926 90.8356 16.1619C90.6941 16.5312 90.6233 16.9621 90.6233 17.4545ZM100.284 21.1431C99.6196 21.1431 99.0395 20.9908 98.544 20.6861C98.0485 20.3814 97.6638 19.9551 97.3899 19.4073C97.116 18.8595 96.979 18.2193 96.979 17.4869C96.979 16.7513 97.116 16.1081 97.3899 15.5572C97.6638 15.0063 98.0485 14.5785 98.544 14.2738C99.0395 13.9691 99.6196 13.8168 100.284 13.8168C100.949 13.8168 101.529 13.9691 102.025 14.2738C102.52 14.5785 102.905 15.0063 103.179 15.5572C103.453 16.1081 103.59 16.7513 103.59 17.4869C103.59 18.2193 103.453 18.8595 103.179 19.4073C102.905 19.9551 102.52 20.3814 102.025 20.6861C101.529 20.9908 100.949 21.1431 100.284 21.1431ZM100.289 19.9844C100.72 19.9844 101.077 19.8705 101.36 19.6428C101.643 19.415 101.852 19.1119 101.988 18.7333C102.126 18.3548 102.196 17.9377 102.196 17.4822C102.196 17.0298 102.126 16.6143 101.988 16.2358C101.852 15.8542 101.643 15.5479 101.36 15.3171C101.077 15.0863 100.72 14.9709 100.289 14.9709C99.8551 14.9709 99.495 15.0863 99.2088 15.3171C98.9256 15.5479 98.7148 15.8542 98.5763 16.2358C98.4409 16.6143 98.3732 17.0298 98.3732 17.4822C98.3732 17.9377 98.4409 18.3548 98.5763 18.7333C98.7148 19.1119 98.9256 19.415 99.2088 19.6428C99.495 19.8705 99.8551 19.9844 100.289 19.9844ZM106.511 11.5455V21H105.131V11.5455H106.511ZM113.681 15.6403L112.43 15.8619C112.378 15.7018 112.295 15.5495 112.181 15.4048C112.07 15.2602 111.919 15.1417 111.729 15.0494C111.538 14.957 111.299 14.9109 111.013 14.9109C110.622 14.9109 110.296 14.9986 110.034 15.174C109.773 15.3464 109.642 15.5695 109.642 15.8434C109.642 16.0804 109.73 16.2712 109.905 16.4158C110.081 16.5605 110.364 16.679 110.755 16.7713L111.881 17.0298C112.533 17.1806 113.02 17.413 113.34 17.7269C113.66 18.0408 113.82 18.4486 113.82 18.9503C113.82 19.375 113.697 19.7536 113.451 20.0859C113.207 20.4152 112.867 20.6738 112.43 20.8615C111.996 21.0492 111.493 21.1431 110.921 21.1431C110.127 21.1431 109.479 20.9738 108.977 20.6353C108.476 20.2937 108.168 19.8089 108.054 19.1811L109.388 18.978C109.471 19.3258 109.642 19.5889 109.901 19.7674C110.159 19.9428 110.496 20.0305 110.912 20.0305C111.364 20.0305 111.726 19.9367 111.996 19.7489C112.267 19.5581 112.403 19.3258 112.403 19.0518C112.403 18.8303 112.32 18.6441 112.153 18.4933C111.99 18.3424 111.739 18.2286 111.401 18.1516L110.201 17.8885C109.539 17.7377 109.05 17.4976 108.733 17.1683C108.419 16.839 108.262 16.422 108.262 15.9173C108.262 15.4987 108.379 15.1325 108.613 14.8185C108.846 14.5046 109.17 14.2599 109.582 14.0845C109.994 13.906 110.467 13.8168 110.999 13.8168C111.766 13.8168 112.369 13.983 112.809 14.3153C113.249 14.6446 113.54 15.0863 113.681 15.6403ZM33.716 54V44.5455H37.086C37.8215 44.5455 38.4309 44.6793 38.9141 44.9471C39.3973 45.2148 39.7589 45.5811 39.999 46.0458C40.239 46.5075 40.3591 47.0276 40.3591 47.6062C40.3591 48.1879 40.2375 48.7111 39.9944 49.1758C39.7543 49.6374 39.3911 50.0037 38.9049 50.2745C38.4217 50.5423 37.8138 50.6761 37.0814 50.6761H34.7639V49.4666H36.9521C37.4168 49.4666 37.7938 49.3866 38.0831 49.2266C38.3724 49.0634 38.5848 48.8419 38.7202 48.5618C38.8556 48.2817 38.9233 47.9632 38.9233 47.6062C38.9233 47.2492 38.8556 46.9322 38.7202 46.6552C38.5848 46.3782 38.3709 46.1612 38.0785 46.0043C37.7892 45.8473 37.4076 45.7688 36.9336 45.7688H35.1424V54H33.716ZM43.9207 54.157C43.4713 54.157 43.0651 54.0739 42.7019 53.9077C42.3388 53.7384 42.051 53.4937 41.8386 53.1737C41.6294 52.8536 41.5247 52.4612 41.5247 51.9964C41.5247 51.5964 41.6017 51.267 41.7555 51.0085C41.9094 50.75 42.1172 50.5453 42.3788 50.3945C42.6404 50.2437 42.9328 50.1299 43.2559 50.0529C43.5791 49.976 43.9084 49.9175 44.2438 49.8775C44.6685 49.8282 45.0132 49.7882 45.2779 49.7575C45.5426 49.7236 45.735 49.6697 45.855 49.5959C45.975 49.522 46.035 49.402 46.035 49.2358V49.2035C46.035 48.8003 45.9212 48.4879 45.6934 48.2663C45.4687 48.0447 45.1333 47.9339 44.687 47.9339C44.2223 47.9339 43.856 48.037 43.5883 48.2433C43.3236 48.4464 43.1405 48.6726 43.0389 48.9219L41.7417 48.6264C41.8956 48.1955 42.1203 47.8478 42.4157 47.5831C42.7142 47.3153 43.0574 47.1214 43.4452 47.0014C43.833 46.8783 44.2408 46.8168 44.6685 46.8168C44.9517 46.8168 45.2518 46.8506 45.5688 46.9183C45.8888 46.983 46.1874 47.103 46.4644 47.2784C46.7444 47.4538 46.9737 47.7047 47.1522 48.0309C47.3307 48.354 47.42 48.7741 47.42 49.2912V54H46.072V53.0305H46.0166C45.9273 53.209 45.7934 53.3845 45.6149 53.5568C45.4364 53.7292 45.2071 53.8723 44.9271 53.9862C44.647 54.1 44.3115 54.157 43.9207 54.157ZM44.2207 53.049C44.6024 53.049 44.9286 52.9736 45.1994 52.8228C45.4734 52.672 45.6811 52.475 45.8227 52.2319C45.9673 51.9857 46.0396 51.7225 46.0396 51.4425V50.5284C45.9904 50.5777 45.895 50.6238 45.7534 50.6669C45.6149 50.7069 45.4564 50.7423 45.2779 50.7731C45.0994 50.8008 44.9255 50.8269 44.7563 50.8516C44.587 50.8731 44.4454 50.8916 44.3315 50.907C44.0638 50.9408 43.8191 50.9978 43.5975 51.0778C43.379 51.1578 43.2036 51.2732 43.0712 51.424C42.942 51.5717 42.8774 51.7687 42.8774 52.0149C42.8774 52.3565 43.0035 52.6151 43.2559 52.7905C43.5083 52.9628 43.8299 53.049 44.2207 53.049ZM54.572 48.6403L53.321 48.8619C53.2687 48.7018 53.1856 48.5495 53.0717 48.4048C52.9609 48.2602 52.8101 48.1417 52.6193 48.0494C52.4285 47.957 52.1899 47.9109 51.9037 47.9109C51.5129 47.9109 51.1866 47.9986 50.925 48.174C50.6634 48.3464 50.5326 48.5695 50.5326 48.8434C50.5326 49.0804 50.6203 49.2712 50.7958 49.4158C50.9712 49.5605 51.2543 49.679 51.6452 49.7713L52.7716 50.0298C53.4241 50.1806 53.9103 50.413 54.2304 50.7269C54.5505 51.0408 54.7105 51.4486 54.7105 51.9503C54.7105 52.375 54.5874 52.7536 54.3412 53.0859C54.0981 53.4152 53.758 53.6738 53.321 53.8615C52.887 54.0492 52.3838 54.1431 51.8114 54.1431C51.0174 54.1431 50.3695 53.9738 49.8679 53.6353C49.3662 53.2937 49.0584 52.8089 48.9446 52.1811L50.2787 51.978C50.3618 52.3258 50.5326 52.5889 50.7911 52.7674C51.0497 52.9428 51.3867 53.0305 51.8022 53.0305C52.2546 53.0305 52.6162 52.9367 52.887 52.7489C53.1579 52.5581 53.2933 52.3258 53.2933 52.0518C53.2933 51.8303 53.2102 51.6441 53.044 51.4933C52.8809 51.3424 52.63 51.2286 52.2915 51.1516L51.0912 50.8885C50.4295 50.7377 49.9402 50.4976 49.6232 50.1683C49.3093 49.839 49.1523 49.422 49.1523 48.9173C49.1523 48.4987 49.2693 48.1325 49.5032 47.8185C49.7371 47.5046 50.0602 47.2599 50.4726 47.0845C50.885 46.906 51.3574 46.8168 51.8899 46.8168C52.6562 46.8168 53.2594 46.983 53.6995 47.3153C54.1396 47.6446 54.4305 48.0863 54.572 48.6403ZM59.5382 46.9091V48.017H55.665V46.9091H59.5382ZM56.7037 45.2102H58.084V51.918C58.084 52.1857 58.124 52.3873 58.2041 52.5227C58.2841 52.6551 58.3872 52.7459 58.5134 52.7951C58.6426 52.8413 58.7827 52.8643 58.9335 52.8643C59.0443 52.8643 59.1412 52.8567 59.2243 52.8413C59.3074 52.8259 59.372 52.8136 59.4182 52.8043L59.6675 53.9446C59.5875 53.9754 59.4736 54.0062 59.3259 54.0369C59.1781 54.0708 58.9935 54.0893 58.7719 54.0923C58.4087 54.0985 58.0702 54.0339 57.7563 53.8984C57.4423 53.763 57.1884 53.5537 56.9945 53.2706C56.8006 52.9875 56.7037 52.632 56.7037 52.2042V45.2102ZM61.0651 54V46.9091H62.3993V48.0355H62.4731C62.6024 47.6539 62.8302 47.3538 63.1564 47.1353C63.4857 46.9137 63.8581 46.8029 64.2736 46.8029C64.3597 46.8029 64.4613 46.806 64.5783 46.8121C64.6983 46.8183 64.7922 46.826 64.8599 46.8352V48.1555C64.8045 48.1402 64.706 48.1232 64.5644 48.1048C64.4228 48.0832 64.2813 48.0724 64.1397 48.0724C63.8135 48.0724 63.5226 48.1417 63.2672 48.2802C63.0148 48.4156 62.8148 48.6049 62.667 48.848C62.5193 49.0881 62.4454 49.362 62.4454 49.6697V54H61.0651ZM68.8566 54.1431C68.158 54.1431 67.5563 53.9938 67.0515 53.6953C66.5499 53.3937 66.1621 52.9705 65.8882 52.4258C65.6174 51.878 65.4819 51.2363 65.4819 50.5007C65.4819 49.7744 65.6174 49.1342 65.8882 48.5803C66.1621 48.0263 66.5437 47.5939 67.0331 47.283C67.5255 46.9722 68.101 46.8168 68.7596 46.8168C69.1597 46.8168 69.5475 46.8829 69.923 47.0153C70.2985 47.1476 70.6355 47.3554 70.934 47.6385C71.2325 47.9216 71.468 48.2894 71.6403 48.7418C71.8127 49.1912 71.8988 49.7375 71.8988 50.3807V50.87H66.2621V49.8359H70.5462C70.5462 49.4728 70.4723 49.1512 70.3246 48.8711C70.1769 48.5879 69.9691 48.3648 69.7014 48.2017C69.4367 48.0386 69.1259 47.957 68.7689 47.957C68.3811 47.957 68.0425 48.0524 67.7532 48.2433C67.467 48.431 67.2454 48.6772 67.0885 48.9819C66.9346 49.2835 66.8576 49.6113 66.8576 49.9652V50.7731C66.8576 51.247 66.9407 51.6502 67.1069 51.9826C67.2762 52.315 67.5116 52.5689 67.8133 52.7443C68.1149 52.9167 68.4673 53.0028 68.8704 53.0028C69.132 53.0028 69.3705 52.9659 69.586 52.892C69.8014 52.8151 69.9876 52.7012 70.1446 52.5504C70.3015 52.3996 70.4216 52.2134 70.5047 51.9918L71.8111 52.2273C71.7065 52.612 71.5187 52.949 71.2479 53.2383C70.9802 53.5245 70.6432 53.7476 70.2369 53.9077C69.8337 54.0646 69.3736 54.1431 68.8566 54.1431ZM76.4865 54.1431C75.7878 54.1431 75.1862 53.9938 74.6814 53.6953C74.1798 53.3937 73.792 52.9705 73.5181 52.4258C73.2472 51.878 73.1118 51.2363 73.1118 50.5007C73.1118 49.7744 73.2472 49.1342 73.5181 48.5803C73.792 48.0263 74.1736 47.5939 74.663 47.283C75.1554 46.9722 75.7309 46.8168 76.3895 46.8168C76.7896 46.8168 77.1774 46.8829 77.5529 47.0153C77.9283 47.1476 78.2653 47.3554 78.5639 47.6385C78.8624 47.9216 79.0978 48.2894 79.2702 48.7418C79.4425 49.1912 79.5287 49.7375 79.5287 50.3807V50.87H73.892V49.8359H78.1761C78.1761 49.4728 78.1022 49.1512 77.9545 48.8711C77.8068 48.5879 77.599 48.3648 77.3313 48.2017C77.0666 48.0386 76.7558 47.957 76.3987 47.957C76.011 47.957 75.6724 48.0524 75.3831 48.2433C75.0969 48.431 74.8753 48.6772 74.7184 48.9819C74.5645 49.2835 74.4875 49.6113 74.4875 49.9652V50.7731C74.4875 51.247 74.5706 51.6502 74.7368 51.9826C74.9061 52.315 75.1415 52.5689 75.4431 52.7443C75.7447 52.9167 76.0971 53.0028 76.5003 53.0028C76.7619 53.0028 77.0004 52.9659 77.2159 52.892C77.4313 52.8151 77.6175 52.7012 77.7745 52.5504C77.9314 52.3996 78.0514 52.2134 78.1345 51.9918L79.441 52.2273C79.3364 52.612 79.1486 52.949 78.8778 53.2383C78.61 53.5245 78.273 53.7476 77.8668 53.9077C77.4636 54.0646 77.0035 54.1431 76.4865 54.1431ZM14.4999 77.5455V87H13.0734V77.5455H14.4999ZM17.8468 82.7898V87H16.4665V79.9091H17.7914V81.0632H17.8791C18.0422 80.6877 18.2977 80.3861 18.6455 80.1584C18.9963 79.9306 19.438 79.8168 19.9704 79.8168C20.4536 79.8168 20.8768 79.9183 21.2399 80.1214C21.6031 80.3215 21.8847 80.62 22.0847 81.017C22.2848 81.4141 22.3848 81.9049 22.3848 82.4897V87H21.0045V82.6559C21.0045 82.1419 20.8706 81.7403 20.6028 81.451C20.3351 81.1586 19.9673 81.0124 19.4995 81.0124C19.1794 81.0124 18.8948 81.0817 18.6455 81.2202C18.3993 81.3587 18.2038 81.5618 18.0592 81.8295C17.9176 82.0942 17.8468 82.4143 17.8468 82.7898ZM29.5496 81.6403L28.2985 81.8619C28.2462 81.7018 28.1631 81.5495 28.0492 81.4048C27.9384 81.2602 27.7876 81.1417 27.5968 81.0494C27.406 80.957 27.1675 80.9109 26.8813 80.9109C26.4904 80.9109 26.1642 80.9986 25.9026 81.174C25.641 81.3464 25.5102 81.5695 25.5102 81.8434C25.5102 82.0804 25.5979 82.2712 25.7733 82.4158C25.9487 82.5605 26.2319 82.679 26.6227 82.7713L27.7492 83.0298C28.4016 83.1806 28.8879 83.413 29.208 83.7269C29.528 84.0408 29.6881 84.4486 29.6881 84.9503C29.6881 85.375 29.565 85.7536 29.3188 86.0859C29.0756 86.4152 28.7355 86.6738 28.2985 86.8615C27.8646 87.0492 27.3614 87.1431 26.7889 87.1431C25.9949 87.1431 25.347 86.9738 24.8454 86.6353C24.3437 86.2937 24.036 85.8089 23.9221 85.1811L25.2563 84.978C25.3394 85.3258 25.5102 85.5889 25.7687 85.7674C26.0272 85.9428 26.3642 86.0305 26.7797 86.0305C27.2321 86.0305 27.5937 85.9367 27.8646 85.7489C28.1354 85.5581 28.2708 85.3258 28.2708 85.0518C28.2708 84.8303 28.1877 84.6441 28.0215 84.4933C27.8584 84.3424 27.6076 84.2286 27.269 84.1516L26.0688 83.8885C25.4071 83.7377 24.9177 83.4976 24.6007 83.1683C24.2868 82.839 24.1298 82.422 24.1298 81.9173C24.1298 81.4987 24.2468 81.1325 24.4807 80.8185C24.7146 80.5046 25.0377 80.2599 25.4502 80.0845C25.8626 79.906 26.335 79.8168 26.8674 79.8168C27.6337 79.8168 28.237 79.983 28.6771 80.3153C29.1172 80.6446 29.408 81.0863 29.5496 81.6403ZM31.2057 89.6591V79.9091H32.5538V81.0586H32.6692C32.7492 80.9109 32.8646 80.7401 33.0154 80.5462C33.1662 80.3523 33.3755 80.183 33.6432 80.0384C33.911 79.8906 34.2649 79.8168 34.705 79.8168C35.2775 79.8168 35.7884 79.9614 36.2377 80.2507C36.687 80.54 37.0394 80.957 37.2949 81.5018C37.5534 82.0465 37.6827 82.7021 37.6827 83.4684C37.6827 84.2347 37.5549 84.8918 37.2995 85.4396C37.044 85.9844 36.6932 86.4045 36.2469 86.6999C35.8007 86.9923 35.2913 87.1385 34.7189 87.1385C34.288 87.1385 33.9356 87.0662 33.6617 86.9215C33.3909 86.7769 33.1785 86.6076 33.0246 86.4137C32.8708 86.2198 32.7523 86.0475 32.6692 85.8967H32.5861V89.6591H31.2057ZM32.5584 83.4545C32.5584 83.9531 32.6307 84.3902 32.7753 84.7656C32.92 85.1411 33.1293 85.435 33.4032 85.6474C33.6771 85.8567 34.0126 85.9613 34.4096 85.9613C34.822 85.9613 35.1667 85.852 35.4437 85.6335C35.7207 85.4119 35.9299 85.1119 36.0715 84.7333C36.2162 84.3548 36.2885 83.9285 36.2885 83.4545C36.2885 82.9867 36.2177 82.5666 36.0761 82.1942C35.9376 81.8219 35.7284 81.5279 35.4483 81.3125C35.1713 81.0971 34.8251 80.9893 34.4096 80.9893C34.0095 80.9893 33.6709 81.0924 33.394 81.2987C33.12 81.5049 32.9123 81.7926 32.7707 82.1619C32.6292 82.5312 32.5584 82.9621 32.5584 83.4545ZM42.2853 87.1431C41.5867 87.1431 40.985 86.9938 40.4802 86.6953C39.9786 86.3937 39.5908 85.9705 39.3169 85.4258C39.0461 84.878 38.9106 84.2363 38.9106 83.5007C38.9106 82.7744 39.0461 82.1342 39.3169 81.5803C39.5908 81.0263 39.9724 80.5939 40.4618 80.283C40.9542 79.9722 41.5297 79.8168 42.1883 79.8168C42.5884 79.8168 42.9762 79.8829 43.3517 80.0153C43.7272 80.1476 44.0642 80.3554 44.3627 80.6385C44.6612 80.9216 44.8967 81.2894 45.069 81.7418C45.2414 82.1912 45.3275 82.7375 45.3275 83.3807V83.87H39.6908V82.8359H43.9749C43.9749 82.4728 43.9011 82.1512 43.7533 81.8711C43.6056 81.5879 43.3979 81.3648 43.1301 81.2017C42.8654 81.0386 42.5546 80.957 42.1976 80.957C41.8098 80.957 41.4713 81.0524 41.182 81.2433C40.8957 81.431 40.6741 81.6772 40.5172 81.9819C40.3633 82.2835 40.2864 82.6113 40.2864 82.9652V83.7731C40.2864 84.247 40.3695 84.6502 40.5356 84.9826C40.7049 85.315 40.9404 85.5689 41.242 85.7443C41.5436 85.9167 41.896 86.0028 42.2991 86.0028C42.5607 86.0028 42.7993 85.9659 43.0147 85.892C43.2301 85.8151 43.4163 85.7012 43.5733 85.5504C43.7302 85.3996 43.8503 85.2134 43.9334 84.9918L45.2398 85.2273C45.1352 85.612 44.9475 85.949 44.6766 86.2383C44.4089 86.5245 44.0719 86.7476 43.6656 86.9077C43.2624 87.0646 42.8023 87.1431 42.2853 87.1431ZM49.8459 87.1431C49.1596 87.1431 48.5687 86.9877 48.0732 86.6768C47.5808 86.3629 47.2022 85.9305 46.9375 85.3796C46.6729 84.8287 46.5405 84.1978 46.5405 83.4869C46.5405 82.7667 46.6759 82.1312 46.9468 81.5803C47.2176 81.0263 47.5992 80.5939 48.0917 80.283C48.5841 79.9722 49.1642 79.8168 49.8321 79.8168C50.3707 79.8168 50.8508 79.9168 51.2724 80.1168C51.6941 80.3138 52.0341 80.5908 52.2927 80.9478C52.5543 81.3048 52.7097 81.7218 52.7589 82.1989H51.4155C51.3417 81.8665 51.1724 81.5803 50.9077 81.3402C50.6461 81.1001 50.2953 80.9801 49.8552 80.9801C49.4705 80.9801 49.1334 81.0817 48.8441 81.2848C48.5579 81.4848 48.3348 81.7711 48.1748 82.1435C48.0147 82.5128 47.9347 82.9498 47.9347 83.4545C47.9347 83.9716 48.0132 84.4179 48.1701 84.7933C48.3271 85.1688 48.5487 85.4596 48.8349 85.6658C49.1242 85.872 49.4643 85.9751 49.8552 85.9751C50.1168 85.9751 50.3537 85.9274 50.5661 85.832C50.7815 85.7335 50.9616 85.5935 51.1062 85.4119C51.254 85.2304 51.3571 85.0118 51.4155 84.7564H52.7589C52.7097 85.215 52.5604 85.6243 52.3111 85.9844C52.0618 86.3445 51.7279 86.6276 51.3093 86.8338C50.8939 87.04 50.4061 87.1431 49.8459 87.1431ZM57.5451 79.9091V81.017H53.6718V79.9091H57.5451ZM54.7105 78.2102H56.0909V84.918C56.0909 85.1857 56.1309 85.3873 56.2109 85.5227C56.2909 85.6551 56.394 85.7459 56.5202 85.7951C56.6495 85.8413 56.7895 85.8643 56.9403 85.8643C57.0511 85.8643 57.148 85.8567 57.2311 85.8413C57.3142 85.8259 57.3789 85.8136 57.425 85.8043L57.6743 86.9446C57.5943 86.9754 57.4804 87.0062 57.3327 87.0369C57.185 87.0708 57.0003 87.0893 56.7787 87.0923C56.4156 87.0985 56.077 87.0339 55.7631 86.8984C55.4492 86.763 55.1953 86.5537 55.0014 86.2706C54.8075 85.9875 54.7105 85.632 54.7105 85.2042V78.2102ZM13.872 120H12.3578L15.7602 110.545H17.4082L20.8106 120H19.2964L16.6234 112.263H16.5496L13.872 120ZM14.1259 116.298H19.0379V117.498H14.1259V116.298ZM26.557 117.059V112.909H27.9419V120H26.5847V118.772H26.5108C26.3477 119.151 26.0861 119.466 25.726 119.718C25.369 119.968 24.9243 120.092 24.3918 120.092C23.9363 120.092 23.5332 119.992 23.1823 119.792C22.8345 119.589 22.5606 119.289 22.3606 118.892C22.1636 118.495 22.0651 118.004 22.0651 117.419V112.909H23.4454V117.253C23.4454 117.736 23.5793 118.121 23.8471 118.407C24.1148 118.694 24.4626 118.837 24.8904 118.837C25.1489 118.837 25.4059 118.772 25.6614 118.643C25.9199 118.513 26.1338 118.318 26.303 118.056C26.4754 117.795 26.56 117.462 26.557 117.059ZM33.1066 112.909V114.017H29.2334V112.909H33.1066ZM30.2721 111.21H31.6524V117.918C31.6524 118.186 31.6924 118.387 31.7724 118.523C31.8524 118.655 31.9555 118.746 32.0817 118.795C32.211 118.841 32.351 118.864 32.5018 118.864C32.6126 118.864 32.7096 118.857 32.7927 118.841C32.8758 118.826 32.9404 118.814 32.9866 118.804L33.2358 119.945C33.1558 119.975 33.0419 120.006 32.8942 120.037C32.7465 120.071 32.5618 120.089 32.3402 120.092C31.9771 120.098 31.6385 120.034 31.3246 119.898C31.0107 119.763 30.7568 119.554 30.5629 119.271C30.369 118.987 30.2721 118.632 30.2721 118.204V111.21ZM37.5442 120.143C36.8794 120.143 36.2993 119.991 35.8038 119.686C35.3083 119.381 34.9235 118.955 34.6496 118.407C34.3757 117.859 34.2388 117.219 34.2388 116.487C34.2388 115.751 34.3757 115.108 34.6496 114.557C34.9235 114.006 35.3083 113.578 35.8038 113.274C36.2993 112.969 36.8794 112.817 37.5442 112.817C38.2089 112.817 38.7891 112.969 39.2846 113.274C39.7801 113.578 40.1648 114.006 40.4387 114.557C40.7126 115.108 40.8496 115.751 40.8496 116.487C40.8496 117.219 40.7126 117.859 40.4387 118.407C40.1648 118.955 39.7801 119.381 39.2846 119.686C38.7891 119.991 38.2089 120.143 37.5442 120.143ZM37.5488 118.984C37.9797 118.984 38.3367 118.871 38.6198 118.643C38.903 118.415 39.1122 118.112 39.2476 117.733C39.3861 117.355 39.4554 116.938 39.4554 116.482C39.4554 116.03 39.3861 115.614 39.2476 115.236C39.1122 114.854 38.903 114.548 38.6198 114.317C38.3367 114.086 37.9797 113.971 37.5488 113.971C37.1148 113.971 36.7547 114.086 36.4685 114.317C36.1854 114.548 35.9746 114.854 35.8361 115.236C35.7007 115.614 35.6329 116.03 35.6329 116.482C35.6329 116.938 35.7007 117.355 35.8361 117.733C35.9746 118.112 36.1854 118.415 36.4685 118.643C36.7547 118.871 37.1148 118.984 37.5488 118.984ZM42.5011 120V110.545H48.364V111.773H43.9276V114.654H47.9439V115.877H43.9276V120H42.5011ZM50.0075 120V112.909H51.3878V120H50.0075ZM50.7046 111.815C50.4645 111.815 50.2583 111.735 50.086 111.575C49.9167 111.412 49.8321 111.218 49.8321 110.993C49.8321 110.766 49.9167 110.572 50.086 110.412C50.2583 110.248 50.4645 110.167 50.7046 110.167C50.9446 110.167 51.1493 110.248 51.3186 110.412C51.4909 110.572 51.5771 110.766 51.5771 110.993C51.5771 111.218 51.4909 111.412 51.3186 111.575C51.1493 111.735 50.9446 111.815 50.7046 111.815ZM54.6251 110.545V120H53.2448V110.545H54.6251ZM57.8624 110.545V120H56.4821V110.545H57.8624Z" fill="white"/>
<line x1="160.578" y1="32.5" x2="12.0347" y2="32.5" stroke="white" stroke-opacity="0.15"/>
<line x1="160.578" y1="66.5" x2="12.0347" y2="66.5" stroke="white" stroke-opacity="0.15"/>
<line x1="160.578" y1="100.5" x2="12.0347" y2="100.5" stroke="white" stroke-opacity="0.15"/>
<g clip-path="url(#clip0_511_2136)">
<rect width="15.3459" height="16" transform="translate(12.5095 42)" fill="#ED8E5B"/>
<path d="M12.5095 43.4731C12.5095 43.2993 12.6807 43.1519 12.9116 43.1266L27.9705 42.0038C28.2546 41.9727 28.5095 42.1366 28.5095 42.3503V57.6497C28.5095 57.8634 28.2546 58.0273 27.9705 57.9962L12.9116 56.8734C12.6807 56.8481 12.5095 56.7007 12.5095 56.5269V43.4731Z" fill="#ED8E5B"/>
<path d="M25.3627 51.1162C24.1841 53.089 21.9952 53.4397 19.8906 53.1328C19.7643 53.1328 19.4696 53.0013 19.3854 53.0451C19.3013 53.089 19.3854 53.1767 19.3854 53.2205C19.3854 53.5712 19.3434 54.8426 19.4275 55.1056C19.5117 55.3686 19.6801 55.544 19.7643 55.6755C19.8485 55.807 19.8064 55.6755 19.8064 55.6755C19.8064 55.807 19.638 55.8947 19.5538 55.8947C19.0908 55.9386 18.2489 55.8947 17.7438 55.8947C17.2387 55.8947 17.0703 55.7632 17.0282 55.281C17.1124 52.6944 16.902 50.1079 17.1545 47.5214C17.8701 43.9265 23.5106 43.8827 25.2785 46.5131C26.1204 47.7844 26.1624 49.801 25.3627 51.1162ZM23.8052 45.8555C23.5948 45.6363 23.3422 45.6363 23.0896 45.5047C22.6266 45.2855 22.5003 45.1979 21.9952 45.154C21.4901 45.1102 21.4901 45.154 21.1113 45.2417C20.7324 45.3294 20.6062 45.2417 20.3957 45.2417C20.0168 45.3294 19.2592 45.6363 18.9224 45.8555C17.6175 46.8199 17.1124 48.7489 18.6278 49.801C20.1431 50.8532 20.8166 50.3271 21.6585 50.0641C22.5003 49.801 23.721 48.9242 23.5948 47.6529C23.4685 46.3815 22.1636 46.0308 21.3638 46.1185C20.5641 46.2062 21.1534 46.2062 21.0692 46.2062C20.9429 46.2062 20.7745 46.2062 20.6062 46.2062C20.1852 46.2939 19.5538 46.6884 19.3013 47.0391C18.712 47.8282 19.1329 48.705 20.0589 48.9242C20.985 49.1434 21.9952 48.7927 22.1636 48.0036C22.332 47.2145 20.7324 46.7761 20.4378 47.4775C20.1431 48.179 20.3957 47.7406 20.4378 47.8282C20.6062 48.0036 20.7745 47.7406 20.8587 47.6529C21.2375 47.3022 21.7427 47.8721 21.3217 48.2666C20.9008 48.6612 20.4378 48.6174 20.0589 48.4858C19.3434 48.2666 19.3434 47.4337 19.8485 46.9953C20.6482 46.2939 22.6266 46.2939 22.8792 47.5652C23.1317 48.8365 21.2796 49.6257 20.2694 49.6695C19.2592 49.7133 17.8701 48.9242 18.1647 47.4775C18.4594 46.0308 20.0168 45.4609 21.2375 45.5047C22.4583 45.5486 24.6892 46.7761 24.2262 48.7489C23.7631 50.7216 22.2057 50.9408 21.1113 51.0285C20.0168 51.1162 20.6903 50.9408 20.4378 50.897C20.0589 50.897 19.7222 51.0724 19.3434 50.897C18.9645 50.7216 18.8382 50.4586 18.3752 50.5025C17.9122 50.5463 18.1647 50.8093 18.291 50.9408C18.5857 51.2477 19.0066 51.2039 19.3434 51.2916C19.6801 51.3792 19.6801 51.5546 20.101 51.5108C20.522 51.4669 20.3115 51.4669 20.3957 51.4669C20.6062 51.4669 20.8166 51.5546 21.1113 51.5546C21.4059 51.5546 21.6164 51.2916 21.911 51.2477C22.2057 51.2039 22.332 51.2477 22.5003 51.2477C22.6687 51.2477 22.8792 50.9408 23.0055 50.8532C23.1317 50.7655 23.5948 50.7216 23.679 50.5463C23.7631 50.3709 23.8894 50.1517 24.0999 49.9764C24.3103 49.801 24.3945 49.801 24.4366 49.7572C24.5629 49.538 24.605 49.0557 24.6892 48.7927C24.7734 48.5297 24.8155 48.6174 24.8155 48.5297C24.8997 48.1351 24.7313 47.8721 24.6892 47.5214C24.6471 47.1706 24.6892 47.346 24.6892 47.2583C24.6892 46.9953 24.2683 46.3815 24.0578 46.2062C23.8473 46.0308 23.7631 45.9431 23.6369 45.8116L23.8052 45.8555Z" fill="white"/>
<path d="M16.2284 48.9682C16.944 49.1435 17.1545 49.6257 17.1124 50.108C17.0282 50.108 16.944 50.1518 16.8177 50.1518C16.1443 50.2833 14.8394 49.7573 14.8394 49.7573C14.8394 49.7573 15.8075 50.4149 16.7336 50.4149C16.8598 50.4149 16.944 50.4149 17.0703 50.4149C16.9019 50.9848 16.5231 51.3355 15.7233 51.1163C14.8815 50.8971 14.1238 49.5381 14.1238 49.5381C14.1238 49.5381 15.4287 48.749 16.2705 48.9682H16.2284Z" fill="white"/>
</g>
<path d="M149.904 44.696L153.346 49.52V49.832L149.904 54.656L148.641 53.768L151.493 49.664L148.641 45.56L149.904 44.696Z" fill="white"/>
<path d="M149.904 110L153.346 114.824V115.136L149.904 119.96L148.641 119.072L151.493 114.968L148.641 110.864L149.904 110Z" fill="white"/>
<defs>
<filter id="filter0_d_511_2136" x="0" y="0" width="171.764" height="132" filterUnits="userSpaceOnUse" color-interpolation-filters="sRGB">
<feFlood flood-opacity="0" result="BackgroundImageFix"/>
<feColorMatrix in="SourceAlpha" type="matrix" values="0 0 0 0 0 0 0 0 0 0 0 0 0 0 0 0 0 0 127 0" result="hardAlpha"/>
<feMorphology radius="1" operator="dilate" in="SourceAlpha" result="effect1_dropShadow_511_2136"/>
<feOffset/>
<feComposite in2="hardAlpha" operator="out"/>
<feColorMatrix type="matrix" values="0 0 0 0 0 0 0 0 0 0 0 0 0 0 0 0 0 0 1 0"/>
<feBlend mode="normal" in2="BackgroundImageFix" result="effect1_dropShadow_511_2136"/>
<feBlend mode="normal" in="SourceGraphic" in2="effect1_dropShadow_511_2136" result="shape"/>
</filter>
<clipPath id="clip0_511_2136">
<rect width="15.3459" height="16" fill="white" transform="translate(12.5095 42)"/>
</clipPath>
</defs>
</svg>
