<svg width="705" height="134" viewBox="0 0 705 134" fill="none" xmlns="http://www.w3.org/2000/svg">
<path d="M35.4872 89.7872L35.5692 132.295L0.245169 132.363L0 5.33008L52.7821 5.22819C68.1192 5.19858 79.7925 9.01071 87.8838 16.746C95.9752 24.4813 99.9924 34.7537 100.017 47.6446C100.033 55.6402 98.2518 62.8235 94.6746 69.1943C91.0974 75.5651 85.7227 80.5523 78.6324 84.2375C71.542 87.9227 62.9796 89.7341 52.8637 89.7537L35.4872 89.7872ZM64.3669 47.7134C64.349 38.4124 59.2003 33.6902 48.9213 33.71L35.4606 33.736L35.5149 61.8839L48.9756 61.8579C59.2547 61.8381 64.385 57.096 64.3668 47.6318L64.3669 47.7134Z" fill="white"/>
<path d="M170.674 111.395L125.642 111.482L118.667 132.708L81.5483 132.78L119.5 28.7501L177 28.7501L215.094 132.522L177.731 132.594L170.674 111.395ZM161.812 84.8957L148.109 43.6384L134.401 84.9486L161.894 84.8956L161.812 84.8957Z" fill="white"/>
<rect width="57.2061" height="19.4501" transform="matrix(1 0 0 -1 118.988 19.4502)" fill="white"/>
<path d="M303.071 115.137C299.493 120.855 294.28 125.434 287.271 128.793C280.343 132.151 272.025 133.881 262.317 133.899C247.633 133.928 235.471 130.443 225.912 123.363C216.354 116.283 211.195 106.258 210.354 93.2054L247.88 93.1329C248.215 97.5381 249.609 100.881 252.06 102.997C254.43 105.114 257.369 106.25 260.877 106.244C263.977 106.238 266.423 105.499 268.133 103.864C269.843 102.31 270.736 100.105 270.731 97.2498C270.723 93.4152 269.005 90.4813 265.492 88.3668C261.98 86.2523 256.51 83.9784 249 81.4636C241 78.7051 234.387 76.0254 229.161 73.4247C223.934 70.8239 219.44 66.8348 215.677 61.6204C211.914 56.3244 210.025 49.6378 210.009 41.3158C209.993 32.9938 212.02 26.626 216.088 20.9069C220.156 15.1879 225.695 10.9346 232.787 7.98374C239.879 5.03286 247.871 3.54884 256.844 3.53152C271.447 3.50333 283.038 6.90767 291.781 13.8258C300.523 20.744 305.273 30.3622 306.113 42.762L268.26 42.8351C267.763 38.9198 266.534 35.985 264.572 34.0307C262.61 32.1579 259.998 31.1839 256.735 31.1902C253.961 31.1956 251.841 31.934 250.294 33.324C248.747 34.7139 247.935 36.9184 247.941 39.774C247.948 43.3639 249.666 46.2161 253.096 48.1676C256.526 50.1191 261.834 52.475 269.181 54.99C277.181 57.8302 283.876 60.6728 289.102 63.3552C294.411 66.1189 298.905 70.1081 302.749 75.3223C306.594 80.6182 308.483 87.3863 308.5 95.7899C308.513 102.888 306.731 109.255 303.152 114.974L303.071 115.137Z" fill="white"/>
<path d="M413.475 5.39056L413.529 33.5385L379.266 33.6046L379.457 132.489L344.296 132.557L344.105 33.6725L310.168 33.738L310.113 5.59009L413.475 5.39056Z" fill="white"/>
<path d="M484.116 132.489L458.328 85.7074L454.738 85.7143L454.828 132.546L419.504 132.614L419.259 5.49976L475.06 5.39204C485.257 5.37236 493.908 7.1506 501.012 10.6452C508.116 14.1398 513.51 19.0247 517.112 25.2184C520.713 31.4122 522.521 38.4253 522.536 46.1762C522.553 54.9877 520.121 62.7433 515.239 69.2798C510.357 75.8163 503.268 80.399 494.054 83.0276L523.029 132.333L484.115 132.408L484.116 132.489ZM454.692 61.9721L472.069 61.9386C481.858 61.9197 486.745 57.5045 486.727 48.6114C486.719 44.4504 485.489 41.1076 483.037 38.7463C480.585 36.385 476.912 35.1683 472.017 35.1777L454.641 35.2112L454.692 61.9721Z" fill="white"/>
<path d="M565.987 33.5666L566.028 54.5347L607.144 54.4554L607.196 81.2163L566.079 81.2956L566.124 104.303L612.624 104.214L612.679 132.362L530.854 132.52L530.609 5.40527L612.433 5.24732L612.488 33.3952L565.987 33.485L565.987 33.5666Z" fill="white"/>
<path d="M658.083 33.5095L658.124 54.4776L699.24 54.3982L699.292 81.1591L658.175 81.2385L658.22 104.246L704.72 104.157L704.775 132.305L622.95 132.462L622.705 5.34814L704.529 5.19019L704.584 33.3381L658.083 33.4279L658.083 33.5095Z" fill="white"/>
</svg>
