<svg width="1015" height="206" viewBox="0 0 1015 206" fill="none" xmlns="http://www.w3.org/2000/svg">
<path d="M345.487 125.787L345.569 168.294L310.245 168.363L310 41.3298L362.782 41.2279C378.119 41.1983 389.792 45.0105 397.884 52.7457C405.975 60.481 409.992 70.7534 410.017 83.6443C410.033 91.64 408.252 98.8232 404.675 105.194C401.097 111.565 395.723 116.552 388.632 120.237C381.542 123.922 372.98 125.734 362.864 125.753L345.487 125.787ZM374.367 83.7132C374.349 74.4121 369.2 69.6899 358.921 69.7098L345.461 69.7357L345.515 97.8837L358.976 97.8577C369.255 97.8378 374.385 93.0958 374.367 83.6316L374.367 83.7132Z" fill="white"/>
<path d="M480.674 147.395L435.642 147.482L428.667 168.708L391.548 168.78L429.5 64.75L487 64.75L525.094 168.522L487.731 168.594L480.674 147.395ZM471.812 120.896L458.109 79.6383L444.401 120.949L471.894 120.895L471.812 120.896Z" fill="white"/>
<rect width="57.2061" height="19.4501" transform="matrix(1 0 0 -1 428.988 55.4501)" fill="white"/>
<path d="M613.071 151.137C609.493 156.855 604.28 161.434 597.271 164.792C590.343 168.151 582.025 169.88 572.317 169.899C557.633 169.927 545.471 166.443 535.912 159.363C526.354 152.283 521.195 142.258 520.354 129.205L557.88 129.133C558.215 133.538 559.609 136.88 562.06 138.997C564.43 141.114 567.369 142.25 570.877 142.243C573.977 142.237 576.423 141.498 578.133 139.863C579.843 138.31 580.736 136.105 580.731 133.25C580.723 129.415 579.005 126.481 575.492 124.367C571.98 122.252 566.51 119.978 559 117.463C551 114.705 544.387 112.025 539.161 109.424C533.934 106.824 529.44 102.835 525.677 97.6201C521.914 92.3241 520.025 85.6375 520.009 77.3155C519.993 68.9936 522.02 62.6257 526.088 56.9067C530.156 51.1877 535.695 46.9344 542.787 43.9835C549.879 41.0326 557.871 39.5486 566.844 39.5313C581.447 39.5031 593.038 42.9074 601.781 49.8256C610.523 56.7437 615.273 66.362 616.113 78.7618L578.26 78.8349C577.763 74.9196 576.534 71.9848 574.572 70.0304C572.61 68.1577 569.998 67.1837 566.735 67.19C563.961 67.1953 561.841 67.9337 560.294 69.3237C558.747 70.7137 557.935 72.9182 557.941 75.7737C557.948 79.3636 559.666 82.2159 563.096 84.1674C566.526 86.1189 571.834 88.4747 579.181 90.9898C587.181 93.8299 593.876 96.6726 599.102 99.3549C604.411 102.119 608.905 106.108 612.749 111.322C616.594 116.618 618.483 123.386 618.5 131.79C618.513 138.888 616.731 145.255 613.152 150.973L613.071 151.137Z" fill="white"/>
<path d="M723.475 41.3903L723.529 69.5382L689.266 69.6044L689.457 168.489L654.296 168.557L654.105 69.6722L620.168 69.7378L620.113 41.5898L723.475 41.3903Z" fill="white"/>
<path d="M794.116 168.489L768.328 121.707L764.738 121.714L764.828 168.546L729.504 168.614L729.259 41.4995L785.06 41.3918C795.257 41.3721 803.908 43.1504 811.012 46.6449C818.116 50.1395 823.51 55.0244 827.112 61.2182C830.713 67.412 832.521 74.4251 832.536 82.176C832.553 90.9875 830.121 98.7431 825.239 105.28C820.357 111.816 813.268 116.399 804.054 119.027L833.029 168.332L794.115 168.408L794.116 168.489ZM764.692 97.9719L782.069 97.9384C791.858 97.9195 796.745 93.5043 796.727 84.6111C796.719 80.4502 795.489 77.1074 793.037 74.7461C790.585 72.3847 786.912 71.168 782.017 71.1775L764.641 71.211L764.692 97.9719Z" fill="white"/>
<path d="M875.987 69.5663L876.028 90.5345L917.144 90.4551L917.196 117.216L876.079 117.295L876.124 140.303L922.624 140.213L922.679 168.361L840.854 168.519L840.609 41.405L922.433 41.2471L922.488 69.395L875.987 69.4847L875.987 69.5663Z" fill="white"/>
<path d="M968.083 69.5092L968.124 90.4774L1009.24 90.398L1009.29 117.159L968.175 117.238L968.22 140.246L1014.72 140.156L1014.77 168.304L932.95 168.462L932.705 41.3479L1014.53 41.1899L1014.58 69.3379L968.083 69.4276L968.083 69.5092Z" fill="white"/>
<path d="M40.5367 65.0307C53.9485 68.5719 58.0172 76.6338 57.0377 85.6752C55.3801 86.1273 53.5717 86.504 51.6881 86.8054C39.1051 88.915 14.2406 79.4969 13.9392 79.3462C14.1652 79.4969 31.9471 91.2507 49.8797 91.6274C52.1402 91.6274 54.1745 91.6274 55.9075 91.3261C52.8183 101.422 45.2082 108.053 30.2895 104.135C14.768 100.066 0 75.2022 0 75.2022C0 75.2022 25.0152 60.8867 40.5367 64.9553V65.0307Z" fill="#ED8E5B"/>
<path d="M213.534 33.4612C180.456 -14.3829 73.4635 -13.328 59.7503 52.2974C54.7774 98.8605 58.5448 146.177 57.3392 193.042C57.6406 197.412 48.9003 203.063 51.1607 204.645C53.4212 206.227 78.5117 203.138 82.5805 203.364C91.6221 203.967 95.7662 204.946 104.657 204.117C106.541 203.967 111.062 204.946 110.836 202.61C110.836 202.309 108.726 200.049 108.5 199.747C106.993 197.186 103.226 191.987 102.472 189.576C100.814 184.226 101.116 169.157 101.643 162.678C101.643 161.924 82.1284 148.739 78.8885 136.533C78.8885 136.533 89.6631 147.383 111.89 153.486C146.249 163.054 192.512 153.335 215.041 117.245C229.959 93.2097 229.809 56.8934 213.609 33.4612H213.534ZM207.28 71.435C206.828 73.0926 205.17 74.7502 204.567 75.9557C202.533 80.401 202.458 104.436 198.992 105.566C195.375 106.696 197.183 91.8535 195.902 93.1343C180.306 108.881 185.731 116.567 181.511 118.45C178.422 119.806 176.463 111.518 172.62 113.553C169.682 115.135 165.387 119.656 162.674 120.334C159.51 121.163 155.14 120.334 151.674 120.635C151.372 120.635 151.071 120.786 150.77 120.786C150.317 120.861 149.865 121.012 149.413 121.163C141.125 124.402 139.166 140.3 133.289 140.752C128.165 141.129 127.111 124.553 122.966 124.553C121.309 124.553 119.274 125.382 117.541 125.457C109.63 126.06 105.637 131.636 102.321 126.211C96.4443 116.491 88.2315 120.334 82.9572 114.909C80.9228 112.799 80.1693 109.333 82.2791 107.751C82.5805 107.299 83.2586 106.998 84.5395 106.922C92.7523 106.244 96.2936 111.443 102.547 114.231C109.103 117.169 115.733 113.477 122.966 114.156C127.864 114.608 129.371 116.943 136.077 116.416C156.044 114.984 189.498 95.6207 194.546 74.9762C195.676 70.4555 196.053 66.2362 195.978 62.1676C195.224 33.7625 166.818 16.4332 138.337 16.2072C115.281 16.0565 85.519 27.3582 79.9433 52.3727C79.1898 55.6879 78.8884 58.7771 78.9638 61.6402C79.5666 81.9079 99.0061 92.2302 119.727 92.0042C137.358 91.7781 170.134 80.175 169.606 58.6264C169.606 57.1948 169.38 55.6879 169.079 54.181C163.88 31.1255 126.508 31.0501 111.438 43.6327C106.465 47.7767 103.904 53.5782 104.28 58.777C104.732 64.0512 108.123 68.7979 115.055 70.9076C121.61 72.8665 133.364 71.3597 138.563 66.6883C140.598 64.88 141.502 62.921 141.577 61.0374C141.803 55.4619 134.871 51.0165 129.672 55.5372C127.789 57.1948 124.473 62.3183 121.686 58.8524C120.932 57.9483 120.631 56.8934 120.631 55.7632C120.631 54.7084 120.932 53.5782 121.309 52.5234C126.432 40.5436 153.482 47.7767 154.009 59.9072C154.009 60.736 154.009 61.5648 153.783 62.3936C150.393 76.1064 125.754 81.6066 113.925 78.8188C102.246 76.031 94.636 67.6677 94.7113 58.0236C94.7113 53.6536 96.2936 48.9069 99.9103 44.3862C104.959 37.9065 116.487 30.598 124.85 29.3172C127.563 28.8651 130.652 29.5432 133.289 29.1665C135.097 28.8651 136.529 27.6596 138.789 27.4336C153.482 25.9267 178.949 38.886 180.607 55.1605C180.758 56.592 180.833 58.0236 180.833 59.3798C180.682 79.7983 162.75 93.059 144.365 98.9359C128.919 103.909 101.191 103.607 87.478 94.0385C75.1964 85.4491 69.9222 73.9967 70.0728 62.3183C70.2235 47.3246 79.1145 32.0296 93.2044 22.0841C99.3828 17.7141 113.322 11.9879 120.706 10.707C125.001 10.0289 130.275 10.7823 134.193 10.1796C141.125 9.12475 142.933 7.46716 150.845 8.44664C160.565 9.65216 163.428 11.0084 171.867 15.0016C176.614 17.262 181.36 17.7894 185.354 21.632C188.066 24.1937 190.628 26.6048 193.416 29.1665C197.334 32.6324 204.567 43.1806 204.944 48.3794C205.095 50.1124 204.417 51.8453 204.567 53.2015C205.095 57.7222 207.204 61.5648 207.506 66.2362C207.581 67.8184 207.506 69.4007 206.978 71.209L207.28 71.435Z" fill="#ED8E5B"/>
<path d="M185.655 21.9334C188.368 24.4952 190.929 26.9062 193.717 29.4679C197.635 32.9338 204.869 43.4821 205.245 48.6809C205.396 50.4892 204.718 52.1467 204.869 53.503C205.547 59.5305 209.163 64.3526 207.28 71.435C206.828 73.0926 205.17 74.7502 204.567 75.9557C202.533 80.4011 202.457 104.436 198.991 105.566C195.375 106.696 197.183 91.8535 195.902 93.1344C180.305 108.881 185.73 116.567 181.511 118.45C178.422 119.806 176.463 111.519 172.62 113.553C169.682 115.135 165.387 119.656 162.674 120.334C159.51 121.163 155.14 120.334 151.674 120.635C141.426 121.539 139.693 140.3 133.364 140.752C128.241 141.129 127.186 124.553 123.042 124.553C121.384 124.553 119.35 125.382 117.617 125.457C109.705 126.06 105.712 131.636 102.397 126.211C96.5195 116.491 88.3067 120.334 83.0324 114.909C80.3953 112.197 79.8678 107.375 84.6147 106.998C92.8275 106.32 96.3688 111.519 102.623 114.306C109.178 117.245 115.808 113.553 123.042 114.231C127.939 114.683 129.446 117.019 136.152 116.491C156.119 115.06 189.573 95.6961 194.621 75.0516C203.362 39.0367 170.962 16.4333 138.412 16.2072C115.356 16.0565 85.5942 27.3583 80.0185 52.3728C74.1415 78.8188 96.1428 92.3056 119.802 92.0796C138.639 91.8535 174.654 78.6682 169.154 54.1811C163.955 31.1255 126.583 31.0502 111.514 43.6328C101.568 51.9961 101.266 66.7637 115.13 70.983C121.685 72.9419 133.44 71.435 138.639 66.7637C146.776 59.4552 136.68 49.5097 129.823 55.5373C127.939 57.1949 124.624 62.3183 121.836 58.8524C120.329 56.9688 120.631 54.6331 121.459 52.5988C126.884 39.8655 157.249 48.8316 153.934 62.3937C150.619 75.9557 125.905 81.6066 114.075 78.8189C97.1223 74.7502 88.6834 59.0785 100.061 44.4616C105.109 37.9819 116.637 30.6734 125.001 29.3926C127.713 28.9405 130.802 29.6186 133.44 29.2419C135.248 28.9405 136.68 27.735 138.94 27.509C153.633 26.0021 179.1 38.9614 180.758 55.2359C183.169 77.9901 164.03 92.607 144.516 98.9359C129.069 103.909 101.342 103.607 87.6286 94.0385C59.5241 74.4488 68.3398 39.8655 93.355 22.1595C99.5334 17.7895 113.473 12.0632 120.857 10.7824C125.151 10.1043 130.426 10.8577 134.344 10.255C141.276 9.20014 143.084 7.54255 150.995 8.52203C160.715 9.72755 163.578 11.0838 172.017 15.077C176.764 17.3374 181.511 17.8648 185.504 21.7074L185.655 21.9334Z" fill="white"/>
</svg>
