<svg width="162" height="111" viewBox="0 0 162 111" fill="none" xmlns="http://www.w3.org/2000/svg">
<g filter="url(#filter0_d_511_2151)">
<rect x="1" y="1" width="159.214" height="109" rx="7" fill="#625543"/>
<rect x="1.5" y="1.5" width="158.214" height="108" rx="6.5" stroke="#727475"/>
</g>
<rect x="6.75464" y="29" width="148.664" height="25" rx="2" fill="#5F98E1"/>
<path d="M16.249 23.7296H29.249V10.7296H16.249V23.7296ZM41.5808 16.4396H40.1404C40.085 16.1318 39.9819 15.861 39.8311 15.6271C39.6803 15.3932 39.4957 15.1947 39.2772 15.0316C39.0587 14.8685 38.814 14.7454 38.5431 14.6623C38.2754 14.5792 37.9907 14.5376 37.6891 14.5376C37.1444 14.5376 36.6565 14.6746 36.2257 14.9485C35.7979 15.2224 35.4593 15.624 35.21 16.1534C34.9638 16.6827 34.8407 17.329 34.8407 18.0923C34.8407 18.8617 34.9638 19.5111 35.21 20.0405C35.4593 20.5698 35.7994 20.9699 36.2303 21.2407C36.6612 21.5116 37.1459 21.647 37.6845 21.647C37.983 21.647 38.2662 21.607 38.5339 21.527C38.8047 21.4439 39.0494 21.3223 39.2679 21.1623C39.4864 21.0022 39.6711 20.8068 39.8219 20.576C39.9758 20.3421 40.082 20.0743 40.1404 19.7727L41.5808 19.7773C41.5038 20.242 41.3546 20.6698 41.133 21.0607C40.9145 21.4485 40.6329 21.784 40.2882 22.0671C39.9466 22.3472 39.5557 22.5641 39.1156 22.718C38.6755 22.8719 38.1954 22.9488 37.6752 22.9488C36.8566 22.9488 36.1272 22.7549 35.487 22.3672C34.8469 21.9763 34.3422 21.4177 33.9728 20.6914C33.6066 19.9651 33.4235 19.0987 33.4235 18.0923C33.4235 17.0828 33.6081 16.2165 33.9775 15.4932C34.3468 14.7669 34.8515 14.2098 35.4917 13.8221C36.1318 13.4312 36.8597 13.2358 37.6752 13.2358C38.1769 13.2358 38.6447 13.3081 39.0787 13.4527C39.5157 13.5943 39.9081 13.8036 40.2559 14.0806C40.6036 14.3545 40.8914 14.69 41.1191 15.087C41.3469 15.4809 41.5008 15.9318 41.5808 16.4396ZM44.5573 13.365V22.8196H43.1769V13.365H44.5573ZM46.4142 22.8196V15.7287H47.7946V22.8196H46.4142ZM47.1113 14.6346C46.8713 14.6346 46.6651 14.5545 46.4927 14.3945C46.3234 14.2314 46.2388 14.0375 46.2388 13.8128C46.2388 13.5851 46.3234 13.3912 46.4927 13.2312C46.6651 13.068 46.8713 12.9865 47.1113 12.9865C47.3514 12.9865 47.556 13.068 47.7253 13.2312C47.8977 13.3912 47.9838 13.5851 47.9838 13.8128C47.9838 14.0375 47.8977 14.2314 47.7253 14.3945C47.556 14.5545 47.3514 14.6346 47.1113 14.6346ZM49.6515 25.4787V15.7287H50.9996V16.8782H51.115C51.195 16.7304 51.3104 16.5596 51.4612 16.3657C51.612 16.1719 51.8213 16.0026 52.089 15.8579C52.3568 15.7102 52.7107 15.6363 53.1508 15.6363C53.7233 15.6363 54.2342 15.781 54.6835 16.0703C55.1328 16.3596 55.4852 16.7766 55.7407 17.3214C55.9992 17.8661 56.1285 18.5216 56.1285 19.288C56.1285 20.0543 56.0007 20.7114 55.7453 21.2592C55.4899 21.804 55.139 22.2241 54.6927 22.5195C54.2465 22.8119 53.7371 22.9581 53.1647 22.9581C52.7338 22.9581 52.3814 22.8857 52.1075 22.7411C51.8367 22.5965 51.6243 22.4272 51.4704 22.2333C51.3166 22.0394 51.1981 21.867 51.115 21.7162H51.0319V25.4787H49.6515ZM51.0042 19.2741C51.0042 19.7727 51.0765 20.2097 51.2211 20.5852C51.3658 20.9607 51.5751 21.2546 51.849 21.467C52.1229 21.6762 52.4584 21.7809 52.8554 21.7809C53.2678 21.7809 53.6125 21.6716 53.8895 21.4531C54.1665 21.2315 54.3757 20.9314 54.5173 20.5529C54.662 20.1743 54.7343 19.7481 54.7343 19.2741C54.7343 18.8063 54.6635 18.3862 54.5219 18.0138C54.3834 17.6414 54.1742 17.3475 53.8941 17.1321C53.6171 16.9166 53.2709 16.8089 52.8554 16.8089C52.4553 16.8089 52.1167 16.912 51.8398 17.1182C51.5658 17.3244 51.3581 17.6122 51.2165 17.9815C51.075 18.3508 51.0042 18.7817 51.0042 19.2741ZM57.7858 22.8196V13.365H59.1661V16.8782H59.2492C59.3292 16.7304 59.4446 16.5596 59.5954 16.3657C59.7462 16.1719 59.9555 16.0026 60.2233 15.8579C60.491 15.7102 60.845 15.6363 61.2851 15.6363C61.8575 15.6363 62.3684 15.781 62.8177 16.0703C63.2671 16.3596 63.6195 16.7766 63.8749 17.3214C64.1334 17.8661 64.2627 18.5216 64.2627 19.288C64.2627 20.0543 64.135 20.7114 63.8795 21.2592C63.6241 21.804 63.2732 22.2241 62.827 22.5195C62.3807 22.8119 61.8714 22.9581 61.2989 22.9581C60.868 22.9581 60.5157 22.8857 60.2417 22.7411C59.9709 22.5965 59.7586 22.4272 59.6047 22.2333C59.4508 22.0394 59.3323 21.867 59.2492 21.7162H59.1338V22.8196H57.7858ZM59.1384 19.2741C59.1384 19.7727 59.2107 20.2097 59.3554 20.5852C59.5 20.9607 59.7093 21.2546 59.9832 21.467C60.2571 21.6762 60.5926 21.7809 60.9896 21.7809C61.402 21.7809 61.7467 21.6716 62.0237 21.4531C62.3007 21.2315 62.51 20.9314 62.6515 20.5529C62.7962 20.1743 62.8685 19.7481 62.8685 19.2741C62.8685 18.8063 62.7977 18.3862 62.6562 18.0138C62.5177 17.6414 62.3084 17.3475 62.0283 17.1321C61.7513 16.9166 61.4051 16.8089 60.9896 16.8089C60.5895 16.8089 60.251 16.912 59.974 17.1182C59.7001 17.3244 59.4923 17.6122 59.3508 17.9815C59.2092 18.3508 59.1384 18.7817 59.1384 19.2741ZM68.7995 22.9627C68.1348 22.9627 67.5546 22.8103 67.0591 22.5057C66.5636 22.201 66.1789 21.7747 65.905 21.2269C65.6311 20.6791 65.4941 20.0389 65.4941 19.3064C65.4941 18.5709 65.6311 17.9277 65.905 17.3768C66.1789 16.8259 66.5636 16.3981 67.0591 16.0934C67.5546 15.7887 68.1348 15.6363 68.7995 15.6363C69.4643 15.6363 70.0444 15.7887 70.54 16.0934C71.0355 16.3981 71.4202 16.8259 71.6941 17.3768C71.968 17.9277 72.1049 18.5709 72.1049 19.3064C72.1049 20.0389 71.968 20.6791 71.6941 21.2269C71.4202 21.7747 71.0355 22.201 70.54 22.5057C70.0444 22.8103 69.4643 22.9627 68.7995 22.9627ZM68.8042 21.804C69.235 21.804 69.592 21.6901 69.8752 21.4623C70.1583 21.2346 70.3676 20.9314 70.503 20.5529C70.6415 20.1743 70.7108 19.7573 70.7108 19.3018C70.7108 18.8494 70.6415 18.4339 70.503 18.0554C70.3676 17.6737 70.1583 17.3675 69.8752 17.1367C69.592 16.9059 69.235 16.7905 68.8042 16.7905C68.3702 16.7905 68.0101 16.9059 67.7239 17.1367C67.4408 17.3675 67.2299 17.6737 67.0914 18.0554C66.956 18.4339 66.8883 18.8494 66.8883 19.3018C66.8883 19.7573 66.956 20.1743 67.0914 20.5529C67.2299 20.9314 67.4408 21.2346 67.7239 21.4623C68.0101 21.6901 68.3702 21.804 68.8042 21.804ZM75.7093 22.9765C75.2599 22.9765 74.8537 22.8934 74.4905 22.7273C74.1273 22.558 73.8396 22.3133 73.6272 21.9932C73.4179 21.6732 73.3133 21.2808 73.3133 20.816C73.3133 20.4159 73.3902 20.0866 73.5441 19.8281C73.698 19.5696 73.9057 19.3649 74.1673 19.2141C74.4289 19.0633 74.7213 18.9494 75.0445 18.8725C75.3676 18.7956 75.6969 18.7371 76.0324 18.6971C76.4571 18.6478 76.8018 18.6078 77.0665 18.577C77.3312 18.5432 77.5235 18.4893 77.6436 18.4155C77.7636 18.3416 77.8236 18.2216 77.8236 18.0554V18.0231C77.8236 17.6199 77.7097 17.3075 77.482 17.0859C77.2573 16.8643 76.9218 16.7535 76.4756 16.7535C76.0109 16.7535 75.6446 16.8566 75.3769 17.0628C75.1122 17.266 74.9291 17.4922 74.8275 17.7415L73.5303 17.446C73.6842 17.0151 73.9088 16.6674 74.2043 16.4027C74.5028 16.1349 74.846 15.941 75.2338 15.821C75.6215 15.6979 76.0293 15.6363 76.4571 15.6363C76.7403 15.6363 77.0403 15.6702 77.3573 15.7379C77.6774 15.8025 77.9759 15.9226 78.2529 16.098C78.533 16.2734 78.7623 16.5242 78.9408 16.8505C79.1193 17.1736 79.2085 17.5937 79.2085 18.1108V22.8196H77.8605V21.8501H77.8051C77.7159 22.0286 77.582 22.204 77.4035 22.3764C77.225 22.5487 76.9957 22.6919 76.7156 22.8057C76.4356 22.9196 76.1001 22.9765 75.7093 22.9765ZM76.0093 21.8686C76.391 21.8686 76.7172 21.7932 76.988 21.6424C77.2619 21.4916 77.4697 21.2946 77.6112 21.0515C77.7559 20.8053 77.8282 20.5421 77.8282 20.2621V19.348C77.779 19.3972 77.6836 19.4434 77.542 19.4865C77.4035 19.5265 77.245 19.5619 77.0665 19.5927C76.888 19.6204 76.7141 19.6465 76.5448 19.6711C76.3756 19.6927 76.234 19.7112 76.1201 19.7265C75.8524 19.7604 75.6077 19.8173 75.3861 19.8973C75.1676 19.9774 74.9922 20.0928 74.8598 20.2436C74.7306 20.3913 74.6659 20.5883 74.6659 20.8345C74.6659 21.1761 74.7921 21.4346 75.0445 21.6101C75.2968 21.7824 75.6185 21.8686 76.0093 21.8686ZM81.0471 22.8196V15.7287H82.3812V16.8551H82.4551C82.5843 16.4735 82.8121 16.1734 83.1383 15.9549C83.4676 15.7333 83.84 15.6225 84.2555 15.6225C84.3417 15.6225 84.4432 15.6256 84.5602 15.6317C84.6802 15.6379 84.7741 15.6456 84.8418 15.6548V16.9751C84.7864 16.9597 84.6879 16.9428 84.5463 16.9243C84.4048 16.9028 84.2632 16.892 84.1216 16.892C83.7954 16.892 83.5046 16.9613 83.2491 17.0998C82.9967 17.2352 82.7967 17.4245 82.649 17.6676C82.5012 17.9076 82.4274 18.1816 82.4274 18.4893V22.8196H81.0471ZM88.4369 22.9581C87.8644 22.9581 87.3535 22.8119 86.9042 22.5195C86.4579 22.2241 86.1071 21.804 85.8517 21.2592C85.5993 20.7114 85.4731 20.0543 85.4731 19.288C85.4731 18.5216 85.6008 17.8661 85.8563 17.3214C86.1148 16.7766 86.4687 16.3596 86.9181 16.0703C87.3674 15.781 87.8767 15.6363 88.4461 15.6363C88.8862 15.6363 89.2401 15.7102 89.5079 15.8579C89.7787 16.0026 89.988 16.1719 90.1357 16.3657C90.2865 16.5596 90.4035 16.7304 90.4866 16.8782H90.5697V13.365H91.95V22.8196H90.602V21.7162H90.4866C90.4035 21.867 90.2835 22.0394 90.1265 22.2333C89.9726 22.4272 89.7603 22.5965 89.4894 22.7411C89.2186 22.8857 88.8677 22.9581 88.4369 22.9581ZM88.7416 21.7809C89.1386 21.7809 89.474 21.6762 89.748 21.467C90.0249 21.2546 90.2342 20.9607 90.3758 20.5852C90.5204 20.2097 90.5928 19.7727 90.5928 19.2741C90.5928 18.7817 90.522 18.3508 90.3804 17.9815C90.2388 17.6122 90.0311 17.3244 89.7572 17.1182C89.4833 16.912 89.1447 16.8089 88.7416 16.8089C88.3261 16.8089 87.9798 16.9166 87.7029 17.1321C87.4259 17.3475 87.2166 17.6414 87.075 18.0138C86.9365 18.3862 86.8673 18.8063 86.8673 19.2741C86.8673 19.7481 86.9381 20.1743 87.0796 20.5529C87.2212 20.9314 87.4305 21.2315 87.7075 21.4531C87.9875 21.6716 88.3322 21.7809 88.7416 21.7809ZM16.249 47.7296H29.249V34.7296H16.249V47.7296ZM38.8848 39.8487C38.8355 39.4117 38.6324 39.0731 38.2754 38.8331C37.9184 38.5899 37.469 38.4684 36.9274 38.4684C36.5396 38.4684 36.2041 38.5299 35.921 38.653C35.6378 38.7731 35.4178 38.9393 35.2608 39.1516C35.1069 39.3609 35.03 39.5994 35.03 39.8672C35.03 40.0918 35.0823 40.2857 35.187 40.4488C35.2947 40.612 35.4347 40.7489 35.6071 40.8597C35.7825 40.9674 35.9702 41.0582 36.1703 41.1321C36.3703 41.2029 36.5627 41.2613 36.7473 41.3075L37.6706 41.5476C37.9722 41.6214 38.2815 41.7215 38.5985 41.8476C38.9155 41.9738 39.2095 42.14 39.4803 42.3462C39.7511 42.5524 39.9696 42.8079 40.1358 43.1125C40.3051 43.4172 40.3897 43.7819 40.3897 44.2067C40.3897 44.7422 40.2512 45.2177 39.9743 45.6331C39.7003 46.0486 39.3018 46.3764 38.7786 46.6165C38.2585 46.8565 37.6291 46.9765 36.8904 46.9765C36.1826 46.9765 35.5701 46.8642 35.0531 46.6395C34.536 46.4149 34.1313 46.0963 33.839 45.6839C33.5466 45.2684 33.385 44.776 33.3542 44.2067H34.7853C34.813 44.5483 34.9238 44.833 35.1177 45.0607C35.3147 45.2854 35.5655 45.4531 35.8702 45.5639C36.178 45.6716 36.515 45.7255 36.8812 45.7255C37.2844 45.7255 37.6429 45.6624 37.9569 45.5362C38.2739 45.4069 38.5231 45.2284 38.7047 45.0007C38.8863 44.7699 38.9771 44.5006 38.9771 44.1928C38.9771 43.9127 38.8971 43.6835 38.737 43.5049C38.5801 43.3264 38.3662 43.1787 38.0953 43.0618C37.8276 42.9448 37.5244 42.8417 37.1859 42.7525L36.0687 42.4478C35.3116 42.2416 34.7115 41.9384 34.2683 41.5383C33.8282 41.1382 33.6081 40.6089 33.6081 39.9503C33.6081 39.4055 33.7559 38.93 34.0513 38.5238C34.3468 38.1175 34.7469 37.8021 35.2516 37.5774C35.7563 37.3496 36.3257 37.2358 36.9597 37.2358C37.5998 37.2358 38.1646 37.3481 38.6539 37.5728C39.1464 37.7974 39.5342 38.1067 39.8173 38.5007C40.1004 38.8915 40.2482 39.3409 40.2605 39.8487H38.8848ZM45.2936 39.7287V40.8366H41.4204V39.7287H45.2936ZM42.4591 38.0298H43.8394V44.7375C43.8394 45.0053 43.8794 45.2069 43.9594 45.3423C44.0394 45.4746 44.1425 45.5654 44.2687 45.6147C44.398 45.6608 44.538 45.6839 44.6888 45.6839C44.7996 45.6839 44.8966 45.6762 44.9797 45.6608C45.0628 45.6455 45.1274 45.6331 45.1736 45.6239L45.4229 46.7642C45.3428 46.795 45.229 46.8257 45.0812 46.8565C44.9335 46.8904 44.7488 46.9088 44.5273 46.9119C44.1641 46.9181 43.8256 46.8534 43.5116 46.718C43.1977 46.5826 42.9438 46.3733 42.7499 46.0902C42.556 45.807 42.4591 45.4516 42.4591 45.0238V38.0298ZM48.8841 46.9765C48.4347 46.9765 48.0285 46.8934 47.6653 46.7273C47.3021 46.558 47.0144 46.3133 46.802 45.9932C46.5927 45.6732 46.4881 45.2808 46.4881 44.816C46.4881 44.4159 46.565 44.0866 46.7189 43.8281C46.8728 43.5696 47.0806 43.3649 47.3422 43.2141C47.6038 43.0633 47.8961 42.9494 48.2193 42.8725C48.5424 42.7956 48.8717 42.7371 49.2072 42.6971C49.6319 42.6478 49.9766 42.6078 50.2413 42.577C50.506 42.5432 50.6983 42.4893 50.8184 42.4155C50.9384 42.3416 50.9984 42.2216 50.9984 42.0554V42.0231C50.9984 41.6199 50.8845 41.3075 50.6568 41.0859C50.4321 40.8643 50.0967 40.7535 49.6504 40.7535C49.1857 40.7535 48.8194 40.8566 48.5517 41.0628C48.287 41.266 48.1039 41.4922 48.0023 41.7415L46.7051 41.446C46.859 41.0151 47.0836 40.6674 47.3791 40.4027C47.6776 40.1349 48.0208 39.941 48.4086 39.821C48.7963 39.6979 49.2041 39.6363 49.6319 39.6363C49.9151 39.6363 50.2151 39.6702 50.5321 39.7379C50.8522 39.8025 51.1507 39.9226 51.4277 40.098C51.7078 40.2734 51.9371 40.5242 52.1156 40.8505C52.2941 41.1736 52.3833 41.5937 52.3833 42.1108V46.8196H51.0353V45.8501H50.9799C50.8907 46.0286 50.7568 46.204 50.5783 46.3764C50.3998 46.5487 50.1705 46.6919 49.8904 46.8057C49.6104 46.9196 49.2749 46.9765 48.8841 46.9765ZM49.1841 45.8686C49.5658 45.8686 49.892 45.7932 50.1628 45.6424C50.4367 45.4916 50.6445 45.2946 50.786 45.0515C50.9307 44.8053 51.003 44.5421 51.003 44.2621V43.348C50.9538 43.3972 50.8584 43.4434 50.7168 43.4865C50.5783 43.5265 50.4198 43.5619 50.2413 43.5927C50.0628 43.6204 49.8889 43.6465 49.7196 43.6711C49.5504 43.6927 49.4088 43.7112 49.2949 43.7265C49.0272 43.7604 48.7825 43.8173 48.5609 43.8973C48.3424 43.9774 48.167 44.0928 48.0346 44.2436C47.9054 44.3913 47.8407 44.5883 47.8407 44.8345C47.8407 45.1761 47.9669 45.4346 48.2193 45.6101C48.4717 45.7824 48.7933 45.8686 49.1841 45.8686ZM54.2219 46.8196V39.7287H55.556V40.8551H55.6299C55.7591 40.4735 55.9869 40.1734 56.3131 39.9549C56.6424 39.7333 57.0148 39.6225 57.4303 39.6225C57.5165 39.6225 57.618 39.6256 57.735 39.6317C57.855 39.6379 57.9489 39.6456 58.0166 39.6548V40.9751C57.9612 40.9597 57.8627 40.9428 57.7211 40.9243C57.5796 40.9028 57.438 40.892 57.2964 40.892C56.9702 40.892 56.6794 40.9613 56.4239 41.0998C56.1715 41.2352 55.9715 41.4245 55.8238 41.6676C55.676 41.9076 55.6022 42.1816 55.6022 42.4893V46.8196H54.2219ZM59.2111 46.8196V39.7287H60.5453V40.8551H60.6191C60.7484 40.4735 60.9761 40.1734 61.3024 39.9549C61.6317 39.7333 62.0041 39.6225 62.4196 39.6225C62.5057 39.6225 62.6073 39.6256 62.7243 39.6317C62.8443 39.6379 62.9382 39.6456 63.0059 39.6548V40.9751C62.9505 40.9597 62.852 40.9428 62.7104 40.9243C62.5688 40.9028 62.4273 40.892 62.2857 40.892C61.9595 40.892 61.6686 40.9613 61.4132 41.0998C61.1608 41.2352 60.9608 41.4245 60.813 41.6676C60.6653 41.9076 60.5914 42.1816 60.5914 42.4893V46.8196H59.2111ZM67.0026 46.9627C66.3039 46.9627 65.7023 46.8134 65.1975 46.5149C64.6959 46.2133 64.3081 45.7901 64.0342 45.2454C63.7633 44.6975 63.6279 44.0558 63.6279 43.3203C63.6279 42.594 63.7633 41.9538 64.0342 41.3998C64.3081 40.8459 64.6897 40.4134 65.1791 40.1026C65.6715 39.7918 66.247 39.6363 66.9056 39.6363C67.3057 39.6363 67.6935 39.7025 68.069 39.8348C68.4445 39.9672 68.7815 40.1749 69.08 40.4581C69.3785 40.7412 69.614 41.109 69.7863 41.5614C69.9587 42.0107 70.0448 42.557 70.0448 43.2003V43.6896H64.4081V42.6555H68.6922C68.6922 42.2924 68.6183 41.9707 68.4706 41.6907C68.3229 41.4075 68.1151 41.1844 67.8474 41.0213C67.5827 40.8582 67.2719 40.7766 66.9149 40.7766C66.5271 40.7766 66.1885 40.872 65.8992 41.0628C65.613 41.2506 65.3914 41.4968 65.2345 41.8015C65.0806 42.1031 65.0036 42.4308 65.0036 42.7848V43.5927C65.0036 44.0666 65.0867 44.4698 65.2529 44.8022C65.4222 45.1346 65.6576 45.3885 65.9593 45.5639C66.2609 45.7362 66.6133 45.8224 67.0164 45.8224C67.278 45.8224 67.5165 45.7855 67.732 45.7116C67.9474 45.6347 68.1336 45.5208 68.2906 45.37C68.4475 45.2192 68.5676 45.033 68.6507 44.8114L69.9571 45.0469C69.8525 45.4316 69.6647 45.7686 69.3939 46.0579C69.1262 46.3441 68.7892 46.5672 68.3829 46.7273C67.9797 46.8842 67.5196 46.9627 67.0026 46.9627ZM74.2308 46.9581C73.6584 46.9581 73.1475 46.8119 72.6982 46.5195C72.2519 46.2241 71.901 45.804 71.6456 45.2592C71.3932 44.7114 71.267 44.0543 71.267 43.288C71.267 42.5216 71.3948 41.8661 71.6502 41.3214C71.9087 40.7766 72.2627 40.3596 72.712 40.0703C73.1613 39.781 73.6707 39.6363 74.2401 39.6363C74.6802 39.6363 75.0341 39.7102 75.3018 39.8579C75.5727 40.0026 75.782 40.1719 75.9297 40.3657C76.0805 40.5596 76.1974 40.7304 76.2805 40.8782H76.3636V37.365H77.744V46.8196H76.396V45.7162H76.2805C76.1974 45.867 76.0774 46.0394 75.9205 46.2333C75.7666 46.4272 75.5542 46.5965 75.2834 46.7411C75.0125 46.8857 74.6617 46.9581 74.2308 46.9581ZM74.5355 45.7809C74.9325 45.7809 75.268 45.6762 75.5419 45.467C75.8189 45.2546 76.0282 44.9607 76.1697 44.5852C76.3144 44.2097 76.3867 43.7727 76.3867 43.2741C76.3867 42.7817 76.3159 42.3508 76.1744 41.9815C76.0328 41.6122 75.825 41.3244 75.5511 41.1182C75.2772 40.912 74.9387 40.8089 74.5355 40.8089C74.12 40.8089 73.7738 40.9166 73.4968 41.1321C73.2198 41.3475 73.0105 41.6414 72.869 42.0138C72.7305 42.3862 72.6612 42.8063 72.6612 43.2741C72.6612 43.7481 72.732 44.1743 72.8736 44.5529C73.0152 44.9314 73.2244 45.2315 73.5014 45.4531C73.7815 45.6716 74.1262 45.7809 74.5355 45.7809ZM16.249 71.7296H29.249V58.7296H16.249V71.7296ZM33.7282 70.8196V61.365H35.1547V69.5916H39.4387V70.8196H33.7282ZM40.9553 70.8196V63.7287H42.3356V70.8196H40.9553ZM41.6523 62.6346C41.4123 62.6346 41.2061 62.5545 41.0337 62.3945C40.8645 62.2314 40.7798 62.0375 40.7798 61.8128C40.7798 61.5851 40.8645 61.3912 41.0337 61.2312C41.2061 61.068 41.4123 60.9865 41.6523 60.9865C41.8924 60.9865 42.0971 61.068 42.2663 61.2312C42.4387 61.3912 42.5249 61.5851 42.5249 61.8128C42.5249 62.0375 42.4387 62.2314 42.2663 62.3945C42.0971 62.5545 41.8924 62.6346 41.6523 62.6346ZM49.5061 65.4598L48.2551 65.6814C48.2027 65.5214 48.1196 65.3691 48.0058 65.2244C47.895 65.0798 47.7442 64.9613 47.5534 64.8689C47.3625 64.7766 47.124 64.7304 46.8378 64.7304C46.4469 64.7304 46.1207 64.8182 45.8591 64.9936C45.5975 65.1659 45.4667 65.3891 45.4667 65.663C45.4667 65.9 45.5544 66.0908 45.7298 66.2354C45.9053 66.3801 46.1884 66.4986 46.5793 66.5909L47.7057 66.8494C48.3582 67.0002 48.8444 67.2326 49.1645 67.5465C49.4846 67.8604 49.6446 68.2682 49.6446 68.7699C49.6446 69.1946 49.5215 69.5731 49.2753 69.9055C49.0322 70.2348 48.6921 70.4933 48.2551 70.6811C47.8211 70.8688 47.3179 70.9627 46.7455 70.9627C45.9514 70.9627 45.3036 70.7934 44.8019 70.4549C44.3003 70.1133 43.9925 69.6285 43.8786 69.0007L45.2128 68.7976C45.2959 69.1453 45.4667 69.4085 45.7252 69.587C45.9838 69.7624 46.3208 69.8501 46.7362 69.8501C47.1887 69.8501 47.5503 69.7563 47.8211 69.5685C48.0919 69.3777 48.2274 69.1453 48.2274 68.8714C48.2274 68.6498 48.1443 68.4636 47.9781 68.3128C47.815 68.162 47.5641 68.0482 47.2256 67.9712L46.0253 67.7081C45.3636 67.5573 44.8743 67.3172 44.5573 66.9879C44.2433 66.6586 44.0864 66.2416 44.0864 65.7368C44.0864 65.3183 44.2033 64.952 44.4372 64.6381C44.6711 64.3242 44.9943 64.0795 45.4067 63.9041C45.8191 63.7256 46.2915 63.6363 46.824 63.6363C47.5903 63.6363 48.1935 63.8025 48.6336 64.1349C49.0737 64.4642 49.3646 64.9059 49.5061 65.4598ZM54.4723 63.7287V64.8366H50.5991V63.7287H54.4723ZM51.6378 62.0298H53.0181V68.7375C53.0181 69.0053 53.0581 69.2069 53.1381 69.3423C53.2182 69.4746 53.3213 69.5654 53.4474 69.6147C53.5767 69.6608 53.7167 69.6839 53.8675 69.6839C53.9783 69.6839 54.0753 69.6762 54.1584 69.6608C54.2415 69.6455 54.3061 69.6331 54.3523 69.6239L54.6016 70.7642C54.5215 70.795 54.4077 70.8257 54.2599 70.8565C54.1122 70.8904 53.9276 70.9088 53.706 70.9119C53.3428 70.9181 53.0043 70.8534 52.6903 70.718C52.3764 70.5826 52.1225 70.3733 51.9286 70.0902C51.7347 69.807 51.6378 69.4516 51.6378 69.0238V62.0298ZM61.1985 65.4598L59.9474 65.6814C59.8951 65.5214 59.812 65.3691 59.6982 65.2244C59.5874 65.0798 59.4366 64.9613 59.2457 64.8689C59.0549 64.7766 58.8164 64.7304 58.5302 64.7304C58.1393 64.7304 57.8131 64.8182 57.5515 64.9936C57.2899 65.1659 57.1591 65.3891 57.1591 65.663C57.1591 65.9 57.2468 66.0908 57.4222 66.2354C57.5977 66.3801 57.8808 66.4986 58.2717 66.5909L59.3981 66.8494C60.0505 67.0002 60.5368 67.2326 60.8569 67.5465C61.177 67.8604 61.337 68.2682 61.337 68.7699C61.337 69.1946 61.2139 69.5731 60.9677 69.9055C60.7246 70.2348 60.3845 70.4933 59.9474 70.6811C59.5135 70.8688 59.0103 70.9627 58.4379 70.9627C57.6438 70.9627 56.996 70.7934 56.4943 70.4549C55.9927 70.1133 55.6849 69.6285 55.571 69.0007L56.9052 68.7976C56.9883 69.1453 57.1591 69.4085 57.4176 69.587C57.6761 69.7624 58.0131 69.8501 58.4286 69.8501C58.881 69.8501 59.2427 69.7563 59.5135 69.5685C59.7843 69.3777 59.9197 69.1453 59.9197 68.8714C59.9197 68.6498 59.8366 68.4636 59.6705 68.3128C59.5073 68.162 59.2565 68.0482 58.918 67.9712L57.7177 67.7081C57.056 67.5573 56.5666 67.3172 56.2496 66.9879C55.9357 66.6586 55.7788 66.2416 55.7788 65.7368C55.7788 65.3183 55.8957 64.952 56.1296 64.6381C56.3635 64.3242 56.6867 64.0795 57.0991 63.9041C57.5115 63.7256 57.9839 63.6363 58.5163 63.6363C59.2827 63.6363 59.8859 63.8025 60.326 64.1349C60.7661 64.4642 61.0569 64.9059 61.1985 65.4598ZM16.249 99.7296H29.249V86.7296H16.249V99.7296ZM41.9409 94.0923C41.9409 95.1018 41.7562 95.9697 41.3869 96.696C41.0176 97.4192 40.5113 97.9763 39.8681 98.3672C39.2279 98.7549 38.5001 98.9488 37.6845 98.9488C36.8658 98.9488 36.1349 98.7549 35.4917 98.3672C34.8515 97.9763 34.3468 97.4177 33.9775 96.6914C33.6081 95.9651 33.4235 95.0987 33.4235 94.0923C33.4235 93.0828 33.6081 92.2165 33.9775 91.4932C34.3468 90.7669 34.8515 90.2098 35.4917 89.8221C36.1349 89.4312 36.8658 89.2358 37.6845 89.2358C38.5001 89.2358 39.2279 89.4312 39.8681 89.8221C40.5113 90.2098 41.0176 90.7669 41.3869 91.4932C41.7562 92.2165 41.9409 93.0828 41.9409 94.0923ZM40.5282 94.0923C40.5282 93.3229 40.4036 92.675 40.1543 92.1488C39.9081 91.6194 39.5695 91.2193 39.1387 90.9485C38.7109 90.6746 38.2261 90.5376 37.6845 90.5376C37.1397 90.5376 36.6535 90.6746 36.2257 90.9485C35.7979 91.2193 35.4593 91.6194 35.21 92.1488C34.9638 92.675 34.8407 93.3229 34.8407 94.0923C34.8407 94.8617 34.9638 95.5111 35.21 96.0405C35.4593 96.5667 35.7979 96.9668 36.2257 97.2407C36.6535 97.5116 37.1397 97.647 37.6845 97.647C38.2261 97.647 38.7109 97.5116 39.1387 97.2407C39.5695 96.9668 39.9081 96.5667 40.1543 96.0405C40.4036 95.5111 40.5282 94.8617 40.5282 94.0923ZM43.6086 101.479V91.7287H44.9566V92.8782H45.072C45.152 92.7304 45.2674 92.5596 45.4182 92.3657C45.569 92.1719 45.7783 92.0026 46.0461 91.8579C46.3138 91.7102 46.6678 91.6363 47.1079 91.6363C47.6803 91.6363 48.1912 91.781 48.6405 92.0703C49.0899 92.3596 49.4423 92.7766 49.6977 93.3214C49.9562 93.8661 50.0855 94.5216 50.0855 95.288C50.0855 96.0543 49.9578 96.7114 49.7023 97.2592C49.4469 97.804 49.096 98.2241 48.6498 98.5195C48.2035 98.8119 47.6942 98.9581 47.1217 98.9581C46.6908 98.9581 46.3385 98.8857 46.0645 98.7411C45.7937 98.5965 45.5814 98.4272 45.4275 98.2333C45.2736 98.0394 45.1551 97.867 45.072 97.7162H44.9889V101.479H43.6086ZM44.9612 95.2741C44.9612 95.7727 45.0335 96.2097 45.1782 96.5852C45.3228 96.9607 45.5321 97.2546 45.806 97.467C46.0799 97.6762 46.4154 97.7809 46.8124 97.7809C47.2248 97.7809 47.5695 97.6716 47.8465 97.4531C48.1235 97.2315 48.3328 96.9314 48.4743 96.5529C48.619 96.1743 48.6913 95.7481 48.6913 95.2741C48.6913 94.8063 48.6205 94.3862 48.479 94.0138C48.3405 93.6414 48.1312 93.3475 47.8511 93.1321C47.5741 92.9166 47.2279 92.8089 46.8124 92.8089C46.4123 92.8089 46.0738 92.912 45.7968 93.1182C45.5229 93.3244 45.3151 93.6122 45.1736 93.9815C45.032 94.3508 44.9612 94.7817 44.9612 95.2741ZM54.6881 98.9627C53.9895 98.9627 53.3878 98.8134 52.8831 98.5149C52.3814 98.2133 51.9936 97.7901 51.7197 97.2454C51.4489 96.6975 51.3135 96.0558 51.3135 95.3203C51.3135 94.594 51.4489 93.9538 51.7197 93.3998C51.9936 92.8459 52.3753 92.4134 52.8646 92.1026C53.357 91.7918 53.9326 91.6363 54.5912 91.6363C54.9913 91.6363 55.3791 91.7025 55.7545 91.8348C56.13 91.9672 56.467 92.1749 56.7655 92.4581C57.0641 92.7412 57.2995 93.109 57.4719 93.5614C57.6442 94.0107 57.7304 94.557 57.7304 95.2003V95.6896H52.0937V94.6555H56.3778C56.3778 94.2924 56.3039 93.9707 56.1562 93.6907C56.0084 93.4075 55.8007 93.1844 55.5329 93.0213C55.2683 92.8582 54.9574 92.7766 54.6004 92.7766C54.2126 92.7766 53.8741 92.872 53.5848 93.0628C53.2986 93.2506 53.077 93.4968 52.92 93.8015C52.7661 94.1031 52.6892 94.4308 52.6892 94.7848V95.5927C52.6892 96.0666 52.7723 96.4698 52.9385 96.8022C53.1077 97.1346 53.3432 97.3885 53.6448 97.5639C53.9464 97.7362 54.2988 97.8224 54.702 97.8224C54.9636 97.8224 55.2021 97.7855 55.4175 97.7116C55.633 97.6347 55.8192 97.5208 55.9761 97.37C56.1331 97.2192 56.2531 97.033 56.3362 96.8114L57.6427 97.0469C57.538 97.4316 57.3503 97.7686 57.0795 98.0579C56.8117 98.3441 56.4747 98.5672 56.0684 98.7273C55.6653 98.8842 55.2052 98.9627 54.6881 98.9627ZM60.6422 94.6094V98.8196H59.2619V91.7287H60.5868V92.8828H60.6745C60.8377 92.5073 61.0931 92.2057 61.4409 91.978C61.7917 91.7502 62.2334 91.6363 62.7658 91.6363C63.249 91.6363 63.6722 91.7379 64.0353 91.941C64.3985 92.1411 64.6801 92.4396 64.8801 92.8366C65.0802 93.2336 65.1802 93.7245 65.1802 94.3093V98.8196H63.7999V94.4755C63.7999 93.9615 63.666 93.5599 63.3983 93.2706C63.1305 92.9782 62.7627 92.832 62.2949 92.832C61.9748 92.832 61.6902 92.9013 61.4409 93.0398C61.1947 93.1782 60.9992 93.3814 60.8546 93.6491C60.713 93.9138 60.6422 94.2339 60.6422 94.6094ZM70.5827 98.8196V89.365H73.9527C74.6882 89.365 75.2976 89.4989 75.7808 89.7667C76.264 90.0344 76.6256 90.4007 76.8657 90.8654C77.1057 91.327 77.2258 91.8472 77.2258 92.4258C77.2258 93.0074 77.1042 93.5306 76.8611 93.9954C76.621 94.457 76.2578 94.8232 75.7716 95.0941C75.2884 95.3618 74.6805 95.4957 73.9481 95.4957H71.6306V94.2862H73.8188C74.2835 94.2862 74.6605 94.2062 74.9498 94.0461C75.2391 93.883 75.4515 93.6614 75.5869 93.3814C75.7223 93.1013 75.79 92.7828 75.79 92.4258C75.79 92.0688 75.7223 91.7518 75.5869 91.4748C75.4515 91.1978 75.2376 90.9808 74.9452 90.8238C74.6559 90.6669 74.2743 90.5884 73.8003 90.5884H72.0091V98.8196H70.5827ZM80.7874 98.9765C80.338 98.9765 79.9318 98.8934 79.5686 98.7273C79.2055 98.558 78.9177 98.3133 78.7053 97.9932C78.4961 97.6732 78.3914 97.2808 78.3914 96.816C78.3914 96.4159 78.4684 96.0866 78.6222 95.8281C78.7761 95.5696 78.9839 95.3649 79.2455 95.2141C79.5071 95.0633 79.7994 94.9494 80.1226 94.8725C80.4458 94.7956 80.7751 94.7371 81.1105 94.6971C81.5352 94.6478 81.8799 94.6078 82.1446 94.577C82.4093 94.5432 82.6017 94.4893 82.7217 94.4155C82.8417 94.3416 82.9017 94.2216 82.9017 94.0554V94.0231C82.9017 93.6199 82.7878 93.3075 82.5601 93.0859C82.3354 92.8643 82 92.7535 81.5537 92.7535C81.089 92.7535 80.7227 92.8566 80.455 93.0628C80.1903 93.266 80.0072 93.4922 79.9056 93.7415L78.6084 93.446C78.7623 93.0151 78.9869 92.6674 79.2824 92.4027C79.5809 92.1349 79.9241 91.941 80.3119 91.821C80.6997 91.6979 81.1075 91.6363 81.5352 91.6363C81.8184 91.6363 82.1185 91.6702 82.4355 91.7379C82.7555 91.8025 83.0541 91.9226 83.3311 92.098C83.6111 92.2734 83.8404 92.5242 84.0189 92.8505C84.1974 93.1736 84.2867 93.5937 84.2867 94.1108V98.8196H82.9387V97.8501H82.8833C82.794 98.0286 82.6601 98.204 82.4816 98.3764C82.3031 98.5487 82.0738 98.6919 81.7938 98.8057C81.5137 98.9196 81.1782 98.9765 80.7874 98.9765ZM81.0874 97.8686C81.4691 97.8686 81.7953 97.7932 82.0661 97.6424C82.3401 97.4916 82.5478 97.2946 82.6894 97.0515C82.834 96.8053 82.9063 96.5421 82.9063 96.2621V95.348C82.8571 95.3972 82.7617 95.4434 82.6201 95.4865C82.4816 95.5265 82.3231 95.5619 82.1446 95.5927C81.9661 95.6204 81.7922 95.6465 81.623 95.6711C81.4537 95.6927 81.3121 95.7112 81.1982 95.7265C80.9305 95.7604 80.6858 95.8173 80.4642 95.8973C80.2457 95.9774 80.0703 96.0928 79.9379 96.2436C79.8087 96.3913 79.7441 96.5883 79.7441 96.8345C79.7441 97.1761 79.8702 97.4346 80.1226 97.6101C80.375 97.7824 80.6966 97.8686 81.0874 97.8686ZM91.4387 93.4598L90.1877 93.6814C90.1354 93.5214 90.0523 93.3691 89.9384 93.2244C89.8276 93.0798 89.6768 92.9613 89.486 92.8689C89.2952 92.7766 89.0566 92.7304 88.7704 92.7304C88.3796 92.7304 88.0533 92.8182 87.7917 92.9936C87.5301 93.1659 87.3993 93.3891 87.3993 93.663C87.3993 93.9 87.487 94.0908 87.6625 94.2354C87.8379 94.3801 88.121 94.4986 88.5119 94.5909L89.6383 94.8494C90.2908 95.0002 90.777 95.2326 91.0971 95.5465C91.4172 95.8604 91.5772 96.2682 91.5772 96.7699C91.5772 97.1946 91.4541 97.5731 91.2079 97.9055C90.9648 98.2348 90.6247 98.4933 90.1877 98.6811C89.7537 98.8688 89.2505 98.9627 88.6781 98.9627C87.8841 98.9627 87.2362 98.7934 86.7346 98.4549C86.2329 98.1133 85.9251 97.6285 85.8113 97.0007L87.1454 96.7976C87.2285 97.1453 87.3993 97.4085 87.6578 97.587C87.9164 97.7624 88.2534 97.8501 88.6689 97.8501C89.1213 97.8501 89.4829 97.7563 89.7537 97.5685C90.0246 97.3777 90.16 97.1453 90.16 96.8714C90.16 96.6498 90.0769 96.4636 89.9107 96.3128C89.7476 96.162 89.4967 96.0482 89.1582 95.9712L87.9579 95.7081C87.2962 95.5573 86.8069 95.3172 86.4899 94.9879C86.176 94.6586 86.019 94.2416 86.019 93.7368C86.019 93.3183 86.1359 92.952 86.3699 92.6381C86.6038 92.3242 86.9269 92.0795 87.3393 91.9041C87.7517 91.7256 88.2241 91.6363 88.7566 91.6363C89.5229 91.6363 90.1261 91.8025 90.5662 92.1349C91.0063 92.4642 91.2972 92.9059 91.4387 93.4598ZM96.4049 91.7287V92.8366H92.5317V91.7287H96.4049ZM93.5704 90.0298H94.9507V96.7375C94.9507 97.0053 94.9907 97.2069 95.0708 97.3423C95.1508 97.4746 95.2539 97.5654 95.3801 97.6147C95.5093 97.6608 95.6494 97.6839 95.8002 97.6839C95.911 97.6839 96.0079 97.6762 96.091 97.6608C96.1741 97.6455 96.2387 97.6331 96.2849 97.6239L96.5342 98.7642C96.4542 98.795 96.3403 98.8257 96.1926 98.8565C96.0448 98.8904 95.8602 98.9088 95.6386 98.9119C95.2754 98.9181 94.9369 98.8534 94.623 98.718C94.309 98.5826 94.0551 98.3733 93.8612 98.0902C93.6673 97.807 93.5704 97.4516 93.5704 97.0238V90.0298ZM97.9318 98.8196V91.7287H99.266V92.8551H99.3398C99.4691 92.4735 99.6969 92.1734 100.023 91.9549C100.352 91.7333 100.725 91.6225 101.14 91.6225C101.226 91.6225 101.328 91.6256 101.445 91.6317C101.565 91.6379 101.659 91.6456 101.727 91.6548V92.9751C101.671 92.9597 101.573 92.9428 101.431 92.9243C101.29 92.9028 101.148 92.892 101.006 92.892C100.68 92.892 100.389 92.9613 100.134 93.0998C99.8815 93.2352 99.6815 93.4245 99.5337 93.6676C99.386 93.9076 99.3121 94.1816 99.3121 94.4893V98.8196H97.9318ZM105.723 98.9627C105.025 98.9627 104.423 98.8134 103.918 98.5149C103.417 98.2133 103.029 97.7901 102.755 97.2454C102.484 96.6975 102.349 96.0558 102.349 95.3203C102.349 94.594 102.484 93.9538 102.755 93.3998C103.029 92.8459 103.41 92.4134 103.9 92.1026C104.392 91.7918 104.968 91.6363 105.626 91.6363C106.026 91.6363 106.414 91.7025 106.79 91.8348C107.165 91.9672 107.502 92.1749 107.801 92.4581C108.099 92.7412 108.335 93.109 108.507 93.5614C108.679 94.0107 108.766 94.557 108.766 95.2003V95.6896H103.129V94.6555H107.413C107.413 94.2924 107.339 93.9707 107.191 93.6907C107.044 93.4075 106.836 93.1844 106.568 93.0213C106.303 92.8582 105.993 92.7766 105.636 92.7766C105.248 92.7766 104.909 92.872 104.62 93.0628C104.334 93.2506 104.112 93.4968 103.955 93.8015C103.801 94.1031 103.724 94.4308 103.724 94.7848V95.5927C103.724 96.0666 103.807 96.4698 103.974 96.8022C104.143 97.1346 104.378 97.3885 104.68 97.5639C104.982 97.7362 105.334 97.8224 105.737 97.8224C105.999 97.8224 106.237 97.7855 106.453 97.7116C106.668 97.6347 106.854 97.5208 107.011 97.37C107.168 97.2192 107.288 97.033 107.371 96.8114L108.678 97.0469C108.573 97.4316 108.385 97.7686 108.115 98.0579C107.847 98.3441 107.51 98.5672 107.104 98.7273C106.7 98.8842 106.24 98.9627 105.723 98.9627ZM113.353 98.9627C112.655 98.9627 112.053 98.8134 111.548 98.5149C111.046 98.2133 110.659 97.7901 110.385 97.2454C110.114 96.6975 109.979 96.0558 109.979 95.3203C109.979 94.594 110.114 93.9538 110.385 93.3998C110.659 92.8459 111.04 92.4134 111.53 92.1026C112.022 91.7918 112.598 91.6363 113.256 91.6363C113.656 91.6363 114.044 91.7025 114.42 91.8348C114.795 91.9672 115.132 92.1749 115.431 92.4581C115.729 92.7412 115.965 93.109 116.137 93.5614C116.309 94.0107 116.395 94.557 116.395 95.2003V95.6896H110.759V94.6555H115.043C115.043 94.2924 114.969 93.9707 114.821 93.6907C114.673 93.4075 114.466 93.1844 114.198 93.0213C113.933 92.8582 113.622 92.7766 113.265 92.7766C112.878 92.7766 112.539 92.872 112.25 93.0628C111.964 93.2506 111.742 93.4968 111.585 93.8015C111.431 94.1031 111.354 94.4308 111.354 94.7848V95.5927C111.354 96.0666 111.437 96.4698 111.604 96.8022C111.773 97.1346 112.008 97.3885 112.31 97.5639C112.611 97.7362 112.964 97.8224 113.367 97.8224C113.629 97.8224 113.867 97.7855 114.083 97.7116C114.298 97.6347 114.484 97.5208 114.641 97.37C114.798 97.2192 114.918 97.033 115.001 96.8114L116.308 97.0469C116.203 97.4316 116.015 97.7686 115.744 98.0579C115.477 98.3441 115.14 98.5672 114.733 98.7273C114.33 98.8842 113.87 98.9627 113.353 98.9627Z" fill="white"/>
<line x1="144.868" y1="80.5" x2="16.3459" y2="80.5" stroke="white" stroke-opacity="0.15"/>
<path d="M142.06 39L145.322 42.9535V43.2092L142.06 47.1627L140.864 46.4349L143.566 43.0715L140.864 39.7081L142.06 39Z" fill="white"/>
<path d="M142.06 15L145.322 18.9535V19.2092L142.06 23.1627L140.864 22.4349L143.566 19.0715L140.864 15.7081L142.06 15Z" fill="white"/>
<path d="M142.112 63L145.373 66.9535V67.2092L142.112 71.1627L140.915 70.4349L143.617 67.0715L140.915 63.7081L142.112 63Z" fill="white"/>
<defs>
<filter id="filter0_d_511_2151" x="0" y="0" width="161.214" height="111" filterUnits="userSpaceOnUse" color-interpolation-filters="sRGB">
<feFlood flood-opacity="0" result="BackgroundImageFix"/>
<feColorMatrix in="SourceAlpha" type="matrix" values="0 0 0 0 0 0 0 0 0 0 0 0 0 0 0 0 0 0 127 0" result="hardAlpha"/>
<feMorphology radius="1" operator="dilate" in="SourceAlpha" result="effect1_dropShadow_511_2151"/>
<feOffset/>
<feComposite in2="hardAlpha" operator="out"/>
<feColorMatrix type="matrix" values="0 0 0 0 0 0 0 0 0 0 0 0 0 0 0 0 0 0 1 0"/>
<feBlend mode="normal" in2="BackgroundImageFix" result="effect1_dropShadow_511_2151"/>
<feBlend mode="normal" in="SourceGraphic" in2="effect1_dropShadow_511_2151" result="shape"/>
</filter>
</defs>
</svg>
