<?xml version="1.0" encoding="UTF-8"?><svg id="Layer_2" xmlns="http://www.w3.org/2000/svg" viewBox="0 0 134.71 27.22"><defs><style>.cls-1{fill:#ed8e5b;}.cls-2{fill:#fff;}</style></defs><g id="Layer_1-2"><path class="cls-1" d="M28.53,15.56c-2.98,4.79-8.46,5.6-13.69,4.81-.28-.04-1.06-.32-1.26-.18-.07.05-.09.3-.1.39-.07.86-.11,3.86.11,4.57.1.32.59,1.01.8,1.35.03.04.3.34.31.38.04.31-.57.18-.82.2-1.18.11-1.73-.02-2.93-.1-.54-.04-3.87.38-4.17.17s.86-.96.82-1.54c.16-6.22-.34-12.5.32-18.68C9.74-1.77,23.95-1.91,28.34,4.44c2.15,3.1,2.17,7.93.19,11.12ZM24.63,2.9c-.54-.5-1.17-.58-1.79-.88-1.12-.54-1.49-.71-2.79-.87-1.05-.13-1.3.08-2.21.23-.52.08-1.23-.03-1.79.07-.99.16-2.83.92-3.65,1.51-3.32,2.35-4.49,6.94-.76,9.54,1.82,1.27,5.5,1.31,7.55.65,2.6-.84,5.13-2.78,4.81-5.8-.23-2.16-3.6-3.88-5.55-3.68-.3.03-.48.2-.73.23-.35.05-.76-.04-1.12.02-1.11.17-2.64,1.14-3.31,2-1.5,1.94-.38,4.02,1.86,4.56,1.57.38,4.84-.36,5.29-2.18s-3.58-2.99-4.31-1.3c-.12.27-.15.58.05.83.38.46.81-.22,1.06-.44.91-.8,2.26.52,1.17,1.49-.69.62-2.25.82-3.12.56-1.85-.56-1.81-2.53-.48-3.63,2-1.67,6.95-1.66,7.65,1.4.74,3.25-4.05,5-6.55,5.03-3.14.03-6.06-1.76-5.28-5.27.74-3.31,4.69-4.82,7.75-4.8,4.32.03,8.62,3.03,7.46,7.81-.67,2.74-5.1,5.31-7.76,5.5-.89.06-1.09-.24-1.74-.3-.96-.09-1.84.41-2.71.01-.83-.37-1.3-1.06-2.39-.97-.63.05-.56.69-.21,1.05.7.73,1.84.62,2.69.85s.85.64,1.9.56c.23-.02.5-.12.72-.12.55,0,1.06.24,1.74.19.84-.06,1.32-.61,2.05-.71.45-.06,1.04.06,1.46-.04.36-.09.93-.69,1.32-.9.51-.28,1.44-.32,1.73-.73.39-.56.5-.91,1.07-1.39.19-.16.7-.43.8-.58.33-.48.38-1.71.64-2.29.08-.17.3-.39.36-.6.24-.95-.23-1.58-.32-2.38-.02-.18.07-.41.05-.64-.05-.68-1.01-2.08-1.53-2.55-.37-.33-.71-.66-1.07-1Z"/><path class="cls-1" d="M5.38,8.63c1.78.47,2.32,1.54,2.19,2.74-.22.06-.46.11-.71.15-1.67.28-4.97-.97-5.01-.99.03.02,2.39,1.58,4.77,1.63.3,0,.57,0,.8-.04-.41,1.34-1.42,2.22-3.4,1.7-2.06-.54-4.02-3.84-4.02-3.84,0,0,3.32-1.9,5.38-1.36Z"/><path class="cls-2" d="M24.63,2.88c.36.34.7.66,1.07,1,.52.46,1.48,1.86,1.53,2.55.02.24-.07.46-.05.64.09.8.57,1.44.32,2.38-.06.22-.28.44-.36.6-.27.59-.28,3.78-.74,3.93-.48.15-.24-1.82-.41-1.65-2.07,2.09-1.35,3.11-1.91,3.36-.41.18-.67-.92-1.18-.65-.39.21-.96.81-1.32.9-.42.11-1,0-1.46.04-1.36.12-1.59,2.61-2.43,2.67-.68.05-.82-2.15-1.37-2.15-.22,0-.49.11-.72.12-1.05.08-1.58.82-2.02.1-.78-1.29-1.87-.78-2.57-1.5-.35-.36-.42-1,.21-1.05,1.09-.09,1.56.6,2.39.97.87.39,1.75-.1,2.71-.01.65.06.85.37,1.74.3,2.65-.19,7.09-2.76,7.76-5.5,1.16-4.78-3.14-7.78-7.46-7.81-3.06-.02-7.01,1.48-7.75,4.8-.78,3.51,2.14,5.3,5.28,5.27,2.5-.03,7.28-1.78,6.55-5.03-.69-3.06-5.65-3.07-7.65-1.4-1.32,1.11-1.36,3.07.48,3.63.87.26,2.43.06,3.12-.56,1.08-.97-.26-2.29-1.17-1.49-.25.22-.69.9-1.06.44-.2-.25-.16-.56-.05-.83.72-1.69,4.75-.5,4.31,1.3s-3.72,2.55-5.29,2.18c-2.25-.54-3.37-2.62-1.86-4.56.67-.86,2.2-1.83,3.31-2,.36-.06.77.03,1.12-.02.24-.04.43-.2.73-.23,1.95-.2,5.33,1.52,5.55,3.68.32,3.02-2.22,4.96-4.81,5.8-2.05.66-5.73.62-7.55-.65-3.73-2.6-2.56-7.19.76-9.54.82-.58,2.67-1.34,3.65-1.51.57-.09,1.27.01,1.79-.07.92-.14,1.16-.36,2.21-.23,1.29.16,1.67.34,2.79.87.63.3,1.26.37,1.79.88Z"/><path class="cls-2" d="M45.47,17.04v5.21h-4.33V6.68h6.47c1.88,0,3.31.47,4.3,1.42.99.95,1.48,2.21,1.48,3.79,0,.98-.22,1.86-.66,2.64-.44.78-1.1,1.39-1.97,1.84s-1.92.67-3.16.67h-2.13ZM49.02,11.89c0-1.14-.63-1.72-1.89-1.72h-1.65v3.45h1.65c1.26,0,1.89-.58,1.89-1.74Z"/><path class="cls-2" d="M64.92,19.66h-5.52l-.86,2.6h-4.55l5.7-15.51h4.99l5.68,15.51h-4.58l-.86-2.6ZM63.84,16.41l-1.67-5.06-1.69,5.06h3.37Z"/><path class="cls-2" d="M82.59,20.12c-.44.7-1.08,1.26-1.94,1.67-.85.41-1.87.62-3.06.62-1.8,0-3.29-.43-4.46-1.3s-1.8-2.1-1.9-3.7h4.6c.04.54.21.95.51,1.21.29.26.65.4,1.08.4.38,0,.68-.09.89-.29.21-.19.32-.46.32-.81,0-.47-.21-.83-.64-1.09s-1.1-.54-2.02-.85c-.98-.34-1.79-.67-2.43-.99s-1.19-.81-1.65-1.45c-.46-.65-.69-1.47-.69-2.49s.25-1.8.75-2.5c.5-.7,1.18-1.22,2.05-1.58s1.85-.54,2.95-.54c1.79,0,3.21.42,4.28,1.27s1.65,2.03,1.75,3.55h-4.64c-.06-.48-.21-.84-.45-1.08-.24-.23-.56-.35-.96-.35-.34,0-.6.09-.79.26s-.29.44-.29.79c0,.44.21.79.63,1.03s1.07.53,1.97.84c.98.35,1.8.7,2.44,1.03.65.34,1.2.83,1.67,1.47.47.65.7,1.48.7,2.51,0,.87-.22,1.65-.66,2.35Z"/><path class="cls-2" d="M96.87,6.68v3.45h-4.2v12.12h-4.31v-12.12h-4.16v-3.45h12.67Z"/><path class="cls-2" d="M106.22,22.26l-3.15-5.74h-.44v5.74h-4.33V6.68h6.84c1.25,0,2.31.22,3.18.65.87.43,1.53,1.03,1.97,1.79.44.76.66,1.62.66,2.57,0,1.08-.3,2.03-.9,2.83-.6.8-1.47,1.36-2.6,1.68l3.54,6.05h-4.77ZM102.63,13.61h2.13c1.2,0,1.8-.54,1.8-1.63,0-.51-.15-.92-.45-1.21-.3-.29-.75-.44-1.35-.44h-2.13v3.28Z"/><path class="cls-2" d="M117,10.14v2.57h5.04v3.28h-5.04v2.82h5.7v3.45h-10.03V6.68h10.03v3.45h-5.7Z"/><path class="cls-2" d="M129.01,10.14v2.57h5.04v3.28h-5.04v2.82h5.7v3.45h-10.03V6.68h10.03v3.45h-5.7Z"/></g></svg>